<?xml version="1.0" encoding="utf-8"?>
<!-- Generator: Adobe Illustrator 27.3.1, SVG Export Plug-In . SVG Version: 6.00 Build 0)  -->
<svg version="1.1" id="Layer_1" xmlns="http://www.w3.org/2000/svg" xmlns:xlink="http://www.w3.org/1999/xlink" x="0px" y="0px"
	 viewBox="0 0 1366 768" style="enable-background:new 0 0 1366 768;" xml:space="preserve">
<style type="text/css">
	.st0{fill:url(#SVGID_1_);}
	.st1{fill:#FFFFFF;}
</style>
<linearGradient id="SVGID_1_" gradientUnits="userSpaceOnUse" x1="-58.3389" y1="802.2514" x2="1624.3278" y2="-147.0819">
	<stop  offset="0" style="stop-color:#41205E"/>
	<stop  offset="0.0636" style="stop-color:#391C53"/>
	<stop  offset="0.201" style="stop-color:#2C1640"/>
	<stop  offset="0.3418" style="stop-color:#241234"/>
	<stop  offset="0.4899" style="stop-color:#211130"/>
	<stop  offset="1" style="stop-color:#100817"/>
</linearGradient>
<rect class="st0" width="1366" height="768"/>
<g>
	<g>
		<g>
			<g>
				<path class="st1" d="M1340.29-1.28c-0.96,0.86-0.98,0.98-0.31,2.08c-0.86-0.96-0.98-0.98-2.08-0.31
					c0.96-0.86,0.98-0.98,0.31-2.08C1339.06-0.62,1339.19-0.61,1340.29-1.28z"/>
			</g>
			<g>
				<path class="st1" d="M1295.18,33.02c-0.7,0.66-0.71,0.75-0.19,1.56c-0.66-0.7-0.75-0.71-1.56-0.19c0.7-0.66,0.71-0.75,0.19-1.56
					C1294.28,33.53,1294.37,33.54,1295.18,33.02z"/>
			</g>
			<g>
				<path class="st1" d="M1245.59,52.64c-0.37,1.45-0.3,1.59,1.06,2.2c-1.45-0.37-1.59-0.3-2.2,1.06c0.37-1.45,0.3-1.59-1.06-2.2
					C1244.84,54.07,1244.98,54,1245.59,52.64z"/>
			</g>
			<g>
				<path class="st1" d="M1204.89,7.12c0.49-0.55,0.5-0.62,0.04-1.2c0.55,0.49,0.62,0.5,1.2,0.04c-0.49,0.55-0.5,0.62-0.04,1.2
					C1205.55,6.67,1205.47,6.67,1204.89,7.12z"/>
			</g>
			<g>
				<path class="st1" d="M1176.59-12.46c-0.64,0.81-0.64,0.92,0.05,1.69c-0.81-0.64-0.92-0.64-1.69,0.05
					c0.64-0.81,0.64-0.92-0.05-1.69C1175.72-11.77,1175.82-11.77,1176.59-12.46z"/>
			</g>
			<g>
				<path class="st1" d="M1134.75,54.84c0.34-1.48,0.28-1.62-1.13-2.21c1.48,0.34,1.62,0.28,2.21-1.13
					c-0.34,1.48-0.28,1.62,1.13,2.21C1135.48,53.37,1135.34,53.44,1134.75,54.84z"/>
			</g>
			<g>
				<path class="st1" d="M1090.86,25.78c-1.52-0.19-1.65-0.1-2.1,1.36c0.19-1.52,0.1-1.65-1.36-2.1c1.52,0.19,1.65,0.1,2.1-1.36
					C1089.31,25.2,1089.39,25.33,1090.86,25.78z"/>
			</g>
			<g>
				<path class="st1" d="M1049.21,43.48c-0.75,0.43-0.77,0.51-0.48,1.32c-0.43-0.75-0.51-0.77-1.32-0.48
					c0.75-0.43,0.77-0.51,0.48-1.32C1048.32,43.74,1048.4,43.77,1049.21,43.48z"/>
			</g>
			<g>
				<path class="st1" d="M1018.08,12.24c1.49,0.19,1.61,0.11,2.06-1.33c-0.19,1.49-0.11,1.61,1.33,2.06
					c-1.49-0.19-1.61-0.11-2.06,1.33C1019.6,12.81,1019.52,12.68,1018.08,12.24z"/>
			</g>
			<g>
				<path class="st1" d="M990.14,48.06c0.6,1.31,0.73,1.37,2.12,1.01c-1.31,0.6-1.37,0.73-1.01,2.12c-0.6-1.31-0.73-1.37-2.12-1.01
					C990.44,49.58,990.51,49.45,990.14,48.06z"/>
			</g>
			<g>
				<path class="st1" d="M980.27-4.95c-0.51-1-0.61-1.04-1.68-0.71c1-0.51,1.04-0.61,0.71-1.68c0.51,1,0.61,1.04,1.68,0.71
					C979.98-6.12,979.94-6.02,980.27-4.95z"/>
			</g>
			<g>
				<path class="st1" d="M939.12,60.47c1.24,0.48,1.36,0.43,2.04-0.7c-0.48,1.24-0.43,1.36,0.7,2.04c-1.24-0.48-1.36-0.43-2.04,0.7
					C940.3,61.28,940.26,61.15,939.12,60.47z"/>
			</g>
			<g>
				<path class="st1" d="M907.1,97.78c0.6,1.5,0.74,1.58,2.32,1.25c-1.5,0.6-1.58,0.74-1.25,2.32c-0.6-1.5-0.74-1.58-2.32-1.25
					C907.35,99.5,907.43,99.36,907.1,97.78z"/>
			</g>
			<g>
				<path class="st1" d="M875.5,106.86c-0.74-1.23-0.87-1.28-2.22-0.77c1.23-0.74,1.28-0.87,0.77-2.22
					c0.74,1.23,0.87,1.28,2.22,0.77C875.04,105.38,874.99,105.52,875.5,106.86z"/>
			</g>
			<g>
				<path class="st1" d="M842.84,109.02c-0.98-0.74-1.1-0.73-1.99,0.11c0.74-0.98,0.73-1.1-0.11-1.99c0.98,0.74,1.1,0.73,1.99-0.11
					C842,108.01,842.01,108.13,842.84,109.02z"/>
			</g>
			<g>
				<path class="st1" d="M828.26,94.87c-0.94-0.43-1.04-0.4-1.62,0.45c0.43-0.94,0.4-1.04-0.45-1.62c0.94,0.43,1.04,0.4,1.62-0.45
					C827.38,94.19,827.4,94.29,828.26,94.87z"/>
			</g>
			<g>
				<path class="st1" d="M808.84,30.66c-0.77,0.31-0.81,0.39-0.63,1.2c-0.31-0.77-0.39-0.81-1.2-0.63c0.77-0.31,0.81-0.39,0.63-1.2
					C807.95,30.8,808.03,30.84,808.84,30.66z"/>
			</g>
			<g>
				<path class="st1" d="M784.74-4.21c0.18,1.22,0.27,1.3,1.51,1.34c-1.22,0.18-1.3,0.27-1.34,1.51c-0.18-1.22-0.27-1.3-1.51-1.34
					C784.63-2.88,784.71-2.98,784.74-4.21z"/>
			</g>
			<g>
				<path class="st1" d="M735.42-5.78c0,1.11,0.07,1.2,1.17,1.39c-1.11,0-1.2,0.07-1.39,1.17c0-1.11-0.07-1.2-1.17-1.39
					C735.14-4.61,735.23-4.69,735.42-5.78z"/>
			</g>
			<g>
				<path class="st1" d="M688.27,102.79c-0.92-0.53-1.03-0.51-1.71,0.31c0.53-0.92,0.51-1.03-0.31-1.71
					c0.92,0.53,1.03,0.51,1.71-0.31C687.43,102.01,687.45,102.11,688.27,102.79z"/>
			</g>
			<g>
				<path class="st1" d="M641.74,83.86c-0.24,0.92-0.2,1.01,0.66,1.4c-0.92-0.24-1.01-0.2-1.4,0.66c0.24-0.92,0.2-1.01-0.66-1.4
					C641.25,84.77,641.34,84.73,641.74,83.86z"/>
			</g>
			<g>
				<path class="st1" d="M601.81,1.98c1.32,1.08,1.49,1.08,2.79-0.04c-1.08,1.32-1.08,1.49,0.04,2.79
					c-1.32-1.08-1.49-1.08-2.79,0.04C602.92,3.45,602.92,3.28,601.81,1.98z"/>
			</g>
			<g>
				<path class="st1" d="M556.54,76.06c-0.39-1.27-0.5-1.34-1.81-1.18c1.27-0.39,1.34-0.5,1.18-1.81c0.39,1.27,0.5,1.34,1.81,1.18
					C556.45,74.63,556.38,74.74,556.54,76.06z"/>
			</g>
			<g>
				<path class="st1" d="M515.71,91.89c0.93-0.36,0.97-0.45,0.78-1.42c0.36,0.93,0.45,0.97,1.42,0.78
					c-0.93,0.36-0.97,0.45-0.78,1.42C516.77,91.74,516.69,91.69,515.71,91.89z"/>
			</g>
			<g>
				<path class="st1" d="M481.04,8.84c-0.67,0.23-0.7,0.29-0.59,0.98c-0.23-0.67-0.29-0.7-0.98-0.59c0.67-0.23,0.7-0.29,0.59-0.98
					C480.29,8.91,480.35,8.95,481.04,8.84z"/>
			</g>
			<g>
				<path class="st1" d="M455.77,32.62c0.73-0.89,0.73-1-0.02-1.87c0.89,0.73,1,0.73,1.87-0.02c-0.73,0.89-0.73,1,0.02,1.87
					C456.75,31.87,456.64,31.87,455.77,32.62z"/>
			</g>
			<g>
				<path class="st1" d="M446.31,53.16c-0.37-1.07-0.46-1.13-1.58-0.96c1.07-0.37,1.13-0.46,0.96-1.58
					c0.37,1.07,0.46,1.13,1.58,0.96C446.19,51.95,446.13,52.04,446.31,53.16z"/>
			</g>
			<g>
				<path class="st1" d="M426.9,27.54c0.9-0.56,0.93-0.66,0.54-1.64c0.56,0.9,0.66,0.93,1.64,0.54c-0.9,0.56-0.93,0.66-0.54,1.64
					C427.98,27.18,427.88,27.15,426.9,27.54z"/>
			</g>
			<g>
				<path class="st1" d="M405.61,109.86c0.18,1.49,0.29,1.59,1.79,1.67c-1.49,0.18-1.59,0.29-1.67,1.79
					c-0.18-1.49-0.29-1.59-1.79-1.67C405.43,111.46,405.53,111.35,405.61,109.86z"/>
			</g>
			<g>
				<path class="st1" d="M394.82,84.28c-0.32-0.71-0.39-0.75-1.15-0.56c0.71-0.32,0.75-0.39,0.56-1.15
					c0.32,0.71,0.39,0.75,1.15,0.56C394.66,83.45,394.62,83.52,394.82,84.28z"/>
			</g>
			<g>
				<path class="st1" d="M385.62,11.69c0.03,1.73,0.14,1.86,1.85,2.14c-1.73,0.03-1.86,0.14-2.14,1.85
					c-0.03-1.73-0.14-1.86-1.85-2.14C385.22,13.52,385.35,13.4,385.62,11.69z"/>
			</g>
			<g>
				<path class="st1" d="M370.47,15.96c0.53,1.07,0.64,1.12,1.79,0.78c-1.07,0.53-1.12,0.64-0.78,1.79
					c-0.53-1.07-0.64-1.12-1.79-0.78C370.76,17.22,370.81,17.11,370.47,15.96z"/>
			</g>
			<g>
				<path class="st1" d="M327.31,87.28c-0.83-0.42-0.92-0.4-1.48,0.35c0.42-0.83,0.4-0.92-0.35-1.48c0.83,0.42,0.92,0.4,1.48-0.35
					C326.54,86.63,326.56,86.72,327.31,87.28z"/>
			</g>
			<g>
				<path class="st1" d="M279.75,51.95c0.57,1.5,0.71,1.58,2.29,1.28c-1.5,0.57-1.58,0.71-1.28,2.29c-0.57-1.5-0.71-1.58-2.29-1.28
					C279.97,53.67,280.05,53.53,279.75,51.95z"/>
			</g>
			<g>
				<path class="st1" d="M237.51-6.74c-0.64,1.44-0.59,1.59,0.71,2.46c-1.44-0.64-1.59-0.59-2.46,0.71
					c0.64-1.44,0.59-1.59-0.71-2.46C236.48-5.39,236.63-5.43,237.51-6.74z"/>
			</g>
			<g>
				<path class="st1" d="M200.35-0.81c-0.47-0.75-0.55-0.78-1.38-0.45c0.75-0.47,0.78-0.55,0.45-1.38c0.47,0.75,0.55,0.78,1.38,0.45
					C200.05-1.72,200.02-1.63,200.35-0.81z"/>
			</g>
			<g>
				<path class="st1" d="M170.82,117.8c-1.16-0.9-1.31-0.9-2.4,0.09c0.9-1.16,0.9-1.31-0.09-2.4c1.16,0.9,1.31,0.9,2.4-0.09
					C169.83,116.56,169.84,116.71,170.82,117.8z"/>
			</g>
			<g>
				<path class="st1" d="M139.51,76.65c-1.01-0.86-1.15-0.86-2.16-0.01c0.86-1.01,0.86-1.15,0.01-2.16
					c1.01,0.86,1.15,0.86,2.16,0.01C138.66,75.5,138.66,75.63,139.51,76.65z"/>
			</g>
			<g>
				<path class="st1" d="M95.41,82.88c1.19-0.17,1.27-0.26,1.31-1.46c0.17,1.19,0.26,1.27,1.46,1.31c-1.19,0.17-1.27,0.26-1.31,1.46
					C96.7,83,96.61,82.92,95.41,82.88z"/>
			</g>
			<g>
				<path class="st1" d="M71.04-6.09c1.47,0.63,1.62,0.58,2.49-0.75c-0.63,1.47-0.58,1.62,0.75,2.49c-1.47-0.63-1.62-0.58-2.49,0.75
					C72.43-5.07,72.38-5.22,71.04-6.09z"/>
			</g>
			<g>
				<path class="st1" d="M25.32,21.31c-0.37,0.62-0.36,0.69,0.19,1.16c-0.62-0.37-0.69-0.36-1.16,0.19
					c0.37-0.62,0.36-0.69-0.19-1.16C24.77,21.87,24.85,21.86,25.32,21.31z"/>
			</g>
			<g>
				<path class="st1" d="M6.75-0.44c0.04-0.83-0.01-0.89-0.81-1.08c0.83,0.04,0.89-0.01,1.08-0.81C6.97-1.5,7.02-1.43,7.82-1.25
					C7-1.29,6.93-1.24,6.75-0.44z"/>
			</g>
		</g>
	</g>
	<g>
		<g>
			<g>
				<path class="st1" d="M1390.09,140.84c0.82,0.13,0.9,0.09,1.17-0.7c-0.13,0.82-0.09,0.9,0.7,1.17c-0.82-0.13-0.9-0.09-1.17,0.7
					C1390.92,141.18,1390.88,141.11,1390.09,140.84z"/>
			</g>
			<g>
				<path class="st1" d="M1373.47,155.63c-0.89-1.29-1.04-1.34-2.46-0.69c1.29-0.89,1.34-1.04,0.69-2.46
					c0.89,1.29,1.04,1.34,2.46,0.69C1372.86,154.05,1372.82,154.2,1373.47,155.63z"/>
			</g>
			<g>
				<path class="st1" d="M1339.56,189.09c0.63,0.28,0.7,0.26,1.09-0.31c-0.28,0.63-0.26,0.7,0.31,1.09
					c-0.63-0.28-0.7-0.26-1.09,0.31C1340.16,189.54,1340.14,189.48,1339.56,189.09z"/>
			</g>
			<g>
				<path class="st1" d="M1295.62,208.33c-0.89,0.95-0.9,1.08-0.11,2.13c-0.95-0.89-1.08-0.9-2.13-0.11
					c0.89-0.95,0.9-1.08,0.11-2.13C1294.45,209.11,1294.58,209.12,1295.62,208.33z"/>
			</g>
			<g>
				<path class="st1" d="M1254.2,143.48c0.72-0.8,0.73-0.91,0.07-1.76c0.8,0.72,0.91,0.73,1.76,0.07c-0.72,0.8-0.73,0.91-0.07,1.76
					C1255.16,142.82,1255.05,142.82,1254.2,143.48z"/>
			</g>
			<g>
				<path class="st1" d="M1225.84,206.1c-0.58,1.38-0.54,1.52,0.72,2.33c-1.38-0.58-1.52-0.54-2.33,0.72
					c0.58-1.38,0.54-1.52-0.72-2.33C1224.89,207.4,1225.03,207.36,1225.84,206.1z"/>
			</g>
			<g>
				<path class="st1" d="M1214.78,166.46c1.23-1.05,1.26-1.21,0.44-2.6c1.05,1.23,1.21,1.26,2.6,0.44c-1.23,1.05-1.26,1.21-0.44,2.6
					C1216.33,165.67,1216.17,165.64,1214.78,166.46z"/>
			</g>
			<g>
				<path class="st1" d="M1177.23,236.74c0.34,0.81,0.42,0.85,1.28,0.65c-0.81,0.34-0.85,0.42-0.65,1.28
					c-0.34-0.81-0.42-0.85-1.28-0.65C1177.39,237.67,1177.43,237.59,1177.23,236.74z"/>
			</g>
			<g>
				<path class="st1" d="M1153.74,232.75c0.98-0.44,1.03-0.53,0.76-1.58c0.44,0.98,0.53,1.03,1.58,0.76
					c-0.98,0.44-1.03,0.53-0.76,1.58C1154.87,232.53,1154.78,232.49,1153.74,232.75z"/>
			</g>
			<g>
				<path class="st1" d="M1137.61,238.58c-1.14,0.65-1.19,0.77-0.75,2.01c-0.65-1.14-0.77-1.19-2.01-0.75
					c1.14-0.65,1.19-0.77,0.75-2.01C1136.25,238.98,1136.37,239.02,1137.61,238.58z"/>
			</g>
			<g>
				<path class="st1" d="M1100.01,161.24c-1.29-0.9-1.44-0.89-2.56,0.22c0.9-1.29,0.89-1.44-0.22-2.55c1.29,0.9,1.44,0.89,2.56-0.22
					C1098.88,159.97,1098.9,160.13,1100.01,161.24z"/>
			</g>
			<g>
				<path class="st1" d="M1072.84,182.65c-1.15,0.82-1.19,0.95-0.58,2.23c-0.82-1.15-0.95-1.19-2.23-0.58
					c1.15-0.82,1.19-0.95,0.58-2.23C1071.43,183.22,1071.57,183.26,1072.84,182.65z"/>
			</g>
			<g>
				<path class="st1" d="M1046.06,207.07c0.29-0.82,0.26-0.9-0.5-1.32c0.82,0.29,0.9,0.26,1.32-0.5c-0.29,0.82-0.26,0.9,0.5,1.32
					C1046.56,206.28,1046.48,206.31,1046.06,207.07z"/>
			</g>
			<g>
				<path class="st1" d="M1028.14,270.71c-0.65-0.9-0.75-0.92-1.75-0.44c0.9-0.65,0.92-0.75,0.44-1.75c0.65,0.9,0.75,0.92,1.75,0.44
					C1027.68,269.61,1027.66,269.71,1028.14,270.71z"/>
			</g>
			<g>
				<path class="st1" d="M983.06,266.48c1.62-0.39,1.71-0.52,1.61-2.18c0.39,1.62,0.52,1.71,2.18,1.61
					c-1.62,0.39-1.71,0.52-1.61,2.18C984.85,266.47,984.72,266.37,983.06,266.48z"/>
			</g>
			<g>
				<path class="st1" d="M970.73,257.17c1.55-0.32,1.65-0.45,1.6-2.03c0.32,1.55,0.45,1.65,2.03,1.6c-1.55,0.32-1.65,0.45-1.6,2.03
					C972.44,257.22,972.31,257.13,970.73,257.17z"/>
			</g>
			<g>
				<path class="st1" d="M923.24,148.94c-0.55-0.52-0.62-0.52-1.23-0.07c0.52-0.55,0.52-0.62,0.07-1.23
					c0.55,0.52,0.62,0.52,1.23,0.07C922.8,148.26,922.79,148.33,923.24,148.94z"/>
			</g>
			<g>
				<path class="st1" d="M882.7,252.05c0.31-0.89,0.28-0.98-0.55-1.44c0.89,0.31,0.98,0.28,1.44-0.55
					c-0.31,0.89-0.28,0.98,0.55,1.44C883.25,251.19,883.17,251.22,882.7,252.05z"/>
			</g>
			<g>
				<path class="st1" d="M836.81,210.95c0.23-1.65,0.14-1.79-1.45-2.3c1.65,0.23,1.79,0.14,2.3-1.45c-0.23,1.65-0.14,1.79,1.45,2.3
					C837.46,209.28,837.32,209.36,836.81,210.95z"/>
			</g>
			<g>
				<path class="st1" d="M824.03,242.03c-1.08-0.16-1.17-0.11-1.52,0.93c0.16-1.08,0.11-1.17-0.93-1.52
					c1.08,0.16,1.17,0.11,1.52-0.93C822.94,241.59,822.99,241.68,824.03,242.03z"/>
			</g>
			<g>
				<path class="st1" d="M799.15,239.34c1.55-0.71,1.62-0.86,1.19-2.5c0.71,1.55,0.86,1.62,2.5,1.19c-1.55,0.71-1.62,0.86-1.19,2.5
					C800.95,238.98,800.79,238.91,799.15,239.34z"/>
			</g>
			<g>
				<path class="st1" d="M781.46,257.29c-0.64,0.39-0.67,0.46-0.39,1.16c-0.39-0.64-0.46-0.67-1.16-0.39
					c0.64-0.39,0.67-0.46,0.39-1.16C780.69,257.54,780.76,257.57,781.46,257.29z"/>
			</g>
			<g>
				<path class="st1" d="M757,266.5c-0.38-0.97-0.48-1.02-1.49-0.81c0.97-0.38,1.02-0.48,0.81-1.49c0.38,0.97,0.48,1.02,1.49,0.81
					C756.84,265.39,756.79,265.48,757,266.5z"/>
			</g>
			<g>
				<path class="st1" d="M732.72,199.3c-1.16-0.25-1.26-0.2-1.71,0.9c0.25-1.16,0.2-1.26-0.9-1.71c1.16,0.25,1.26,0.2,1.71-0.9
					C731.57,198.74,731.62,198.85,732.72,199.3z"/>
			</g>
			<g>
				<path class="st1" d="M684.17,176.63c0.7,0.41,0.77,0.39,1.3-0.22c-0.41,0.7-0.39,0.77,0.22,1.3c-0.7-0.41-0.77-0.39-1.3,0.22
					C684.79,177.23,684.78,177.15,684.17,176.63z"/>
			</g>
			<g>
				<path class="st1" d="M635.75,175.14c0.85,0.29,0.93,0.25,1.36-0.53c-0.29,0.85-0.25,0.93,0.53,1.36
					c-0.85-0.29-0.93-0.25-1.36,0.53C636.57,175.65,636.54,175.57,635.75,175.14z"/>
			</g>
			<g>
				<path class="st1" d="M627.28,224.58c0.85-0.74,0.86-0.85,0.28-1.82c0.74,0.85,0.85,0.86,1.82,0.28
					c-0.85,0.74-0.86,0.85-0.28,1.82C628.36,224.02,628.24,224,627.28,224.58z"/>
			</g>
			<g>
				<path class="st1" d="M607.14,170.76c0.19,0.71,0.25,0.75,0.98,0.69c-0.71,0.19-0.75,0.25-0.69,0.98
					c-0.19-0.71-0.25-0.75-0.98-0.69C607.16,171.55,607.2,171.49,607.14,170.76z"/>
			</g>
			<g>
				<path class="st1" d="M582.79,264.74c0.91,0.56,1.02,0.55,1.73-0.26c-0.56,0.91-0.55,1.02,0.26,1.73
					c-0.91-0.56-1.02-0.55-1.73,0.26C583.61,265.56,583.6,265.45,582.79,264.74z"/>
			</g>
			<g>
				<path class="st1" d="M562.52,197.93c0.83,0.41,0.92,0.39,1.47-0.36c-0.41,0.83-0.39,0.92,0.36,1.47
					c-0.83-0.41-0.92-0.39-1.47,0.36C563.3,198.57,563.27,198.48,562.52,197.93z"/>
			</g>
			<g>
				<path class="st1" d="M554.08,189.95c-0.62-0.42-0.69-0.41-1.22,0.12c0.42-0.62,0.41-0.69-0.12-1.22
					c0.62,0.42,0.69,0.41,1.22-0.12C553.53,189.35,553.54,189.43,554.08,189.95z"/>
			</g>
			<g>
				<path class="st1" d="M509.8,191.48c-0.16,1.35-0.09,1.46,1.21,1.86c-1.35-0.16-1.46-0.09-1.86,1.21
					c0.16-1.35,0.09-1.46-1.21-1.86C509.29,192.85,509.41,192.78,509.8,191.48z"/>
			</g>
			<g>
				<path class="st1" d="M488.83,260.83c0.66-0.24,0.69-0.3,0.57-0.99c0.24,0.66,0.3,0.69,0.99,0.57c-0.66,0.24-0.69,0.3-0.57,0.99
					C489.59,260.74,489.52,260.71,488.83,260.83z"/>
			</g>
			<g>
				<path class="st1" d="M481.79,223.59c-0.88,0.53-0.91,0.63-0.54,1.58c-0.53-0.88-0.63-0.91-1.58-0.54
					c0.88-0.53,0.91-0.63,0.54-1.58C480.74,223.93,480.84,223.96,481.79,223.59z"/>
			</g>
			<g>
				<path class="st1" d="M441.47,256.16c-1.01-0.77-1.14-0.76-2.07,0.1c0.77-1.01,0.76-1.14-0.1-2.07c1.01,0.77,1.14,0.76,2.07-0.1
					C440.6,255.1,440.61,255.23,441.47,256.16z"/>
			</g>
			<g>
				<path class="st1" d="M388.04,229.6c1.08-0.91,1.1-1.04,0.4-2.26c0.91,1.08,1.04,1.1,2.26,0.4c-1.08,0.91-1.1,1.04-0.4,2.26
					C389.4,228.92,389.26,228.9,388.04,229.6z"/>
			</g>
			<g>
				<path class="st1" d="M374.51,247.23c-0.31,1.32-0.25,1.44,1,1.98c-1.32-0.31-1.44-0.25-1.98,1c0.31-1.32,0.25-1.44-1-1.98
					C373.85,248.54,373.97,248.48,374.51,247.23z"/>
			</g>
			<g>
				<path class="st1" d="M358.96,224.34c-0.38,1.56-0.31,1.7,1.16,2.35c-1.56-0.38-1.7-0.31-2.35,1.16c0.38-1.56,0.31-1.7-1.16-2.35
					C358.17,225.88,358.31,225.81,358.96,224.34z"/>
			</g>
			<g>
				<path class="st1" d="M330.14,236.37c0.62-1.21,0.59-1.34-0.49-2.15c1.21,0.62,1.34,0.59,2.15-0.49
					c-0.62,1.21-0.59,1.34,0.49,2.15C331.09,235.26,330.95,235.29,330.14,236.37z"/>
			</g>
			<g>
				<path class="st1" d="M304.78,186.87c0.55,0.82,0.64,0.84,1.54,0.45c-0.82,0.55-0.84,0.64-0.45,1.54
					c-0.55-0.82-0.64-0.84-1.54-0.45C305.15,187.87,305.17,187.77,304.78,186.87z"/>
			</g>
			<g>
				<path class="st1" d="M273.29,254.08c-0.94-0.38-1.03-0.35-1.57,0.5c0.38-0.94,0.35-1.03-0.5-1.57c0.94,0.38,1.03,0.35,1.57-0.5
					C272.4,253.44,272.43,253.54,273.29,254.08z"/>
			</g>
			<g>
				<path class="st1" d="M256.48,226.83c-0.49-0.51-0.56-0.52-1.16-0.12c0.51-0.49,0.52-0.56,0.12-1.16
					c0.49,0.51,0.56,0.52,1.16,0.12C256.09,226.17,256.08,226.24,256.48,226.83z"/>
			</g>
			<g>
				<path class="st1" d="M236.26,234.27c0.82,0.37,0.91,0.35,1.42-0.4c-0.37,0.82-0.35,0.91,0.4,1.42c-0.82-0.37-0.91-0.35-1.42,0.4
					C237.03,234.87,237.01,234.78,236.26,234.27z"/>
			</g>
			<g>
				<path class="st1" d="M183.66,268.47c0.81,0.41,0.9,0.39,1.44-0.34c-0.41,0.81-0.39,0.9,0.34,1.44c-0.81-0.41-0.9-0.39-1.44,0.34
					C184.41,269.1,184.39,269.01,183.66,268.47z"/>
			</g>
			<g>
				<path class="st1" d="M137.55,255.9c-0.46,1.62-0.39,1.77,1.13,2.5c-1.62-0.46-1.77-0.39-2.5,1.13c0.46-1.62,0.39-1.77-1.13-2.5
					C136.66,257.48,136.81,257.41,137.55,255.9z"/>
			</g>
			<g>
				<path class="st1" d="M131.58,215.16c-1.38,0.24-1.47,0.35-1.47,1.75c-0.24-1.38-0.35-1.47-1.75-1.47
					c1.38-0.24,1.47-0.35,1.47-1.75C130.07,215.07,130.18,215.16,131.58,215.16z"/>
			</g>
			<g>
				<path class="st1" d="M103.34,241.4c-0.62,0.95-0.61,1.06,0.22,1.84c-0.95-0.62-1.06-0.61-1.84,0.22
					c0.62-0.95,0.61-1.06-0.22-1.84C102.45,242.25,102.56,242.23,103.34,241.4z"/>
			</g>
			<g>
				<path class="st1" d="M93.97,215.56c-0.69,0.56-0.71,0.65-0.27,1.43c-0.56-0.69-0.65-0.71-1.43-0.27
					c0.69-0.56,0.71-0.65,0.27-1.43C93.1,215.97,93.19,215.99,93.97,215.56z"/>
			</g>
			<g>
				<path class="st1" d="M71.88,162.26c0.58,0.59,0.66,0.6,1.34,0.13c-0.59,0.58-0.6,0.66-0.13,1.34c-0.58-0.59-0.66-0.6-1.34-0.13
					C72.34,163.02,72.35,162.94,71.88,162.26z"/>
			</g>
			<g>
				<path class="st1" d="M31.38,206.88c-0.2,1.08-0.15,1.17,0.88,1.56c-1.08-0.2-1.17-0.15-1.56,0.88c0.2-1.08,0.15-1.17-0.88-1.56
					C30.89,207.96,30.99,207.91,31.38,206.88z"/>
			</g>
			<g>
				<path class="st1" d="M0.92,185.52c0.5,0.65,0.58,0.67,1.31,0.29c-0.65,0.5-0.67,0.58-0.29,1.31c-0.5-0.65-0.58-0.67-1.31-0.29
					C1.28,186.32,1.29,186.24,0.92,185.52z"/>
			</g>
		</g>
	</g>
	<g>
		<g>
			<g>
				<path class="st1" d="M1357.56,352.42c0.88-0.44,0.92-0.53,0.64-1.48c0.44,0.88,0.53,0.92,1.48,0.64
					c-0.88,0.44-0.92,0.53-0.64,1.48C1358.59,352.18,1358.5,352.14,1357.56,352.42z"/>
			</g>
			<g>
				<path class="st1" d="M1326.37,422c0.83,0,0.89-0.05,1.04-0.87c0,0.83,0.05,0.89,0.87,1.04c-0.83,0-0.89,0.05-1.04,0.87
					C1327.24,422.21,1327.19,422.15,1326.37,422z"/>
			</g>
			<g>
				<path class="st1" d="M1304.12,414.47c-0.88,0.43-0.91,0.52-0.65,1.45c-0.43-0.88-0.52-0.91-1.45-0.65
					c0.88-0.43,0.91-0.52,0.65-1.45C1303.09,414.7,1303.18,414.74,1304.12,414.47z"/>
			</g>
			<g>
				<path class="st1" d="M1269.93,299.89c0.93-0.94,0.95-1.07,0.18-2.15c0.94,0.93,1.07,0.95,2.15,0.18
					c-0.93,0.94-0.95,1.07-0.18,2.15C1271.15,299.13,1271.02,299.12,1269.93,299.89z"/>
			</g>
			<g>
				<path class="st1" d="M1218.51,334.03c-1.01,1.31-1.01,1.48,0.11,2.7c-1.31-1.01-1.48-1.01-2.7,0.11
					c1.01-1.31,1.01-1.48-0.11-2.7C1217.12,335.15,1217.29,335.15,1218.51,334.03z"/>
			</g>
			<g>
				<path class="st1" d="M1197.31,338.28c-0.06-1.15-0.13-1.23-1.27-1.38c1.15-0.06,1.23-0.13,1.38-1.27
					c0.06,1.15,0.13,1.23,1.27,1.38C1197.54,337.06,1197.45,337.14,1197.31,338.28z"/>
			</g>
			<g>
				<path class="st1" d="M1153.89,298.76c1.34,0.45,1.47,0.4,2.14-0.84c-0.45,1.34-0.4,1.47,0.84,2.14
					c-1.34-0.45-1.47-0.4-2.14,0.84C1155.18,299.57,1155.13,299.44,1153.89,298.76z"/>
			</g>
			<g>
				<path class="st1" d="M1135.7,393.52c0.94-0.47,0.98-0.56,0.69-1.57c0.47,0.94,0.56,0.98,1.57,0.69
					c-0.94,0.47-0.98,0.56-0.69,1.57C1136.8,393.26,1136.7,393.22,1135.7,393.52z"/>
			</g>
			<g>
				<path class="st1" d="M1117.23,399.39c-1.2,0.7-1.24,0.83-0.76,2.13c-0.7-1.2-0.83-1.24-2.13-0.76c1.2-0.7,1.24-0.83,0.76-2.13
					C1115.8,399.82,1115.93,399.87,1117.23,399.39z"/>
			</g>
			<g>
				<path class="st1" d="M1080.37,325.49c-0.21,1.3-0.14,1.42,1.11,1.85c-1.3-0.21-1.42-0.14-1.85,1.11
					c0.21-1.3,0.14-1.42-1.11-1.85C1079.83,326.8,1079.94,326.74,1080.37,325.49z"/>
			</g>
			<g>
				<path class="st1" d="M1055.43,350.26c-0.95-0.5-1.06-0.48-1.71,0.37c0.5-0.95,0.48-1.06-0.37-1.71c0.95,0.5,1.06,0.48,1.71-0.37
					C1054.55,349.5,1054.58,349.6,1055.43,350.26z"/>
			</g>
			<g>
				<path class="st1" d="M1018.29,312.55c0.02-1.63-0.08-1.76-1.69-2.06c1.63,0.02,1.76-0.08,2.06-1.69
					c-0.02,1.63,0.08,1.76,1.69,2.06C1018.72,310.84,1018.6,310.94,1018.29,312.55z"/>
			</g>
			<g>
				<path class="st1" d="M978.09,415.11c-1.05,0.6-1.1,0.72-0.69,1.86c-0.6-1.05-0.72-1.1-1.86-0.69c1.05-0.6,1.1-0.72,0.69-1.86
					C976.83,415.48,976.95,415.52,978.09,415.11z"/>
			</g>
			<g>
				<path class="st1" d="M968.65,366.23c-0.61,1.2-0.58,1.33,0.5,2.14c-1.2-0.61-1.33-0.58-2.14,0.5c0.61-1.2,0.58-1.33-0.5-2.14
					C967.72,367.34,967.85,367.31,968.65,366.23z"/>
			</g>
			<g>
				<path class="st1" d="M932.94,300.15c1.48,0.14,1.61,0.05,2-1.39c-0.14,1.48-0.05,1.61,1.39,2c-1.48-0.14-1.61-0.05-2,1.39
					C934.47,300.66,934.38,300.54,932.94,300.15z"/>
			</g>
			<g>
				<path class="st1" d="M912.81,424.28c-1.35-0.1-1.46-0.03-1.8,1.29c0.1-1.35,0.03-1.46-1.29-1.8c1.35,0.1,1.46,0.03,1.8-1.29
					C911.42,423.83,911.5,423.94,912.81,424.28z"/>
			</g>
			<g>
				<path class="st1" d="M888.27,412.54c0.73,0.25,0.81,0.23,1.18-0.45c-0.25,0.73-0.23,0.81,0.45,1.18
					c-0.73-0.25-0.81-0.23-1.18,0.45C888.98,412.99,888.95,412.92,888.27,412.54z"/>
			</g>
			<g>
				<path class="st1" d="M846.08,323.19c0.18-1.07,0.13-1.16-0.9-1.53c1.07,0.18,1.16,0.13,1.53-0.9c-0.18,1.07-0.13,1.16,0.9,1.53
					C846.54,322.11,846.44,322.17,846.08,323.19z"/>
			</g>
			<g>
				<path class="st1" d="M823.21,425.42c-0.56-1.48-0.69-1.56-2.25-1.26c1.48-0.56,1.56-0.69,1.26-2.25
					c0.56,1.48,0.69,1.56,2.25,1.26C823,423.73,822.92,423.86,823.21,425.42z"/>
			</g>
			<g>
				<path class="st1" d="M787.8,367.4c-0.72-0.94-0.83-0.96-1.88-0.42c0.94-0.72,0.96-0.83,0.42-1.88c0.72,0.94,0.83,0.96,1.88,0.42
					C787.28,366.24,787.26,366.36,787.8,367.4z"/>
			</g>
			<g>
				<path class="st1" d="M774.48,363.89c0.27-0.93,0.23-1.02-0.65-1.45c0.93,0.27,1.02,0.23,1.45-0.65
					c-0.27,0.94-0.23,1.02,0.65,1.45C774.99,362.98,774.9,363.02,774.48,363.89z"/>
			</g>
			<g>
				<path class="st1" d="M730.51,333.71c1.56,0.16,1.69,0.07,2.12-1.44c-0.16,1.56-0.07,1.69,1.44,2.12
					c-1.56-0.16-1.69-0.07-2.12,1.44C732.11,334.26,732.02,334.13,730.51,333.71z"/>
			</g>
			<g>
				<path class="st1" d="M716.03,357.99c-1.52-0.56-1.67-0.51-2.49,0.89c0.56-1.52,0.51-1.67-0.89-2.49
					c1.52,0.56,1.67,0.51,2.49-0.89C714.58,357.02,714.63,357.17,716.03,357.99z"/>
			</g>
			<g>
				<path class="st1" d="M667.22,404.89c-0.03-1.42-0.12-1.53-1.53-1.74c1.42-0.03,1.53-0.12,1.74-1.53
					c0.03,1.42,0.12,1.53,1.53,1.74C667.55,403.4,667.44,403.49,667.22,404.89z"/>
			</g>
			<g>
				<path class="st1" d="M626.33,382.67c-1.03-0.27-1.13-0.22-1.57,0.75c0.27-1.03,0.22-1.13-0.75-1.57
					c1.03,0.27,1.13,0.22,1.57-0.75C625.32,382.13,625.36,382.23,626.33,382.67z"/>
			</g>
			<g>
				<path class="st1" d="M583.35,369.46c-0.21-0.73-0.27-0.77-1.02-0.69c0.73-0.21,0.77-0.27,0.69-1.02
					c0.21,0.73,0.27,0.77,1.02,0.69C583.31,368.64,583.27,368.7,583.35,369.46z"/>
			</g>
			<g>
				<path class="st1" d="M570,315.11c-0.91-0.99-1.04-1.01-2.18-0.29c0.99-0.91,1.01-1.04,0.29-2.18c0.91,0.99,1.04,1.01,2.18,0.29
					C569.29,313.84,569.28,313.97,570,315.11z"/>
			</g>
			<g>
				<path class="st1" d="M513.95,426.4c1.07-0.86,1.1-1,0.43-2.2c0.86,1.07,1,1.1,2.2,0.43c-1.07,0.86-1.1,1-0.43,2.2
					C515.29,425.77,515.16,425.74,513.95,426.4z"/>
			</g>
			<g>
				<path class="st1" d="M483.59,404.31c0.72-0.22,0.76-0.29,0.66-1.03c0.22,0.72,0.29,0.76,1.03,0.66
					c-0.72,0.22-0.76,0.29-0.66,1.03C484.4,404.25,484.33,404.21,483.59,404.31z"/>
			</g>
			<g>
				<path class="st1" d="M442.53,366.56c-1.24-0.03-1.34,0.04-1.58,1.26c0.03-1.24-0.04-1.34-1.26-1.58
					c1.24,0.03,1.34-0.04,1.58-1.26C441.24,366.22,441.31,366.31,442.53,366.56z"/>
			</g>
			<g>
				<path class="st1" d="M400.17,375.47c1.3,0.14,1.41,0.06,1.77-1.2c-0.14,1.3-0.06,1.41,1.2,1.77c-1.3-0.14-1.41-0.06-1.77,1.2
					C401.5,375.94,401.43,375.83,400.17,375.47z"/>
			</g>
			<g>
				<path class="st1" d="M393.21,364.73c0.64-0.4,0.66-0.47,0.38-1.17c0.4,0.64,0.47,0.66,1.17,0.38c-0.64,0.4-0.66,0.47-0.38,1.17
					C393.98,364.47,393.9,364.44,393.21,364.73z"/>
			</g>
			<g>
				<path class="st1" d="M369.18,326.95c0.16-1.04,0.1-1.13-0.89-1.46c1.04,0.16,1.13,0.1,1.46-0.89c-0.16,1.04-0.1,1.13,0.89,1.46
					C369.6,325.9,369.51,325.95,369.18,326.95z"/>
			</g>
			<g>
				<path class="st1" d="M319.13,339.47c-0.92,0.25-0.97,0.33-0.88,1.27c-0.25-0.92-0.33-0.97-1.27-0.88
					c0.92-0.25,0.97-0.33,0.88-1.27C318.11,339.51,318.19,339.56,319.13,339.47z"/>
			</g>
			<g>
				<path class="st1" d="M291.63,347.65c1.2,0.77,1.34,0.76,2.31-0.29c-0.77,1.2-0.76,1.34,0.29,2.31c-1.2-0.77-1.34-0.76-2.31,0.29
					C292.7,348.76,292.68,348.62,291.63,347.65z"/>
			</g>
			<g>
				<path class="st1" d="M251.11,410.16c-1.43,0.12-1.53,0.22-1.66,1.65c-0.12-1.43-0.22-1.53-1.65-1.66
					c1.43-0.12,1.53-0.22,1.66-1.65C249.58,409.93,249.68,410.03,251.11,410.16z"/>
			</g>
			<g>
				<path class="st1" d="M208.83,356.28c1.27,0.32,1.39,0.27,1.92-0.93c-0.32,1.27-0.27,1.39,0.93,1.92
					c-1.27-0.32-1.39-0.27-1.92,0.93C210.08,356.94,210.03,356.82,208.83,356.28z"/>
			</g>
			<g>
				<path class="st1" d="M173.86,323.43c0.1-1.12,0.03-1.21-1.05-1.5c1.12,0.1,1.21,0.03,1.5-1.05c-0.1,1.12-0.03,1.21,1.05,1.5
					C174.24,322.29,174.15,322.35,173.86,323.43z"/>
			</g>
			<g>
				<path class="st1" d="M130.48,360.39c1.43,0.31,1.56,0.24,2.11-1.12c-0.31,1.43-0.24,1.56,1.12,2.11
					c-1.43-0.31-1.56-0.24-2.11,1.12C131.9,361.07,131.83,360.94,130.48,360.39z"/>
			</g>
			<g>
				<path class="st1" d="M81.22,368.16c0.84-0.92,0.85-1.05,0.08-2.03c0.92,0.84,1.05,0.85,2.03,0.08
					c-0.84,0.92-0.85,1.05-0.08,2.03C82.34,367.41,82.21,367.4,81.22,368.16z"/>
			</g>
			<g>
				<path class="st1" d="M45.41,338.2c1.6,0.17,1.73,0.08,2.18-1.46c-0.17,1.6-0.08,1.73,1.46,2.18c-1.6-0.17-1.73-0.08-2.18,1.46
					C47.04,338.78,46.95,338.65,45.41,338.2z"/>
			</g>
			<g>
				<path class="st1" d="M9.07,329.01c1.37,0.81,1.53,0.78,2.56-0.43c-0.81,1.37-0.78,1.53,0.43,2.56
					c-1.37-0.81-1.53-0.78-2.56,0.43C10.31,330.19,10.29,330.04,9.07,329.01z"/>
			</g>
		</g>
	</g>
	<g>
		<g>
			<g>
				<path class="st1" d="M1344.77,543.01c0.95,0.25,1.04,0.2,1.44-0.69c-0.25,0.95-0.2,1.04,0.69,1.44
					c-0.95-0.25-1.04-0.2-1.44,0.69C1345.71,543.5,1345.67,543.41,1344.77,543.01z"/>
			</g>
			<g>
				<path class="st1" d="M1307.85,561.76c-1.27,0.06-1.37,0.15-1.53,1.41c-0.06-1.27-0.15-1.37-1.41-1.53
					c1.27-0.06,1.37-0.15,1.53-1.41C1306.5,561.51,1306.58,561.6,1307.85,561.76z"/>
			</g>
			<g>
				<path class="st1" d="M1288.69,526.03c-1.16,1.28-1.17,1.45-0.11,2.82c-1.28-1.16-1.45-1.17-2.82-0.11
					c1.16-1.28,1.17-1.45,0.11-2.82C1287.15,527.08,1287.33,527.09,1288.69,526.03z"/>
			</g>
			<g>
				<path class="st1" d="M1249,572.13c-0.43,1.07-0.39,1.18,0.59,1.78c-1.07-0.43-1.18-0.39-1.78,0.59
					c0.43-1.07,0.39-1.18-0.59-1.78C1248.28,573.14,1248.39,573.1,1249,572.13z"/>
			</g>
			<g>
				<path class="st1" d="M1239.08,541.96c-1.23-0.45-1.35-0.4-2,0.73c0.45-1.23,0.4-1.35-0.73-2c1.23,0.45,1.35,0.4,2-0.73
					C1237.9,541.19,1237.94,541.31,1239.08,541.96z"/>
			</g>
			<g>
				<path class="st1" d="M1223.39,558.26c-0.28,0.93-0.24,1.02,0.63,1.46c-0.93-0.28-1.02-0.24-1.46,0.63
					c0.28-0.93,0.24-1.02-0.63-1.46C1222.87,559.17,1222.96,559.13,1223.39,558.26z"/>
			</g>
			<g>
				<path class="st1" d="M1195.99,501.92c-1.08,0.12-1.16,0.2-1.22,1.28c-0.12-1.08-0.2-1.16-1.28-1.22
					c1.08-0.12,1.16-0.2,1.22-1.28C1194.83,501.78,1194.91,501.85,1195.99,501.92z"/>
			</g>
			<g>
				<path class="st1" d="M1145.19,490.45c-0.14-1.05-0.21-1.13-1.28-1.17c1.05-0.14,1.13-0.21,1.17-1.28
					c0.14,1.05,0.21,1.13,1.28,1.17C1145.31,489.31,1145.24,489.38,1145.19,490.45z"/>
			</g>
			<g>
				<path class="st1" d="M1137.69,539.01c0.86-1.01,0.87-1.14,0.02-2.17c1.01,0.86,1.14,0.87,2.17,0.02
					c-0.86,1.01-0.87,1.14-0.02,2.17C1138.85,538.17,1138.72,538.17,1137.69,539.01z"/>
			</g>
			<g>
				<path class="st1" d="M1112.76,515.3c0.89,0.67,1,0.67,1.81-0.09c-0.67,0.89-0.67,1,0.09,1.81c-0.89-0.67-1-0.67-1.81,0.09
					C1113.52,516.23,1113.52,516.12,1112.76,515.3z"/>
			</g>
			<g>
				<path class="st1" d="M1081.79,574.04c-0.05,1.48,0.04,1.6,1.49,1.91c-1.48-0.05-1.6,0.04-1.91,1.49
					c0.05-1.48-0.04-1.6-1.49-1.91C1081.36,575.58,1081.48,575.49,1081.79,574.04z"/>
			</g>
			<g>
				<path class="st1" d="M1055.1,525.31c-1.29,0.56-1.35,0.69-1.02,2.05c-0.56-1.29-0.69-1.35-2.05-1.02
					c1.29-0.56,1.35-0.69,1.02-2.05C1053.61,525.58,1053.73,525.64,1055.1,525.31z"/>
			</g>
			<g>
				<path class="st1" d="M1032.28,546.49c-0.63,0.44-0.65,0.52-0.32,1.21c-0.44-0.63-0.52-0.65-1.21-0.32
					c0.63-0.44,0.65-0.52,0.32-1.21C1031.5,546.8,1031.58,546.82,1032.28,546.49z"/>
			</g>
			<g>
				<path class="st1" d="M1021.64,563.62c-1.2-0.67-1.33-0.64-2.2,0.42c0.67-1.2,0.64-1.33-0.42-2.2c1.2,0.67,1.33,0.64,2.2-0.42
					C1020.55,562.62,1020.58,562.76,1021.64,563.62z"/>
			</g>
			<g>
				<path class="st1" d="M1002.46,551.47c-0.64,1.13-0.62,1.25,0.38,2.08c-1.13-0.64-1.25-0.62-2.08,0.38
					c0.64-1.13,0.62-1.25-0.38-2.08C1001.51,552.49,1001.64,552.47,1002.46,551.47z"/>
			</g>
			<g>
				<path class="st1" d="M982.79,512.9c0.82,0.4,0.91,0.37,1.44-0.37c-0.4,0.82-0.37,0.91,0.37,1.44c-0.82-0.4-0.91-0.37-1.44,0.37
					C983.56,513.52,983.54,513.43,982.79,512.9z"/>
			</g>
			<g>
				<path class="st1" d="M971.18,513.96c-0.55,0.52-0.56,0.6-0.14,1.24c-0.52-0.55-0.6-0.56-1.24-0.14c0.55-0.52,0.56-0.6,0.14-1.24
					C970.47,514.37,970.54,514.38,971.18,513.96z"/>
			</g>
			<g>
				<path class="st1" d="M917.17,537.06c0.81,1.02,0.94,1.05,2.09,0.43c-1.02,0.81-1.05,0.94-0.43,2.09
					c-0.81-1.02-0.94-1.05-2.09-0.43C917.76,538.33,917.79,538.21,917.17,537.06z"/>
			</g>
			<g>
				<path class="st1" d="M873.74,590.53c-0.84-0.97-0.96-0.99-2.07-0.34c0.97-0.84,0.99-0.96,0.34-2.07
					c0.84,0.97,0.96,0.99,2.07,0.34C873.11,589.3,873.09,589.43,873.74,590.53z"/>
			</g>
			<g>
				<path class="st1" d="M863.65,577.98c1.41,0.3,1.53,0.23,2.07-1.1c-0.3,1.41-0.23,1.53,1.1,2.07c-1.41-0.3-1.53-0.23-2.07,1.1
					C865.05,578.65,864.98,578.52,863.65,577.98z"/>
			</g>
			<g>
				<path class="st1" d="M844.43,598c-1.65-0.36-1.8-0.28-2.44,1.28c0.36-1.65,0.28-1.8-1.28-2.44c1.65,0.36,1.8,0.28,2.44-1.28
					C842.79,597.21,842.86,597.36,844.43,598z"/>
			</g>
			<g>
				<path class="st1" d="M824.1,521.66c0.94-0.12,1-0.19,1.05-1.13c0.12,0.94,0.19,1,1.13,1.05c-0.94,0.12-1,0.19-1.05,1.13
					C825.11,521.77,825.04,521.71,824.1,521.66z"/>
			</g>
			<g>
				<path class="st1" d="M771.22,505.22c0.37-1.24,0.32-1.36-0.84-1.93c1.24,0.37,1.36,0.32,1.93-0.84
					c-0.37,1.24-0.32,1.36,0.84,1.93C771.92,504.02,771.8,504.07,771.22,505.22z"/>
			</g>
			<g>
				<path class="st1" d="M743.63,498.66c-0.97,1.01-0.98,1.15-0.15,2.28c-1.01-0.97-1.15-0.98-2.28-0.15
					c0.97-1.01,0.98-1.15,0.15-2.28C742.37,499.48,742.51,499.48,743.63,498.66z"/>
			</g>
			<g>
				<path class="st1" d="M730.83,558.21c0.57,0.89,0.67,0.93,1.65,0.52c-0.89,0.57-0.93,0.67-0.52,1.65
					c-0.57-0.89-0.67-0.93-1.65-0.52C731.21,559.29,731.24,559.19,730.83,558.21z"/>
			</g>
			<g>
				<path class="st1" d="M713.66,550.82c-0.18-0.75-0.24-0.8-1.01-0.75c0.75-0.18,0.8-0.24,0.75-1.01c0.18,0.75,0.24,0.8,1.01,0.75
					C713.66,549.99,713.61,550.05,713.66,550.82z"/>
			</g>
			<g>
				<path class="st1" d="M683.48,475.25c-0.44,0.65-0.43,0.72,0.13,1.27c-0.65-0.44-0.72-0.43-1.27,0.13
					c0.44-0.65,0.43-0.72-0.13-1.27C682.85,475.82,682.93,475.81,683.48,475.25z"/>
			</g>
			<g>
				<path class="st1" d="M639.42,547.66c-0.91-0.86-1.03-0.87-2.03-0.12c0.86-0.91,0.87-1.03,0.12-2.03
					c0.91,0.86,1.03,0.87,2.03,0.12C638.68,546.53,638.68,546.65,639.42,547.66z"/>
			</g>
			<g>
				<path class="st1" d="M603.57,575.32c-1.16,0.38-1.22,0.48-1.05,1.69c-0.38-1.16-0.48-1.22-1.69-1.05
					c1.16-0.38,1.22-0.48,1.05-1.69C602.26,575.43,602.36,575.5,603.57,575.32z"/>
			</g>
			<g>
				<path class="st1" d="M587.73,467.37c-0.79-0.18-0.86-0.14-1.17,0.61c0.18-0.79,0.14-0.86-0.61-1.17
					c0.79,0.18,0.86,0.14,1.17-0.61C586.95,466.99,586.98,467.06,587.73,467.37z"/>
			</g>
			<g>
				<path class="st1" d="M555.56,478.71c-0.63,0.93-0.62,1.05,0.19,1.83c-0.93-0.63-1.05-0.62-1.83,0.19
					c0.63-0.93,0.62-1.05-0.19-1.83C554.66,479.53,554.77,479.52,555.56,478.71z"/>
			</g>
			<g>
				<path class="st1" d="M524.37,521.67c-0.29-1.46-0.41-1.55-1.89-1.51c1.46-0.29,1.55-0.41,1.51-1.89
					c0.29,1.46,0.41,1.55,1.89,1.51C524.43,520.07,524.34,520.19,524.37,521.67z"/>
			</g>
			<g>
				<path class="st1" d="M487.18,551.33c0.85,0.37,0.94,0.34,1.45-0.43c-0.37,0.85-0.34,0.94,0.43,1.45
					c-0.85-0.37-0.94-0.34-1.45,0.43C487.98,551.93,487.96,551.84,487.18,551.33z"/>
			</g>
			<g>
				<path class="st1" d="M451.44,538c0.56,1.59,0.71,1.67,2.37,1.4c-1.59,0.56-1.67,0.71-1.4,2.37c-0.56-1.59-0.71-1.67-2.37-1.4
					C451.64,539.81,451.72,539.67,451.44,538z"/>
			</g>
			<g>
				<path class="st1" d="M439.05,556.27c1.53-0.56,1.61-0.7,1.33-2.31c0.56,1.53,0.7,1.61,2.31,1.33c-1.53,0.56-1.61,0.7-1.33,2.31
					C440.8,556.06,440.66,555.98,439.05,556.27z"/>
			</g>
			<g>
				<path class="st1" d="M437.41,517.22c0.29,1.21,0.39,1.28,1.63,1.21c-1.21,0.29-1.28,0.39-1.21,1.63
					c-0.29-1.21-0.39-1.28-1.63-1.21C437.41,518.56,437.49,518.46,437.41,517.22z"/>
			</g>
			<g>
				<path class="st1" d="M394.04,466.7c1.33-0.9,1.37-1.06,0.71-2.52c0.9,1.33,1.06,1.37,2.52,0.71c-1.33,0.9-1.37,1.06-0.71,2.52
					C395.66,466.08,395.5,466.04,394.04,466.7z"/>
			</g>
			<g>
				<path class="st1" d="M341.82,543.54c0.39,1.18,0.49,1.25,1.72,1.07c-1.18,0.39-1.25,0.49-1.07,1.72
					c-0.39-1.18-0.49-1.25-1.72-1.07C341.93,544.88,342,544.77,341.82,543.54z"/>
			</g>
			<g>
				<path class="st1" d="M335.79,489.61c0.28,1.25,0.39,1.33,1.67,1.27c-1.25,0.28-1.33,0.39-1.27,1.67
					c-0.28-1.25-0.39-1.33-1.67-1.27C335.77,491,335.85,490.9,335.79,489.61z"/>
			</g>
			<g>
				<path class="st1" d="M289.71,473.77c0.5,0.69,0.58,0.71,1.35,0.34c-0.69,0.5-0.71,0.58-0.34,1.35c-0.5-0.69-0.58-0.71-1.35-0.34
					C290.06,474.62,290.08,474.54,289.71,473.77z"/>
			</g>
			<g>
				<path class="st1" d="M278.37,471.01c-0.42-0.86-0.51-0.9-1.42-0.63c0.86-0.42,0.9-0.51,0.63-1.42c0.42,0.86,0.51,0.9,1.42,0.63
					C278.14,470.01,278.1,470.09,278.37,471.01z"/>
			</g>
			<g>
				<path class="st1" d="M236.95,517.46c-1.27,0.01-1.37,0.09-1.58,1.35c-0.01-1.27-0.09-1.37-1.35-1.58
					c1.27-0.01,1.37-0.09,1.58-1.35C235.61,517.15,235.69,517.25,236.95,517.46z"/>
			</g>
			<g>
				<path class="st1" d="M227.77,461.1c-1-0.55-1.11-0.52-1.83,0.37c0.55-1,0.52-1.11-0.37-1.83c1,0.55,1.11,0.52,1.83-0.37
					C226.85,460.28,226.88,460.39,227.77,461.1z"/>
			</g>
			<g>
				<path class="st1" d="M199.58,501.85c-0.65,0.91-0.64,1.02,0.14,1.81c-0.91-0.65-1.02-0.64-1.81,0.14
					c0.65-0.91,0.64-1.02-0.14-1.81C198.68,502.64,198.79,502.63,199.58,501.85z"/>
			</g>
			<g>
				<path class="st1" d="M175.43,435.51c-0.28-0.72-0.35-0.76-1.1-0.6c0.72-0.28,0.76-0.35,0.6-1.1c0.28,0.72,0.35,0.76,1.1,0.6
					C175.32,434.68,175.28,434.75,175.43,435.51z"/>
			</g>
			<g>
				<path class="st1" d="M133.59,519.06c-0.43-1.28-0.55-1.35-1.88-1.14c1.28-0.43,1.35-0.55,1.14-1.88
					c0.43,1.28,0.55,1.35,1.88,1.14C133.46,517.61,133.39,517.73,133.59,519.06z"/>
			</g>
			<g>
				<path class="st1" d="M104.65,429.18c0.43,1.12,0.53,1.18,1.71,0.95c-1.12,0.43-1.18,0.53-0.95,1.71
					c-0.43-1.12-0.53-1.18-1.71-0.95C104.82,430.46,104.88,430.36,104.65,429.18z"/>
			</g>
			<g>
				<path class="st1" d="M59.86,434.75c0.6-0.57,0.61-0.65,0.15-1.34c0.57,0.6,0.65,0.61,1.34,0.15c-0.6,0.57-0.61,0.65-0.15,1.34
					C60.63,434.3,60.54,434.29,59.86,434.75z"/>
			</g>
			<g>
				<path class="st1" d="M17.38,466.77c0.67-1.14,0.65-1.27-0.35-2.13c1.14,0.67,1.27,0.65,2.13-0.35
					c-0.67,1.14-0.65,1.27,0.35,2.13C18.37,465.75,18.24,465.77,17.38,466.77z"/>
			</g>
		</g>
	</g>
	<g>
		<g>
			<g>
				<path class="st1" d="M79.36,707.96c-0.42-1.13-0.53-1.19-1.71-0.97c1.13-0.42,1.19-0.53,0.97-1.71
					c0.42,1.13,0.53,1.19,1.71,0.97C79.21,706.67,79.15,706.77,79.36,707.96z"/>
			</g>
			<g>
				<path class="st1" d="M54.65,667.93c0.14-1.6,0.05-1.73-1.51-2.14c1.6,0.14,1.73,0.05,2.14-1.51c-0.14,1.6-0.05,1.73,1.51,2.14
					C55.19,666.28,55.06,666.37,54.65,667.93z"/>
			</g>
			<g>
				<path class="st1" d="M36.29,627.37c-1.14-0.39-1.25-0.34-1.83,0.71c0.39-1.14,0.34-1.25-0.71-1.83
					c1.14,0.39,1.25,0.34,1.83-0.71C35.19,626.68,35.24,626.79,36.29,627.37z"/>
			</g>
			<g>
				<path class="st1" d="M82.82,602.32c-0.82-0.13-0.89-0.09-1.16,0.7c0.13-0.82,0.09-0.89-0.7-1.16c0.82,0.13,0.89,0.09,1.16-0.7
					C81.99,601.98,82.04,602.05,82.82,602.32z"/>
			</g>
			<g>
				<path class="st1" d="M47.55,586.98c1.13,0.48,1.25,0.45,1.92-0.58c-0.48,1.13-0.45,1.25,0.58,1.92
					c-1.13-0.48-1.25-0.45-1.92,0.58C48.62,587.77,48.59,587.65,47.55,586.98z"/>
			</g>
			<g>
				<path class="st1" d="M55.62,622.65c0.82,1.37,0.97,1.43,2.47,0.86c-1.37,0.82-1.43,0.97-0.86,2.47
					c-0.82-1.37-0.97-1.43-2.47-0.86C56.13,624.3,56.19,624.15,55.62,622.65z"/>
			</g>
			<g>
				<path class="st1" d="M115.52,560.19c0.3-0.65,0.28-0.72-0.31-1.13c0.65,0.3,0.72,0.28,1.13-0.31c-0.3,0.65-0.28,0.72,0.31,1.13
					C116,559.58,115.93,559.6,115.52,560.19z"/>
			</g>
			<g>
				<path class="st1" d="M159.06,585.9c0.06,1.19,0.14,1.28,1.33,1.42c-1.19,0.06-1.28,0.14-1.43,1.33
					c-0.06-1.19-0.14-1.28-1.33-1.43C158.83,587.17,158.92,587.09,159.06,585.9z"/>
			</g>
			<g>
				<path class="st1" d="M166.88,639.99c0.09,0.72,0.14,0.77,0.87,0.81c-0.72,0.09-0.77,0.14-0.81,0.87
					c-0.09-0.72-0.14-0.77-0.87-0.81C166.79,640.77,166.84,640.72,166.88,639.99z"/>
			</g>
			<g>
				<path class="st1" d="M216.38,616.54c0.17,1.04,0.24,1.11,1.3,1.12c-1.04,0.17-1.11,0.24-1.12,1.3c-0.17-1.04-0.24-1.11-1.3-1.12
					C216.29,617.67,216.36,617.59,216.38,616.54z"/>
			</g>
			<g>
				<path class="st1" d="M231.43,680.11c0.11,0.7,0.17,0.74,0.87,0.75c-0.7,0.11-0.74,0.17-0.75,0.87c-0.11-0.7-0.17-0.74-0.87-0.75
					C231.38,680.87,231.42,680.82,231.43,680.11z"/>
			</g>
			<g>
				<path class="st1" d="M288.97,653.21c-0.02,0.96,0.04,1.04,0.98,1.22c-0.96-0.02-1.04,0.04-1.22,0.98
					c0.02-0.96-0.04-1.04-0.98-1.22C288.71,654.21,288.79,654.15,288.97,653.21z"/>
			</g>
			<g>
				<path class="st1" d="M325.79,719.48c-0.52,1.42-0.47,1.56,0.83,2.32c-1.42-0.52-1.56-0.47-2.32,0.83
					c0.52-1.42,0.47-1.56-0.83-2.32C324.88,720.83,325.03,720.78,325.79,719.48z"/>
			</g>
			<g>
				<path class="st1" d="M363.46,611.65c-1.11-0.46-1.22-0.42-1.86,0.59c0.46-1.11,0.42-1.22-0.59-1.86
					c1.11,0.46,1.22,0.42,1.86-0.59C362.41,610.9,362.45,611.01,363.46,611.65z"/>
			</g>
			<g>
				<path class="st1" d="M397.49,663.05c-1.44,0.3-1.53,0.41-1.49,1.88c-0.3-1.44-0.41-1.53-1.88-1.49c1.44-0.3,1.53-0.41,1.49-1.88
					C395.9,663,396.02,663.09,397.49,663.05z"/>
			</g>
			<g>
				<path class="st1" d="M433.35,732.07c-0.6-0.61-0.69-0.62-1.4-0.13c0.61-0.6,0.62-0.69,0.13-1.4c0.6,0.61,0.69,0.62,1.4,0.13
					C432.87,731.28,432.87,731.36,433.35,732.07z"/>
			</g>
			<g>
				<path class="st1" d="M493.86,632.53c-1.54,0.36-1.64,0.48-1.55,2.06c-0.36-1.54-0.48-1.64-2.06-1.55
					c1.54-0.36,1.64-0.48,1.55-2.06C492.15,632.52,492.28,632.61,493.86,632.53z"/>
			</g>
			<g>
				<path class="st1" d="M505.97,638.03c-1.64-0.12-1.77-0.03-2.18,1.57c0.12-1.64,0.03-1.77-1.57-2.18
					c1.64,0.12,1.77,0.03,2.18-1.57C504.28,637.49,504.37,637.63,505.97,638.03z"/>
			</g>
			<g>
				<path class="st1" d="M521.69,698.54c-0.91,0.25-0.96,0.33-0.87,1.26c-0.25-0.91-0.33-0.96-1.26-0.87
					c0.91-0.25,0.96-0.33,0.87-1.26C520.68,698.58,520.76,698.63,521.69,698.54z"/>
			</g>
			<g>
				<path class="st1" d="M540.31,683.78c0.62-0.79,0.62-0.88-0.05-1.63c0.79,0.62,0.88,0.62,1.63-0.05
					c-0.62,0.79-0.62,0.88,0.05,1.63C541.16,683.11,541.06,683.11,540.31,683.78z"/>
			</g>
			<g>
				<path class="st1" d="M551.81,720.62c0.46,0.89,0.55,0.93,1.51,0.63c-0.89,0.46-0.93,0.55-0.63,1.51
					c-0.46-0.89-0.55-0.93-1.51-0.63C552.07,721.67,552.11,721.58,551.81,720.62z"/>
			</g>
			<g>
				<path class="st1" d="M576.09,633.88c0.77,0.1,0.84,0.06,1.07-0.68c-0.1,0.77-0.06,0.84,0.68,1.07c-0.77-0.1-0.84-0.06-1.07,0.68
					C576.88,634.18,576.84,634.11,576.09,633.88z"/>
			</g>
			<g>
				<path class="st1" d="M586.8,646.59c0.32,1.05,0.41,1.11,1.5,0.98c-1.05,0.32-1.11,0.41-0.98,1.5c-0.32-1.05-0.41-1.11-1.5-0.98
					C586.88,647.77,586.94,647.68,586.8,646.59z"/>
			</g>
			<g>
				<path class="st1" d="M609.07,627.9c-1.15,0.14-1.23,0.22-1.29,1.37c-0.14-1.15-0.22-1.23-1.37-1.29
					c1.15-0.14,1.23-0.22,1.29-1.37C607.83,627.76,607.92,627.84,609.07,627.9z"/>
			</g>
			<g>
				<path class="st1" d="M658.77,648.71c0.53,0.5,0.61,0.51,1.19,0.07c-0.5,0.53-0.51,0.61-0.07,1.19c-0.53-0.5-0.61-0.51-1.19-0.07
					C659.21,649.37,659.21,649.3,658.77,648.71z"/>
			</g>
			<g>
				<path class="st1" d="M698.6,641.16c0.68-1.6,0.62-1.76-0.83-2.7c1.6,0.68,1.76,0.62,2.7-0.83c-0.68,1.6-0.62,1.76,0.83,2.7
					C699.71,639.66,699.54,639.71,698.6,641.16z"/>
			</g>
			<g>
				<path class="st1" d="M735.19,639.97c1.33-0.33,1.41-0.44,1.31-1.8c0.33,1.33,0.44,1.41,1.8,1.31c-1.33,0.33-1.41,0.44-1.31,1.8
					C736.66,639.95,736.55,639.87,735.19,639.97z"/>
			</g>
			<g>
				<path class="st1" d="M774.04,682.94c0.39,1.45,0.52,1.53,2.01,1.4c-1.45,0.39-1.53,0.52-1.4,2.01c-0.39-1.45-0.52-1.53-2.01-1.4
					C774.09,684.56,774.18,684.44,774.04,682.94z"/>
			</g>
			<g>
				<path class="st1" d="M794.69,655.06c0.64-0.27,0.68-0.33,0.52-1.01c0.27,0.64,0.33,0.68,1.01,0.52
					c-0.64,0.27-0.68,0.33-0.52,1.01C795.43,654.94,795.37,654.9,794.69,655.06z"/>
			</g>
			<g>
				<path class="st1" d="M809.44,654.52c-0.03-0.74-0.08-0.79-0.81-0.89c0.74-0.03,0.79-0.08,0.89-0.81
					c0.03,0.74,0.08,0.79,0.81,0.89C809.59,653.74,809.54,653.79,809.44,654.52z"/>
			</g>
			<g>
				<path class="st1" d="M838.76,651.35c-0.05-1.08-0.12-1.16-1.2-1.3c1.08-0.05,1.16-0.12,1.3-1.2c0.05,1.08,0.12,1.16,1.2,1.3
					C838.98,650.2,838.9,650.27,838.76,651.35z"/>
			</g>
			<g>
				<path class="st1" d="M866.23,737.88c-0.61-0.65-0.7-0.65-1.45-0.16c0.65-0.61,0.66-0.7,0.16-1.45c0.61,0.65,0.7,0.65,1.45,0.16
					C865.74,737.05,865.73,737.14,866.23,737.88z"/>
			</g>
			<g>
				<path class="st1" d="M916.42,661.07c-0.42-1.63-0.55-1.72-2.23-1.59c1.63-0.42,1.72-0.55,1.59-2.23
					c0.42,1.63,0.55,1.72,2.23,1.59C916.39,659.26,916.29,659.4,916.42,661.07z"/>
			</g>
			<g>
				<path class="st1" d="M959.58,647.21c-0.53-1.37-0.66-1.44-2.1-1.15c1.37-0.53,1.44-0.66,1.15-2.1c0.53,1.37,0.66,1.44,2.1,1.15
					C959.37,645.65,959.3,645.77,959.58,647.21z"/>
			</g>
			<g>
				<path class="st1" d="M969.93,714.3c1.63,0.39,1.78,0.31,2.44-1.22c-0.39,1.63-0.31,1.78,1.22,2.44
					c-1.63-0.39-1.78-0.31-2.44,1.22C971.54,715.12,971.47,714.97,969.93,714.3z"/>
			</g>
			<g>
				<path class="st1" d="M1012.96,699.41c0.74,0.77,0.84,0.78,1.73,0.19c-0.77,0.74-0.78,0.84-0.19,1.73
					c-0.74-0.77-0.84-0.78-1.73-0.19C1013.54,700.41,1013.56,700.3,1012.96,699.41z"/>
			</g>
			<g>
				<path class="st1" d="M1051.41,710.57c-0.94-0.62-1.05-0.61-1.82,0.21c0.62-0.94,0.61-1.05-0.21-1.82
					c0.94,0.62,1.05,0.61,1.82-0.21C1050.59,709.68,1050.6,709.79,1051.41,710.57z"/>
			</g>
			<g>
				<path class="st1" d="M1079.62,697.13c-1.11,0.01-1.19,0.08-1.38,1.18c-0.01-1.11-0.08-1.19-1.18-1.38
					c1.11-0.01,1.19-0.08,1.38-1.18C1078.45,696.87,1078.52,696.95,1079.62,697.13z"/>
			</g>
			<g>
				<path class="st1" d="M1109.51,612.43c-0.65-0.33-0.72-0.31-1.16,0.27c0.33-0.65,0.31-0.72-0.27-1.16
					c0.65,0.33,0.72,0.31,1.16-0.27C1108.91,611.92,1108.93,611.99,1109.51,612.43z"/>
			</g>
			<g>
				<path class="st1" d="M1127.83,667.11c0.38-1.26,0.33-1.38-0.85-1.97c1.26,0.38,1.38,0.33,1.97-0.85
					c-0.38,1.26-0.33,1.38,0.85,1.97C1128.54,665.89,1128.42,665.94,1127.83,667.11z"/>
			</g>
			<g>
				<path class="st1" d="M1163.67,633.08c-0.85,0.7-0.87,0.81-0.33,1.77c-0.7-0.85-0.81-0.87-1.77-0.33
					c0.85-0.7,0.87-0.81,0.33-1.77C1162.6,633.6,1162.71,633.62,1163.67,633.08z"/>
			</g>
			<g>
				<path class="st1" d="M1209.18,600.77c-1.05,0.22-1.11,0.31-1.07,1.38c-0.22-1.05-0.31-1.11-1.38-1.07
					c1.05-0.22,1.11-0.31,1.07-1.38C1208.03,600.74,1208.11,600.8,1209.18,600.77z"/>
			</g>
			<g>
				<path class="st1" d="M1230.32,719.46c1.53,0.4,1.68,0.33,2.34-1.11c-0.4,1.53-0.33,1.68,1.11,2.34
					c-1.53-0.4-1.68-0.33-2.34,1.11C1231.83,720.27,1231.76,720.12,1230.32,719.46z"/>
			</g>
			<g>
				<path class="st1" d="M1235.32,602.95c-0.66-0.38-0.74-0.36-1.23,0.22c0.38-0.66,0.36-0.74-0.22-1.23
					c0.66,0.38,0.74,0.36,1.23-0.22C1234.72,602.38,1234.73,602.46,1235.32,602.95z"/>
			</g>
			<g>
				<path class="st1" d="M1253.32,669.61c0.46,1.45,0.58,1.53,2.08,1.33c-1.45,0.46-1.53,0.58-1.33,2.08
					c-0.46-1.45-0.58-1.53-2.08-1.33C1253.44,671.23,1253.52,671.11,1253.32,669.61z"/>
			</g>
			<g>
				<path class="st1" d="M1298.56,694.6c-1.01,0.77-1.04,0.9-0.46,2.03c-0.77-1.01-0.9-1.04-2.03-0.46c1.01-0.77,1.04-0.9,0.46-2.03
					C1297.31,695.16,1297.43,695.19,1298.56,694.6z"/>
			</g>
			<g>
				<path class="st1" d="M1325.24,672.54c1.68,0.04,1.81-0.07,2.14-1.71c-0.04,1.68,0.07,1.81,1.71,2.14
					c-1.68-0.04-1.81,0.07-2.14,1.71C1327,673,1326.89,672.87,1325.24,672.54z"/>
			</g>
			<g>
				<path class="st1" d="M1372.77,644.32c-0.84-1.09-0.97-1.12-2.2-0.49c1.09-0.84,1.12-0.97,0.49-2.2c0.84,1.09,0.97,1.12,2.2,0.49
					C1372.16,642.96,1372.13,643.1,1372.77,644.32z"/>
			</g>
		</g>
	</g>
</g>
</svg>
