<?xml version="1.0" encoding="utf-8"?>
<!-- Generator: Adobe Illustrator 27.3.1, SVG Export Plug-In . SVG Version: 6.00 Build 0)  -->
<svg version="1.1" id="Layer_1" xmlns="http://www.w3.org/2000/svg" xmlns:xlink="http://www.w3.org/1999/xlink" x="0px" y="0px"
	 viewBox="0 0 1366 768" style="enable-background:new 0 0 1366 768;" xml:space="preserve">
<style type="text/css">
	.st0{fill:url(#SVGID_1_);}
	.st1{fill:#FFFFFF;}
	.st2{opacity:0.8;fill:url(#SVGID_00000021081325415613388460000009132740470959724719_);}
	.st3{opacity:0.8;fill:url(#SVGID_00000044896959099507364130000009996268569408441018_);}
	.st4{opacity:0.8;fill:url(#SVGID_00000158710735359490363380000010031502312929272743_);}
	.st5{opacity:0.8;fill:url(#SVGID_00000004507847702827502570000001956451227435119788_);}
	.st6{opacity:0.8;fill:url(#SVGID_00000163790562224763868430000007578947593244949144_);}
	.st7{fill:#B8D0EB;}
	.st8{opacity:0.4;fill:#90BFEB;enable-background:new    ;}
	.st9{fill:#7209B7;}
	.st10{fill:#2B3990;}
	.st11{opacity:0.3;}
	.st12{fill:#F1F2F2;}
	.st13{fill:none;stroke:#FFFFFF;stroke-linecap:round;stroke-miterlimit:10;}
	.st14{opacity:0.2;fill:#231F20;enable-background:new    ;}
</style>
<linearGradient id="SVGID_1_" gradientUnits="userSpaceOnUse" x1="-58.3389" y1="802.2514" x2="1624.3278" y2="-147.0819">
	<stop  offset="0" style="stop-color:#41205E"/>
	<stop  offset="0.0636" style="stop-color:#391C53"/>
	<stop  offset="0.201" style="stop-color:#2C1640"/>
	<stop  offset="0.3418" style="stop-color:#241234"/>
	<stop  offset="0.4899" style="stop-color:#211130"/>
	<stop  offset="1" style="stop-color:#100817"/>
</linearGradient>
<rect class="st0" width="1366" height="768"/>
<g>
	<g>
		<g>
			<g>
				<path class="st1" d="M1333.29,42.72c-0.96,0.86-0.98,0.98-0.31,2.08c-0.86-0.96-0.98-0.98-2.08-0.31
					c0.96-0.86,0.98-0.98,0.31-2.08C1332.06,43.38,1332.19,43.39,1333.29,42.72z"/>
			</g>
			<g>
				<path class="st1" d="M1288.18,77.02c-0.7,0.66-0.71,0.75-0.19,1.56c-0.66-0.7-0.75-0.71-1.56-0.19c0.7-0.66,0.71-0.75,0.19-1.56
					C1287.28,77.53,1287.37,77.54,1288.18,77.02z"/>
			</g>
			<g>
				<path class="st1" d="M1238.59,96.64c-0.37,1.45-0.3,1.59,1.06,2.2c-1.45-0.37-1.59-0.3-2.2,1.06c0.37-1.45,0.3-1.59-1.06-2.2
					C1237.84,98.07,1237.98,98,1238.59,96.64z"/>
			</g>
			<g>
				<path class="st1" d="M1197.89,51.12c0.49-0.55,0.5-0.62,0.04-1.2c0.55,0.49,0.62,0.5,1.2,0.04c-0.49,0.55-0.5,0.62-0.04,1.2
					C1198.55,50.67,1198.47,50.67,1197.89,51.12z"/>
			</g>
			<g>
				<path class="st1" d="M1169.59,31.54c-0.64,0.81-0.64,0.92,0.05,1.69c-0.81-0.64-0.92-0.64-1.69,0.05
					c0.64-0.81,0.64-0.92-0.05-1.69C1168.72,32.23,1168.82,32.23,1169.59,31.54z"/>
			</g>
			<g>
				<path class="st1" d="M1127.75,98.84c0.34-1.48,0.28-1.62-1.13-2.21c1.48,0.34,1.62,0.28,2.21-1.13
					c-0.34,1.48-0.28,1.62,1.13,2.21C1128.48,97.37,1128.34,97.44,1127.75,98.84z"/>
			</g>
			<g>
				<path class="st1" d="M1083.86,69.78c-1.52-0.19-1.65-0.1-2.1,1.36c0.19-1.52,0.1-1.65-1.36-2.1c1.52,0.19,1.65,0.1,2.1-1.36
					C1082.31,69.2,1082.39,69.33,1083.86,69.78z"/>
			</g>
			<g>
				<path class="st1" d="M1042.21,87.48c-0.75,0.43-0.77,0.51-0.48,1.32c-0.43-0.75-0.51-0.77-1.32-0.48
					c0.75-0.43,0.77-0.51,0.48-1.32C1041.32,87.74,1041.4,87.77,1042.21,87.48z"/>
			</g>
			<g>
				<path class="st1" d="M1011.08,56.24c1.49,0.19,1.61,0.11,2.06-1.33c-0.19,1.49-0.11,1.61,1.33,2.06
					c-1.49-0.19-1.61-0.11-2.06,1.33C1012.6,56.81,1012.52,56.68,1011.08,56.24z"/>
			</g>
			<g>
				<path class="st1" d="M983.14,92.06c0.6,1.31,0.73,1.37,2.12,1.01c-1.31,0.6-1.37,0.73-1.01,2.12c-0.6-1.31-0.73-1.37-2.12-1.01
					C983.44,93.58,983.51,93.45,983.14,92.06z"/>
			</g>
			<g>
				<path class="st1" d="M973.27,39.05c-0.51-1-0.61-1.04-1.68-0.71c1-0.51,1.04-0.61,0.71-1.68c0.51,1,0.61,1.04,1.68,0.71
					C972.98,37.88,972.94,37.98,973.27,39.05z"/>
			</g>
			<g>
				<path class="st1" d="M932.12,104.47c1.24,0.48,1.36,0.43,2.04-0.7c-0.48,1.24-0.43,1.36,0.7,2.04c-1.24-0.48-1.36-0.43-2.04,0.7
					C933.3,105.28,933.26,105.15,932.12,104.47z"/>
			</g>
			<g>
				<path class="st1" d="M900.1,141.78c0.6,1.5,0.74,1.58,2.32,1.25c-1.5,0.6-1.58,0.74-1.25,2.32c-0.6-1.5-0.74-1.58-2.32-1.25
					C900.35,143.5,900.43,143.36,900.1,141.78z"/>
			</g>
			<g>
				<path class="st1" d="M868.5,150.86c-0.74-1.23-0.87-1.28-2.22-0.77c1.23-0.74,1.28-0.87,0.77-2.22
					c0.74,1.23,0.87,1.28,2.22,0.77C868.04,149.38,867.99,149.52,868.5,150.86z"/>
			</g>
			<g>
				<path class="st1" d="M835.84,153.02c-0.98-0.74-1.1-0.73-1.99,0.11c0.74-0.98,0.73-1.1-0.11-1.99c0.98,0.74,1.1,0.73,1.99-0.11
					C835,152.01,835.01,152.13,835.84,153.02z"/>
			</g>
			<g>
				<path class="st1" d="M821.26,138.87c-0.94-0.43-1.04-0.4-1.62,0.45c0.43-0.94,0.4-1.04-0.45-1.62c0.94,0.43,1.04,0.4,1.62-0.45
					C820.38,138.19,820.4,138.29,821.26,138.87z"/>
			</g>
			<g>
				<path class="st1" d="M801.84,74.66c-0.77,0.31-0.81,0.39-0.63,1.2c-0.31-0.77-0.39-0.81-1.2-0.63c0.77-0.31,0.81-0.39,0.63-1.2
					C800.95,74.8,801.03,74.84,801.84,74.66z"/>
			</g>
			<g>
				<path class="st1" d="M777.74,39.79c0.18,1.22,0.27,1.3,1.51,1.34c-1.22,0.18-1.3,0.27-1.34,1.51c-0.18-1.22-0.27-1.3-1.51-1.34
					C777.63,41.12,777.71,41.02,777.74,39.79z"/>
			</g>
			<g>
				<path class="st1" d="M728.42,38.22c0,1.11,0.07,1.2,1.17,1.39c-1.11,0-1.2,0.07-1.39,1.17c0-1.11-0.07-1.2-1.17-1.39
					C728.14,39.39,728.23,39.31,728.42,38.22z"/>
			</g>
			<g>
				<path class="st1" d="M681.27,146.79c-0.92-0.53-1.03-0.51-1.71,0.31c0.53-0.92,0.51-1.03-0.31-1.71
					c0.92,0.53,1.03,0.51,1.71-0.31C680.43,146.01,680.45,146.11,681.27,146.79z"/>
			</g>
			<g>
				<path class="st1" d="M634.74,127.86c-0.24,0.92-0.2,1.01,0.66,1.4c-0.92-0.24-1.01-0.2-1.4,0.66c0.24-0.92,0.2-1.01-0.66-1.4
					C634.25,128.77,634.34,128.73,634.74,127.86z"/>
			</g>
			<g>
				<path class="st1" d="M594.81,45.98c1.32,1.08,1.49,1.08,2.79-0.04c-1.08,1.32-1.08,1.49,0.04,2.79
					c-1.32-1.08-1.49-1.08-2.79,0.04C595.92,47.45,595.92,47.28,594.81,45.98z"/>
			</g>
			<g>
				<path class="st1" d="M549.54,120.06c-0.39-1.27-0.5-1.34-1.81-1.18c1.27-0.39,1.34-0.5,1.18-1.81c0.39,1.27,0.5,1.34,1.81,1.18
					C549.45,118.63,549.38,118.74,549.54,120.06z"/>
			</g>
			<g>
				<path class="st1" d="M508.71,135.89c0.93-0.36,0.97-0.45,0.78-1.42c0.36,0.93,0.45,0.97,1.42,0.78
					c-0.93,0.36-0.97,0.45-0.78,1.42C509.77,135.74,509.69,135.69,508.71,135.89z"/>
			</g>
			<g>
				<path class="st1" d="M474.04,52.84c-0.67,0.23-0.7,0.29-0.59,0.98c-0.23-0.67-0.29-0.7-0.98-0.59c0.67-0.23,0.7-0.29,0.59-0.98
					C473.29,52.91,473.35,52.95,474.04,52.84z"/>
			</g>
			<g>
				<path class="st1" d="M448.77,76.62c0.73-0.89,0.73-1-0.02-1.87c0.89,0.73,1,0.73,1.87-0.02c-0.73,0.89-0.73,1,0.02,1.87
					C449.75,75.87,449.64,75.87,448.77,76.62z"/>
			</g>
			<g>
				<path class="st1" d="M439.31,97.16c-0.37-1.07-0.46-1.13-1.58-0.96c1.07-0.37,1.13-0.46,0.96-1.58
					c0.37,1.07,0.46,1.13,1.58,0.96C439.19,95.95,439.13,96.04,439.31,97.16z"/>
			</g>
			<g>
				<path class="st1" d="M419.9,71.54c0.9-0.56,0.93-0.66,0.54-1.64c0.56,0.9,0.66,0.93,1.64,0.54c-0.9,0.56-0.93,0.66-0.54,1.64
					C420.98,71.18,420.88,71.15,419.9,71.54z"/>
			</g>
			<g>
				<path class="st1" d="M398.61,153.86c0.18,1.49,0.29,1.59,1.79,1.67c-1.49,0.18-1.59,0.29-1.67,1.79
					c-0.18-1.49-0.29-1.59-1.79-1.67C398.43,155.46,398.53,155.35,398.61,153.86z"/>
			</g>
			<g>
				<path class="st1" d="M387.82,128.28c-0.32-0.71-0.39-0.75-1.15-0.56c0.71-0.32,0.75-0.39,0.56-1.15
					c0.32,0.71,0.39,0.75,1.15,0.56C387.66,127.45,387.62,127.52,387.82,128.28z"/>
			</g>
			<g>
				<path class="st1" d="M378.62,55.69c0.03,1.73,0.14,1.86,1.85,2.14c-1.73,0.03-1.86,0.14-2.14,1.85
					c-0.03-1.73-0.14-1.86-1.85-2.14C378.22,57.52,378.35,57.4,378.62,55.69z"/>
			</g>
			<g>
				<path class="st1" d="M363.47,59.96c0.53,1.07,0.64,1.12,1.79,0.78c-1.07,0.53-1.12,0.64-0.78,1.79
					c-0.53-1.07-0.64-1.12-1.79-0.78C363.76,61.22,363.81,61.11,363.47,59.96z"/>
			</g>
			<g>
				<path class="st1" d="M320.31,131.28c-0.83-0.42-0.92-0.4-1.48,0.35c0.42-0.83,0.4-0.92-0.35-1.48c0.83,0.42,0.92,0.4,1.48-0.35
					C319.54,130.63,319.56,130.72,320.31,131.28z"/>
			</g>
			<g>
				<path class="st1" d="M272.75,95.95c0.57,1.5,0.71,1.58,2.29,1.28c-1.5,0.57-1.58,0.71-1.28,2.29c-0.57-1.5-0.71-1.58-2.29-1.28
					C272.97,97.67,273.05,97.53,272.75,95.95z"/>
			</g>
			<g>
				<path class="st1" d="M230.51,37.26c-0.64,1.44-0.59,1.59,0.71,2.46c-1.44-0.64-1.59-0.59-2.46,0.71
					c0.64-1.44,0.59-1.59-0.71-2.46C229.48,38.61,229.63,38.57,230.51,37.26z"/>
			</g>
			<g>
				<path class="st1" d="M193.35,43.19c-0.47-0.75-0.55-0.78-1.38-0.45c0.75-0.47,0.78-0.55,0.45-1.38
					c0.47,0.75,0.55,0.78,1.38,0.45C193.05,42.28,193.02,42.37,193.35,43.19z"/>
			</g>
			<g>
				<path class="st1" d="M163.82,161.8c-1.16-0.9-1.31-0.9-2.4,0.09c0.9-1.16,0.9-1.31-0.09-2.4c1.16,0.9,1.31,0.9,2.4-0.09
					C162.83,160.56,162.84,160.71,163.82,161.8z"/>
			</g>
			<g>
				<path class="st1" d="M132.51,120.65c-1.01-0.86-1.15-0.86-2.16-0.01c0.86-1.01,0.86-1.15,0.01-2.16
					c1.01,0.86,1.15,0.86,2.16,0.01C131.66,119.5,131.66,119.63,132.51,120.65z"/>
			</g>
			<g>
				<path class="st1" d="M88.41,126.88c1.19-0.17,1.27-0.26,1.31-1.46c0.17,1.19,0.26,1.27,1.46,1.31
					c-1.19,0.17-1.27,0.26-1.31,1.46C89.7,127,89.61,126.92,88.41,126.88z"/>
			</g>
			<g>
				<path class="st1" d="M64.04,37.91c1.47,0.63,1.62,0.58,2.49-0.75c-0.63,1.47-0.58,1.62,0.75,2.49
					c-1.47-0.63-1.62-0.58-2.49,0.75C65.43,38.93,65.38,38.78,64.04,37.91z"/>
			</g>
			<g>
				<path class="st1" d="M18.32,65.31c-0.37,0.62-0.36,0.69,0.19,1.16c-0.62-0.37-0.69-0.36-1.16,0.19
					c0.37-0.62,0.36-0.69-0.19-1.16C17.77,65.87,17.85,65.86,18.32,65.31z"/>
			</g>
			<g>
				<path class="st1" d="M-0.25,43.56c0.04-0.83-0.01-0.89-0.81-1.08c0.83,0.04,0.89-0.01,1.08-0.81c-0.04,0.83,0.01,0.89,0.81,1.08
					C0,42.71-0.07,42.76-0.25,43.56z"/>
			</g>
		</g>
	</g>
	<g>
		<g>
			<g>
				<path class="st1" d="M1383.09,184.84c0.82,0.13,0.9,0.09,1.17-0.7c-0.13,0.82-0.09,0.9,0.7,1.17c-0.82-0.13-0.9-0.09-1.17,0.7
					C1383.92,185.18,1383.88,185.11,1383.09,184.84z"/>
			</g>
			<g>
				<path class="st1" d="M1366.47,199.63c-0.89-1.29-1.04-1.34-2.46-0.69c1.29-0.89,1.34-1.04,0.69-2.46
					c0.89,1.29,1.04,1.34,2.46,0.69C1365.86,198.05,1365.82,198.2,1366.47,199.63z"/>
			</g>
			<g>
				<path class="st1" d="M1332.56,233.09c0.63,0.28,0.7,0.26,1.09-0.31c-0.28,0.63-0.26,0.7,0.31,1.09
					c-0.63-0.28-0.7-0.26-1.09,0.31C1333.16,233.54,1333.14,233.48,1332.56,233.09z"/>
			</g>
			<g>
				<path class="st1" d="M1288.62,252.33c-0.89,0.95-0.9,1.08-0.11,2.13c-0.95-0.89-1.08-0.9-2.13-0.11
					c0.89-0.95,0.9-1.08,0.11-2.13C1287.45,253.11,1287.58,253.12,1288.62,252.33z"/>
			</g>
			<g>
				<path class="st1" d="M1247.2,187.48c0.72-0.8,0.73-0.91,0.07-1.76c0.8,0.72,0.91,0.73,1.76,0.07c-0.72,0.8-0.73,0.91-0.07,1.76
					C1248.16,186.82,1248.05,186.82,1247.2,187.48z"/>
			</g>
			<g>
				<path class="st1" d="M1218.84,250.1c-0.58,1.38-0.54,1.52,0.72,2.33c-1.38-0.58-1.52-0.54-2.33,0.72
					c0.58-1.38,0.54-1.52-0.72-2.33C1217.89,251.4,1218.03,251.36,1218.84,250.1z"/>
			</g>
			<g>
				<path class="st1" d="M1207.78,210.46c1.23-1.05,1.26-1.21,0.44-2.6c1.05,1.23,1.21,1.26,2.6,0.44c-1.23,1.05-1.26,1.21-0.44,2.6
					C1209.33,209.67,1209.17,209.64,1207.78,210.46z"/>
			</g>
			<g>
				<path class="st1" d="M1170.23,280.74c0.34,0.81,0.42,0.85,1.28,0.65c-0.81,0.34-0.85,0.42-0.65,1.28
					c-0.34-0.81-0.42-0.85-1.28-0.65C1170.39,281.67,1170.43,281.59,1170.23,280.74z"/>
			</g>
			<g>
				<path class="st1" d="M1146.74,276.75c0.98-0.44,1.03-0.53,0.76-1.58c0.44,0.98,0.53,1.03,1.58,0.76
					c-0.98,0.44-1.03,0.53-0.76,1.58C1147.87,276.53,1147.78,276.49,1146.74,276.75z"/>
			</g>
			<g>
				<path class="st1" d="M1130.61,282.58c-1.14,0.65-1.19,0.77-0.75,2.01c-0.65-1.14-0.77-1.19-2.01-0.75
					c1.14-0.65,1.19-0.77,0.75-2.01C1129.25,282.98,1129.37,283.02,1130.61,282.58z"/>
			</g>
			<g>
				<path class="st1" d="M1093.01,205.24c-1.29-0.9-1.44-0.89-2.56,0.22c0.9-1.29,0.89-1.44-0.22-2.55c1.29,0.9,1.44,0.89,2.56-0.22
					C1091.88,203.97,1091.9,204.13,1093.01,205.24z"/>
			</g>
			<g>
				<path class="st1" d="M1065.84,226.65c-1.15,0.82-1.19,0.95-0.58,2.23c-0.82-1.15-0.95-1.19-2.23-0.58
					c1.15-0.82,1.19-0.95,0.58-2.23C1064.43,227.22,1064.57,227.26,1065.84,226.65z"/>
			</g>
			<g>
				<path class="st1" d="M1039.06,251.07c0.29-0.82,0.26-0.9-0.5-1.32c0.82,0.29,0.9,0.26,1.32-0.5c-0.29,0.82-0.26,0.9,0.5,1.32
					C1039.56,250.28,1039.48,250.31,1039.06,251.07z"/>
			</g>
			<g>
				<path class="st1" d="M1021.14,314.71c-0.65-0.9-0.75-0.92-1.75-0.44c0.9-0.65,0.92-0.75,0.44-1.75c0.65,0.9,0.75,0.92,1.75,0.44
					C1020.68,313.61,1020.66,313.71,1021.14,314.71z"/>
			</g>
			<g>
				<path class="st1" d="M976.06,310.48c1.62-0.39,1.71-0.52,1.61-2.18c0.39,1.62,0.52,1.71,2.18,1.61
					c-1.62,0.39-1.71,0.52-1.61,2.18C977.85,310.47,977.72,310.37,976.06,310.48z"/>
			</g>
			<g>
				<path class="st1" d="M963.73,301.17c1.55-0.32,1.65-0.45,1.6-2.03c0.32,1.55,0.45,1.65,2.03,1.6c-1.55,0.32-1.65,0.45-1.6,2.03
					C965.44,301.22,965.31,301.13,963.73,301.17z"/>
			</g>
			<g>
				<path class="st1" d="M916.24,192.94c-0.55-0.52-0.62-0.52-1.23-0.07c0.52-0.55,0.52-0.62,0.07-1.23
					c0.55,0.52,0.62,0.52,1.23,0.07C915.8,192.26,915.79,192.33,916.24,192.94z"/>
			</g>
			<g>
				<path class="st1" d="M875.7,296.05c0.31-0.89,0.28-0.98-0.55-1.44c0.89,0.31,0.98,0.28,1.44-0.55
					c-0.31,0.89-0.28,0.98,0.55,1.44C876.25,295.19,876.17,295.22,875.7,296.05z"/>
			</g>
			<g>
				<path class="st1" d="M829.81,254.95c0.23-1.65,0.14-1.79-1.45-2.3c1.65,0.23,1.79,0.14,2.3-1.45c-0.23,1.65-0.14,1.79,1.45,2.3
					C830.46,253.28,830.32,253.36,829.81,254.95z"/>
			</g>
			<g>
				<path class="st1" d="M817.03,286.03c-1.08-0.16-1.17-0.11-1.52,0.93c0.16-1.08,0.11-1.17-0.93-1.52
					c1.08,0.16,1.17,0.11,1.52-0.93C815.94,285.59,815.99,285.68,817.03,286.03z"/>
			</g>
			<g>
				<path class="st1" d="M792.15,283.34c1.55-0.71,1.62-0.86,1.19-2.5c0.71,1.55,0.86,1.62,2.5,1.19c-1.55,0.71-1.62,0.86-1.19,2.5
					C793.95,282.98,793.79,282.91,792.15,283.34z"/>
			</g>
			<g>
				<path class="st1" d="M774.46,301.29c-0.64,0.39-0.67,0.46-0.39,1.16c-0.39-0.64-0.46-0.67-1.16-0.39
					c0.64-0.39,0.67-0.46,0.39-1.16C773.69,301.54,773.76,301.57,774.46,301.29z"/>
			</g>
			<g>
				<path class="st1" d="M750,310.5c-0.38-0.97-0.48-1.02-1.49-0.81c0.97-0.38,1.02-0.48,0.81-1.49c0.38,0.97,0.48,1.02,1.49,0.81
					C749.84,309.39,749.79,309.48,750,310.5z"/>
			</g>
			<g>
				<path class="st1" d="M725.72,243.3c-1.16-0.25-1.26-0.2-1.71,0.9c0.25-1.16,0.2-1.26-0.9-1.71c1.16,0.25,1.26,0.2,1.71-0.9
					C724.57,242.74,724.62,242.85,725.72,243.3z"/>
			</g>
			<g>
				<path class="st1" d="M677.17,220.63c0.7,0.41,0.77,0.39,1.3-0.22c-0.41,0.7-0.39,0.77,0.22,1.3c-0.7-0.41-0.77-0.39-1.3,0.22
					C677.79,221.23,677.78,221.15,677.17,220.63z"/>
			</g>
			<g>
				<path class="st1" d="M628.75,219.14c0.85,0.29,0.93,0.25,1.36-0.53c-0.29,0.85-0.25,0.93,0.53,1.36
					c-0.85-0.29-0.93-0.25-1.36,0.53C629.57,219.65,629.54,219.57,628.75,219.14z"/>
			</g>
			<g>
				<path class="st1" d="M620.28,268.58c0.85-0.74,0.86-0.85,0.28-1.82c0.74,0.85,0.85,0.86,1.82,0.28
					c-0.85,0.74-0.86,0.85-0.28,1.82C621.36,268.02,621.24,268,620.28,268.58z"/>
			</g>
			<g>
				<path class="st1" d="M600.14,214.76c0.19,0.71,0.25,0.75,0.98,0.69c-0.71,0.19-0.75,0.25-0.69,0.98
					c-0.19-0.71-0.25-0.75-0.98-0.69C600.16,215.55,600.2,215.49,600.14,214.76z"/>
			</g>
			<g>
				<path class="st1" d="M575.79,308.74c0.91,0.56,1.02,0.55,1.73-0.26c-0.56,0.91-0.55,1.02,0.26,1.73
					c-0.91-0.56-1.02-0.55-1.73,0.26C576.61,309.56,576.6,309.45,575.79,308.74z"/>
			</g>
			<g>
				<path class="st1" d="M555.52,241.93c0.83,0.41,0.92,0.39,1.47-0.36c-0.41,0.83-0.39,0.92,0.36,1.47
					c-0.83-0.41-0.92-0.39-1.47,0.36C556.3,242.57,556.27,242.48,555.52,241.93z"/>
			</g>
			<g>
				<path class="st1" d="M547.08,233.95c-0.62-0.42-0.69-0.41-1.22,0.12c0.42-0.62,0.41-0.69-0.12-1.22
					c0.62,0.42,0.69,0.41,1.22-0.12C546.53,233.35,546.54,233.43,547.08,233.95z"/>
			</g>
			<g>
				<path class="st1" d="M502.8,235.48c-0.16,1.35-0.09,1.46,1.21,1.86c-1.35-0.16-1.46-0.09-1.86,1.21
					c0.16-1.35,0.09-1.46-1.21-1.86C502.29,236.85,502.41,236.78,502.8,235.48z"/>
			</g>
			<g>
				<path class="st1" d="M481.83,304.83c0.66-0.24,0.69-0.3,0.57-0.99c0.24,0.66,0.3,0.69,0.99,0.57c-0.66,0.24-0.69,0.3-0.57,0.99
					C482.59,304.74,482.52,304.71,481.83,304.83z"/>
			</g>
			<g>
				<path class="st1" d="M474.79,267.59c-0.88,0.53-0.91,0.63-0.54,1.58c-0.53-0.88-0.63-0.91-1.58-0.54
					c0.88-0.53,0.91-0.63,0.54-1.58C473.74,267.93,473.84,267.96,474.79,267.59z"/>
			</g>
			<g>
				<path class="st1" d="M434.47,300.16c-1.01-0.77-1.14-0.76-2.07,0.1c0.77-1.01,0.76-1.14-0.1-2.07c1.01,0.77,1.14,0.76,2.07-0.1
					C433.6,299.1,433.61,299.23,434.47,300.16z"/>
			</g>
			<g>
				<path class="st1" d="M381.04,273.6c1.08-0.91,1.1-1.04,0.4-2.26c0.91,1.08,1.04,1.1,2.26,0.4c-1.08,0.91-1.1,1.04-0.4,2.26
					C382.4,272.92,382.26,272.9,381.04,273.6z"/>
			</g>
			<g>
				<path class="st1" d="M367.51,291.23c-0.31,1.32-0.25,1.44,1,1.98c-1.32-0.31-1.44-0.25-1.98,1c0.31-1.32,0.25-1.44-1-1.98
					C366.85,292.54,366.97,292.48,367.51,291.23z"/>
			</g>
			<g>
				<path class="st1" d="M351.96,268.34c-0.38,1.56-0.31,1.7,1.16,2.35c-1.56-0.38-1.7-0.31-2.35,1.16c0.38-1.56,0.31-1.7-1.16-2.35
					C351.17,269.88,351.31,269.81,351.96,268.34z"/>
			</g>
			<g>
				<path class="st1" d="M323.14,280.37c0.62-1.21,0.59-1.34-0.49-2.15c1.21,0.62,1.34,0.59,2.15-0.49
					c-0.62,1.21-0.59,1.34,0.49,2.15C324.09,279.26,323.95,279.29,323.14,280.37z"/>
			</g>
			<g>
				<path class="st1" d="M297.78,230.87c0.55,0.82,0.64,0.84,1.54,0.45c-0.82,0.55-0.84,0.64-0.45,1.54
					c-0.55-0.82-0.64-0.84-1.54-0.45C298.15,231.87,298.17,231.77,297.78,230.87z"/>
			</g>
			<g>
				<path class="st1" d="M266.29,298.08c-0.94-0.38-1.03-0.35-1.57,0.5c0.38-0.94,0.35-1.03-0.5-1.57c0.94,0.38,1.03,0.35,1.57-0.5
					C265.4,297.44,265.43,297.54,266.29,298.08z"/>
			</g>
			<g>
				<path class="st1" d="M249.48,270.83c-0.49-0.51-0.56-0.52-1.16-0.12c0.51-0.49,0.52-0.56,0.12-1.16
					c0.49,0.51,0.56,0.52,1.16,0.12C249.09,270.17,249.08,270.24,249.48,270.83z"/>
			</g>
			<g>
				<path class="st1" d="M229.26,278.27c0.82,0.37,0.91,0.35,1.42-0.4c-0.37,0.82-0.35,0.91,0.4,1.42c-0.82-0.37-0.91-0.35-1.42,0.4
					C230.03,278.87,230.01,278.78,229.26,278.27z"/>
			</g>
			<g>
				<path class="st1" d="M176.66,312.47c0.81,0.41,0.9,0.39,1.44-0.34c-0.41,0.81-0.39,0.9,0.34,1.44c-0.81-0.41-0.9-0.39-1.44,0.34
					C177.41,313.1,177.39,313.01,176.66,312.47z"/>
			</g>
			<g>
				<path class="st1" d="M130.55,299.9c-0.46,1.62-0.39,1.77,1.13,2.5c-1.62-0.46-1.77-0.39-2.5,1.13c0.46-1.62,0.39-1.77-1.13-2.5
					C129.66,301.48,129.81,301.41,130.55,299.9z"/>
			</g>
			<g>
				<path class="st1" d="M124.58,259.16c-1.38,0.24-1.47,0.35-1.47,1.75c-0.24-1.38-0.35-1.47-1.75-1.47
					c1.38-0.24,1.47-0.35,1.47-1.75C123.07,259.07,123.18,259.16,124.58,259.16z"/>
			</g>
			<g>
				<path class="st1" d="M96.34,285.4c-0.62,0.95-0.61,1.06,0.22,1.84c-0.95-0.62-1.06-0.61-1.84,0.22
					c0.62-0.95,0.61-1.06-0.22-1.84C95.45,286.25,95.56,286.23,96.34,285.4z"/>
			</g>
			<g>
				<path class="st1" d="M86.97,259.56c-0.69,0.56-0.71,0.65-0.27,1.43c-0.56-0.69-0.65-0.71-1.43-0.27
					c0.69-0.56,0.71-0.65,0.27-1.43C86.1,259.97,86.19,259.99,86.97,259.56z"/>
			</g>
			<g>
				<path class="st1" d="M64.88,206.26c0.58,0.59,0.66,0.6,1.34,0.13c-0.59,0.58-0.6,0.66-0.13,1.34c-0.58-0.59-0.66-0.6-1.34-0.13
					C65.34,207.02,65.35,206.94,64.88,206.26z"/>
			</g>
			<g>
				<path class="st1" d="M24.38,250.88c-0.2,1.08-0.15,1.17,0.88,1.56c-1.08-0.2-1.17-0.15-1.56,0.88c0.2-1.08,0.15-1.17-0.88-1.56
					C23.89,251.96,23.99,251.91,24.38,250.88z"/>
			</g>
			<g>
				<path class="st1" d="M-6.08,229.52c0.5,0.65,0.58,0.67,1.31,0.29c-0.65,0.5-0.67,0.58-0.29,1.31c-0.5-0.65-0.58-0.67-1.31-0.29
					C-5.72,230.32-5.71,230.24-6.08,229.52z"/>
			</g>
		</g>
	</g>
	<g>
		<g>
			<g>
				<path class="st1" d="M1350.56,396.42c0.88-0.44,0.92-0.53,0.64-1.48c0.44,0.88,0.53,0.92,1.48,0.64
					c-0.88,0.44-0.92,0.53-0.64,1.48C1351.59,396.18,1351.5,396.14,1350.56,396.42z"/>
			</g>
			<g>
				<path class="st1" d="M1319.37,466c0.83,0,0.89-0.05,1.04-0.87c0,0.83,0.05,0.89,0.87,1.04c-0.83,0-0.89,0.05-1.04,0.87
					C1320.24,466.21,1320.19,466.15,1319.37,466z"/>
			</g>
			<g>
				<path class="st1" d="M1297.12,458.47c-0.88,0.43-0.91,0.52-0.65,1.45c-0.43-0.88-0.52-0.91-1.45-0.65
					c0.88-0.43,0.91-0.52,0.65-1.45C1296.09,458.7,1296.18,458.74,1297.12,458.47z"/>
			</g>
			<g>
				<path class="st1" d="M1262.93,343.89c0.93-0.94,0.95-1.07,0.18-2.15c0.94,0.93,1.07,0.95,2.15,0.18
					c-0.93,0.94-0.95,1.07-0.18,2.15C1264.15,343.13,1264.02,343.12,1262.93,343.89z"/>
			</g>
			<g>
				<path class="st1" d="M1211.51,378.03c-1.01,1.31-1.01,1.48,0.11,2.7c-1.31-1.01-1.48-1.01-2.7,0.11
					c1.01-1.31,1.01-1.48-0.11-2.7C1210.12,379.15,1210.29,379.15,1211.51,378.03z"/>
			</g>
			<g>
				<path class="st1" d="M1190.31,382.28c-0.06-1.15-0.13-1.23-1.27-1.38c1.15-0.06,1.23-0.13,1.38-1.27
					c0.06,1.15,0.13,1.23,1.27,1.38C1190.54,381.06,1190.45,381.14,1190.31,382.28z"/>
			</g>
			<g>
				<path class="st1" d="M1146.89,342.76c1.34,0.45,1.47,0.4,2.14-0.84c-0.45,1.34-0.4,1.47,0.84,2.14
					c-1.34-0.45-1.47-0.4-2.14,0.84C1148.18,343.57,1148.13,343.44,1146.89,342.76z"/>
			</g>
			<g>
				<path class="st1" d="M1128.7,437.52c0.94-0.47,0.98-0.56,0.69-1.57c0.47,0.94,0.56,0.98,1.57,0.69
					c-0.94,0.47-0.98,0.56-0.69,1.57C1129.8,437.26,1129.7,437.22,1128.7,437.52z"/>
			</g>
			<g>
				<path class="st1" d="M1110.23,443.39c-1.2,0.7-1.24,0.83-0.76,2.13c-0.7-1.2-0.83-1.24-2.13-0.76c1.2-0.7,1.24-0.83,0.76-2.13
					C1108.8,443.82,1108.93,443.87,1110.23,443.39z"/>
			</g>
			<g>
				<path class="st1" d="M1073.37,369.49c-0.21,1.3-0.14,1.42,1.11,1.85c-1.3-0.21-1.42-0.14-1.85,1.11
					c0.21-1.3,0.14-1.42-1.11-1.85C1072.83,370.8,1072.94,370.74,1073.37,369.49z"/>
			</g>
			<g>
				<path class="st1" d="M1048.43,394.26c-0.95-0.5-1.06-0.48-1.71,0.37c0.5-0.95,0.48-1.06-0.37-1.71c0.95,0.5,1.06,0.48,1.71-0.37
					C1047.55,393.5,1047.58,393.6,1048.43,394.26z"/>
			</g>
			<g>
				<path class="st1" d="M1011.29,356.55c0.02-1.63-0.08-1.76-1.69-2.06c1.63,0.02,1.76-0.08,2.06-1.69
					c-0.02,1.63,0.08,1.76,1.69,2.06C1011.72,354.84,1011.6,354.94,1011.29,356.55z"/>
			</g>
			<g>
				<path class="st1" d="M971.09,459.11c-1.05,0.6-1.1,0.72-0.69,1.86c-0.6-1.05-0.72-1.1-1.86-0.69c1.05-0.6,1.1-0.72,0.69-1.86
					C969.83,459.48,969.95,459.52,971.09,459.11z"/>
			</g>
			<g>
				<path class="st1" d="M961.65,410.23c-0.61,1.2-0.58,1.33,0.5,2.14c-1.2-0.61-1.33-0.58-2.14,0.5c0.61-1.2,0.58-1.33-0.5-2.14
					C960.72,411.34,960.85,411.31,961.65,410.23z"/>
			</g>
			<g>
				<path class="st1" d="M925.94,344.15c1.48,0.14,1.61,0.05,2-1.39c-0.14,1.48-0.05,1.61,1.39,2c-1.48-0.14-1.61-0.05-2,1.39
					C927.47,344.66,927.38,344.54,925.94,344.15z"/>
			</g>
			<g>
				<path class="st1" d="M905.81,468.28c-1.35-0.1-1.46-0.03-1.8,1.29c0.1-1.35,0.03-1.46-1.29-1.8c1.35,0.1,1.46,0.03,1.8-1.29
					C904.42,467.83,904.5,467.94,905.81,468.28z"/>
			</g>
			<g>
				<path class="st1" d="M881.27,456.54c0.73,0.25,0.81,0.23,1.18-0.45c-0.25,0.73-0.23,0.81,0.45,1.18
					c-0.73-0.25-0.81-0.23-1.18,0.45C881.98,456.99,881.95,456.92,881.27,456.54z"/>
			</g>
			<g>
				<path class="st1" d="M839.08,367.19c0.18-1.07,0.13-1.16-0.9-1.53c1.07,0.18,1.16,0.13,1.53-0.9c-0.18,1.07-0.13,1.16,0.9,1.53
					C839.54,366.11,839.44,366.17,839.08,367.19z"/>
			</g>
			<g>
				<path class="st1" d="M816.21,469.42c-0.56-1.48-0.69-1.56-2.25-1.26c1.48-0.56,1.56-0.69,1.26-2.25
					c0.56,1.48,0.69,1.56,2.25,1.26C816,467.73,815.92,467.86,816.21,469.42z"/>
			</g>
			<g>
				<path class="st1" d="M780.8,411.4c-0.72-0.94-0.83-0.96-1.88-0.42c0.94-0.72,0.96-0.83,0.42-1.88c0.72,0.94,0.83,0.96,1.88,0.42
					C780.28,410.24,780.26,410.36,780.8,411.4z"/>
			</g>
			<g>
				<path class="st1" d="M767.48,407.89c0.27-0.93,0.23-1.02-0.65-1.45c0.93,0.27,1.02,0.23,1.45-0.65
					c-0.27,0.94-0.23,1.02,0.65,1.45C767.99,406.98,767.9,407.02,767.48,407.89z"/>
			</g>
			<g>
				<path class="st1" d="M723.51,377.71c1.56,0.16,1.69,0.07,2.12-1.44c-0.16,1.56-0.07,1.69,1.44,2.12
					c-1.56-0.16-1.69-0.07-2.12,1.44C725.11,378.26,725.02,378.13,723.51,377.71z"/>
			</g>
			<g>
				<path class="st1" d="M709.03,401.99c-1.52-0.56-1.67-0.51-2.49,0.89c0.56-1.52,0.51-1.67-0.89-2.49
					c1.52,0.56,1.67,0.51,2.49-0.89C707.58,401.02,707.63,401.17,709.03,401.99z"/>
			</g>
			<g>
				<path class="st1" d="M660.22,448.89c-0.03-1.42-0.12-1.53-1.53-1.74c1.42-0.03,1.53-0.12,1.74-1.53
					c0.03,1.42,0.12,1.53,1.53,1.74C660.55,447.4,660.44,447.49,660.22,448.89z"/>
			</g>
			<g>
				<path class="st1" d="M619.33,426.67c-1.03-0.27-1.13-0.22-1.57,0.75c0.27-1.03,0.22-1.13-0.75-1.57
					c1.03,0.27,1.13,0.22,1.57-0.75C618.32,426.13,618.36,426.23,619.33,426.67z"/>
			</g>
			<g>
				<path class="st1" d="M576.35,413.46c-0.21-0.73-0.27-0.77-1.02-0.69c0.73-0.21,0.77-0.27,0.69-1.02
					c0.21,0.73,0.27,0.77,1.02,0.69C576.31,412.64,576.27,412.7,576.35,413.46z"/>
			</g>
			<g>
				<path class="st1" d="M563,359.11c-0.91-0.99-1.04-1.01-2.18-0.29c0.99-0.91,1.01-1.04,0.29-2.18c0.91,0.99,1.04,1.01,2.18,0.29
					C562.29,357.84,562.28,357.97,563,359.11z"/>
			</g>
			<g>
				<path class="st1" d="M506.95,470.4c1.07-0.86,1.1-1,0.43-2.2c0.86,1.07,1,1.1,2.2,0.43c-1.07,0.86-1.1,1-0.43,2.2
					C508.29,469.77,508.16,469.74,506.95,470.4z"/>
			</g>
			<g>
				<path class="st1" d="M476.59,448.31c0.72-0.22,0.76-0.29,0.66-1.03c0.22,0.72,0.29,0.76,1.03,0.66
					c-0.72,0.22-0.76,0.29-0.66,1.03C477.4,448.25,477.33,448.21,476.59,448.31z"/>
			</g>
			<g>
				<path class="st1" d="M435.53,410.56c-1.24-0.03-1.34,0.04-1.58,1.26c0.03-1.24-0.04-1.34-1.26-1.58
					c1.24,0.03,1.34-0.04,1.58-1.26C434.24,410.22,434.31,410.31,435.53,410.56z"/>
			</g>
			<g>
				<path class="st1" d="M393.17,419.47c1.3,0.14,1.41,0.06,1.77-1.2c-0.14,1.3-0.06,1.41,1.2,1.77c-1.3-0.14-1.41-0.06-1.77,1.2
					C394.5,419.94,394.43,419.83,393.17,419.47z"/>
			</g>
			<g>
				<path class="st1" d="M386.21,408.73c0.64-0.4,0.66-0.47,0.38-1.17c0.4,0.64,0.47,0.66,1.17,0.38c-0.64,0.4-0.66,0.47-0.38,1.17
					C386.98,408.47,386.9,408.44,386.21,408.73z"/>
			</g>
			<g>
				<path class="st1" d="M362.18,370.95c0.16-1.04,0.1-1.13-0.89-1.46c1.04,0.16,1.13,0.1,1.46-0.89c-0.16,1.04-0.1,1.13,0.89,1.46
					C362.6,369.9,362.51,369.95,362.18,370.95z"/>
			</g>
			<g>
				<path class="st1" d="M312.13,383.47c-0.92,0.25-0.97,0.33-0.88,1.27c-0.25-0.92-0.33-0.97-1.27-0.88
					c0.92-0.25,0.97-0.33,0.88-1.27C311.11,383.51,311.19,383.56,312.13,383.47z"/>
			</g>
			<g>
				<path class="st1" d="M284.63,391.65c1.2,0.77,1.34,0.76,2.31-0.29c-0.77,1.2-0.76,1.34,0.29,2.31c-1.2-0.77-1.34-0.76-2.31,0.29
					C285.7,392.76,285.68,392.62,284.63,391.65z"/>
			</g>
			<g>
				<path class="st1" d="M244.11,454.16c-1.43,0.12-1.53,0.22-1.66,1.65c-0.12-1.43-0.22-1.53-1.65-1.66
					c1.43-0.12,1.53-0.22,1.66-1.65C242.58,453.93,242.68,454.03,244.11,454.16z"/>
			</g>
			<g>
				<path class="st1" d="M201.83,400.28c1.27,0.32,1.39,0.27,1.92-0.93c-0.32,1.27-0.27,1.39,0.93,1.92
					c-1.27-0.32-1.39-0.27-1.92,0.93C203.08,400.94,203.03,400.82,201.83,400.28z"/>
			</g>
			<g>
				<path class="st1" d="M166.86,367.43c0.1-1.12,0.03-1.21-1.05-1.5c1.12,0.1,1.21,0.03,1.5-1.05c-0.1,1.12-0.03,1.21,1.05,1.5
					C167.24,366.29,167.15,366.35,166.86,367.43z"/>
			</g>
			<g>
				<path class="st1" d="M123.48,404.39c1.43,0.31,1.56,0.24,2.11-1.12c-0.31,1.43-0.24,1.56,1.12,2.11
					c-1.43-0.31-1.56-0.24-2.11,1.12C124.9,405.07,124.83,404.94,123.48,404.39z"/>
			</g>
			<g>
				<path class="st1" d="M74.22,412.16c0.84-0.92,0.85-1.05,0.08-2.03c0.92,0.84,1.05,0.85,2.03,0.08
					c-0.84,0.92-0.85,1.05-0.08,2.03C75.34,411.41,75.21,411.4,74.22,412.16z"/>
			</g>
			<g>
				<path class="st1" d="M38.41,382.2c1.6,0.17,1.73,0.08,2.18-1.46c-0.17,1.6-0.08,1.73,1.46,2.18c-1.6-0.17-1.73-0.08-2.18,1.46
					C40.04,382.78,39.95,382.65,38.41,382.2z"/>
			</g>
			<g>
				<path class="st1" d="M2.07,373.01c1.37,0.81,1.53,0.78,2.56-0.43c-0.81,1.37-0.78,1.53,0.43,2.56
					c-1.37-0.81-1.53-0.78-2.56,0.43C3.31,374.19,3.29,374.04,2.07,373.01z"/>
			</g>
		</g>
	</g>
	<g>
		<g>
			<g>
				<path class="st1" d="M1337.77,587.01c0.95,0.25,1.04,0.2,1.44-0.69c-0.25,0.95-0.2,1.04,0.69,1.44
					c-0.95-0.25-1.04-0.2-1.44,0.69C1338.71,587.5,1338.67,587.41,1337.77,587.01z"/>
			</g>
			<g>
				<path class="st1" d="M1300.85,605.76c-1.27,0.06-1.37,0.15-1.53,1.41c-0.06-1.27-0.15-1.37-1.41-1.53
					c1.27-0.06,1.37-0.15,1.53-1.41C1299.5,605.51,1299.58,605.6,1300.85,605.76z"/>
			</g>
			<g>
				<path class="st1" d="M1281.69,570.03c-1.16,1.28-1.17,1.45-0.11,2.82c-1.28-1.16-1.45-1.17-2.82-0.11
					c1.16-1.28,1.17-1.45,0.11-2.82C1280.15,571.08,1280.33,571.09,1281.69,570.03z"/>
			</g>
			<g>
				<path class="st1" d="M1242,616.13c-0.43,1.07-0.39,1.18,0.59,1.78c-1.07-0.43-1.18-0.39-1.78,0.59
					c0.43-1.07,0.39-1.18-0.59-1.78C1241.28,617.14,1241.39,617.1,1242,616.13z"/>
			</g>
			<g>
				<path class="st1" d="M1232.08,585.96c-1.23-0.45-1.35-0.4-2,0.73c0.45-1.23,0.4-1.35-0.73-2c1.23,0.45,1.35,0.4,2-0.73
					C1230.9,585.19,1230.94,585.31,1232.08,585.96z"/>
			</g>
			<g>
				<path class="st1" d="M1216.39,602.26c-0.28,0.93-0.24,1.02,0.63,1.46c-0.93-0.28-1.02-0.24-1.46,0.63
					c0.28-0.93,0.24-1.02-0.63-1.46C1215.87,603.17,1215.96,603.13,1216.39,602.26z"/>
			</g>
			<g>
				<path class="st1" d="M1188.99,545.92c-1.08,0.12-1.16,0.2-1.22,1.28c-0.12-1.08-0.2-1.16-1.28-1.22
					c1.08-0.12,1.16-0.2,1.22-1.28C1187.83,545.78,1187.91,545.85,1188.99,545.92z"/>
			</g>
			<g>
				<path class="st1" d="M1138.19,534.45c-0.14-1.05-0.21-1.13-1.28-1.17c1.05-0.14,1.13-0.21,1.17-1.28
					c0.14,1.05,0.21,1.13,1.28,1.17C1138.31,533.31,1138.24,533.38,1138.19,534.45z"/>
			</g>
			<g>
				<path class="st1" d="M1130.69,583.01c0.86-1.01,0.87-1.14,0.02-2.17c1.01,0.86,1.14,0.87,2.17,0.02
					c-0.86,1.01-0.87,1.14-0.02,2.17C1131.85,582.17,1131.72,582.17,1130.69,583.01z"/>
			</g>
			<g>
				<path class="st1" d="M1105.76,559.3c0.89,0.67,1,0.67,1.81-0.09c-0.67,0.89-0.67,1,0.09,1.81c-0.89-0.67-1-0.67-1.81,0.09
					C1106.52,560.23,1106.52,560.12,1105.76,559.3z"/>
			</g>
			<g>
				<path class="st1" d="M1074.79,618.04c-0.05,1.48,0.04,1.6,1.49,1.91c-1.48-0.05-1.6,0.04-1.91,1.49
					c0.05-1.48-0.04-1.6-1.49-1.91C1074.36,619.58,1074.48,619.49,1074.79,618.04z"/>
			</g>
			<g>
				<path class="st1" d="M1048.1,569.31c-1.29,0.56-1.35,0.69-1.02,2.05c-0.56-1.29-0.69-1.35-2.05-1.02
					c1.29-0.56,1.35-0.69,1.02-2.05C1046.61,569.58,1046.73,569.64,1048.1,569.31z"/>
			</g>
			<g>
				<path class="st1" d="M1025.28,590.49c-0.63,0.44-0.65,0.52-0.32,1.21c-0.44-0.63-0.52-0.65-1.21-0.32
					c0.63-0.44,0.65-0.52,0.32-1.21C1024.5,590.8,1024.58,590.82,1025.28,590.49z"/>
			</g>
			<g>
				<path class="st1" d="M1014.64,607.62c-1.2-0.67-1.33-0.64-2.2,0.42c0.67-1.2,0.64-1.33-0.42-2.2c1.2,0.67,1.33,0.64,2.2-0.42
					C1013.55,606.62,1013.58,606.76,1014.64,607.62z"/>
			</g>
			<g>
				<path class="st1" d="M995.46,595.47c-0.64,1.13-0.62,1.25,0.38,2.08c-1.13-0.64-1.25-0.62-2.08,0.38
					c0.64-1.13,0.62-1.25-0.38-2.08C994.51,596.49,994.64,596.47,995.46,595.47z"/>
			</g>
			<g>
				<path class="st1" d="M975.79,556.9c0.82,0.4,0.91,0.37,1.44-0.37c-0.4,0.82-0.37,0.91,0.37,1.44c-0.82-0.4-0.91-0.37-1.44,0.37
					C976.56,557.52,976.54,557.43,975.79,556.9z"/>
			</g>
			<g>
				<path class="st1" d="M964.18,557.96c-0.55,0.52-0.56,0.6-0.14,1.24c-0.52-0.55-0.6-0.56-1.24-0.14c0.55-0.52,0.56-0.6,0.14-1.24
					C963.47,558.37,963.54,558.38,964.18,557.96z"/>
			</g>
			<g>
				<path class="st1" d="M910.17,581.06c0.81,1.02,0.94,1.05,2.09,0.43c-1.02,0.81-1.05,0.94-0.43,2.09
					c-0.81-1.02-0.94-1.05-2.09-0.43C910.76,582.33,910.79,582.21,910.17,581.06z"/>
			</g>
			<g>
				<path class="st1" d="M866.74,634.53c-0.84-0.97-0.96-0.99-2.07-0.34c0.97-0.84,0.99-0.96,0.34-2.07
					c0.84,0.97,0.96,0.99,2.07,0.34C866.11,633.3,866.09,633.43,866.74,634.53z"/>
			</g>
			<g>
				<path class="st1" d="M856.65,621.98c1.41,0.3,1.53,0.23,2.07-1.1c-0.3,1.41-0.23,1.53,1.1,2.07c-1.41-0.3-1.53-0.23-2.07,1.1
					C858.05,622.65,857.98,622.52,856.65,621.98z"/>
			</g>
			<g>
				<path class="st1" d="M837.43,642c-1.65-0.36-1.8-0.28-2.44,1.28c0.36-1.65,0.28-1.8-1.28-2.44c1.65,0.36,1.8,0.28,2.44-1.28
					C835.79,641.21,835.86,641.36,837.43,642z"/>
			</g>
			<g>
				<path class="st1" d="M817.1,565.66c0.94-0.12,1-0.19,1.05-1.13c0.12,0.94,0.19,1,1.13,1.05c-0.94,0.12-1,0.19-1.05,1.13
					C818.11,565.77,818.04,565.71,817.1,565.66z"/>
			</g>
			<g>
				<path class="st1" d="M764.22,549.22c0.37-1.24,0.32-1.36-0.84-1.93c1.24,0.37,1.36,0.32,1.93-0.84
					c-0.37,1.24-0.32,1.36,0.84,1.93C764.92,548.02,764.8,548.07,764.22,549.22z"/>
			</g>
			<g>
				<path class="st1" d="M736.63,542.66c-0.97,1.01-0.98,1.15-0.15,2.28c-1.01-0.97-1.15-0.98-2.28-0.15
					c0.97-1.01,0.98-1.15,0.15-2.28C735.37,543.48,735.51,543.48,736.63,542.66z"/>
			</g>
			<g>
				<path class="st1" d="M723.83,602.21c0.57,0.89,0.67,0.93,1.65,0.52c-0.89,0.57-0.93,0.67-0.52,1.65
					c-0.57-0.89-0.67-0.93-1.65-0.52C724.21,603.29,724.24,603.19,723.83,602.21z"/>
			</g>
			<g>
				<path class="st1" d="M706.66,594.82c-0.18-0.75-0.24-0.8-1.01-0.75c0.75-0.18,0.8-0.24,0.75-1.01c0.18,0.75,0.24,0.8,1.01,0.75
					C706.66,593.99,706.61,594.05,706.66,594.82z"/>
			</g>
			<g>
				<path class="st1" d="M676.48,519.25c-0.44,0.65-0.43,0.72,0.13,1.27c-0.65-0.44-0.72-0.43-1.27,0.13
					c0.44-0.65,0.43-0.72-0.13-1.27C675.85,519.82,675.93,519.81,676.48,519.25z"/>
			</g>
			<g>
				<path class="st1" d="M632.42,591.66c-0.91-0.86-1.03-0.87-2.03-0.12c0.86-0.91,0.87-1.03,0.12-2.03
					c0.91,0.86,1.03,0.87,2.03,0.12C631.68,590.53,631.68,590.65,632.42,591.66z"/>
			</g>
			<g>
				<path class="st1" d="M596.57,619.32c-1.16,0.38-1.22,0.48-1.05,1.69c-0.38-1.16-0.48-1.22-1.69-1.05
					c1.16-0.38,1.22-0.48,1.05-1.69C595.26,619.43,595.36,619.5,596.57,619.32z"/>
			</g>
			<g>
				<path class="st1" d="M580.73,511.37c-0.79-0.18-0.86-0.14-1.17,0.61c0.18-0.79,0.14-0.86-0.61-1.17
					c0.79,0.18,0.86,0.14,1.17-0.61C579.95,510.99,579.98,511.06,580.73,511.37z"/>
			</g>
			<g>
				<path class="st1" d="M548.56,522.71c-0.63,0.93-0.62,1.05,0.19,1.83c-0.93-0.63-1.05-0.62-1.83,0.19
					c0.63-0.93,0.62-1.05-0.19-1.83C547.66,523.53,547.77,523.52,548.56,522.71z"/>
			</g>
			<g>
				<path class="st1" d="M517.37,565.67c-0.29-1.46-0.41-1.55-1.89-1.51c1.46-0.29,1.55-0.41,1.51-1.89
					c0.29,1.46,0.41,1.55,1.89,1.51C517.43,564.07,517.34,564.19,517.37,565.67z"/>
			</g>
			<g>
				<path class="st1" d="M480.18,595.33c0.85,0.37,0.94,0.34,1.45-0.43c-0.37,0.85-0.34,0.94,0.43,1.45
					c-0.85-0.37-0.94-0.34-1.45,0.43C480.98,595.93,480.96,595.84,480.18,595.33z"/>
			</g>
			<g>
				<path class="st1" d="M444.44,582c0.56,1.59,0.71,1.67,2.37,1.4c-1.59,0.56-1.67,0.71-1.4,2.37c-0.56-1.59-0.71-1.67-2.37-1.4
					C444.64,583.81,444.72,583.67,444.44,582z"/>
			</g>
			<g>
				<path class="st1" d="M432.05,600.27c1.53-0.56,1.61-0.7,1.33-2.31c0.56,1.53,0.7,1.61,2.31,1.33c-1.53,0.56-1.61,0.7-1.33,2.31
					C433.8,600.06,433.66,599.98,432.05,600.27z"/>
			</g>
			<g>
				<path class="st1" d="M430.41,561.22c0.29,1.21,0.39,1.28,1.63,1.21c-1.21,0.29-1.28,0.39-1.21,1.63
					c-0.29-1.21-0.39-1.28-1.63-1.21C430.41,562.56,430.49,562.46,430.41,561.22z"/>
			</g>
			<g>
				<path class="st1" d="M387.04,510.7c1.33-0.9,1.37-1.06,0.71-2.52c0.9,1.33,1.06,1.37,2.52,0.71c-1.33,0.9-1.37,1.06-0.71,2.52
					C388.66,510.08,388.5,510.04,387.04,510.7z"/>
			</g>
			<g>
				<path class="st1" d="M334.82,587.54c0.39,1.18,0.49,1.25,1.72,1.07c-1.18,0.39-1.25,0.49-1.07,1.72
					c-0.39-1.18-0.49-1.25-1.72-1.07C334.93,588.88,335,588.77,334.82,587.54z"/>
			</g>
			<g>
				<path class="st1" d="M328.79,533.61c0.28,1.25,0.39,1.33,1.67,1.27c-1.25,0.28-1.33,0.39-1.27,1.67
					c-0.28-1.25-0.39-1.33-1.67-1.27C328.77,535,328.85,534.9,328.79,533.61z"/>
			</g>
			<g>
				<path class="st1" d="M282.71,517.77c0.5,0.69,0.58,0.71,1.35,0.34c-0.69,0.5-0.71,0.58-0.34,1.35c-0.5-0.69-0.58-0.71-1.35-0.34
					C283.06,518.62,283.08,518.54,282.71,517.77z"/>
			</g>
			<g>
				<path class="st1" d="M271.37,515.01c-0.42-0.86-0.51-0.9-1.42-0.63c0.86-0.42,0.9-0.51,0.63-1.42c0.42,0.86,0.51,0.9,1.42,0.63
					C271.14,514.01,271.1,514.09,271.37,515.01z"/>
			</g>
			<g>
				<path class="st1" d="M229.95,561.46c-1.27,0.01-1.37,0.09-1.58,1.35c-0.01-1.27-0.09-1.37-1.35-1.58
					c1.27-0.01,1.37-0.09,1.58-1.35C228.61,561.15,228.69,561.25,229.95,561.46z"/>
			</g>
			<g>
				<path class="st1" d="M220.77,505.1c-1-0.55-1.11-0.52-1.83,0.37c0.55-1,0.52-1.11-0.37-1.83c1,0.55,1.11,0.52,1.83-0.37
					C219.85,504.28,219.88,504.39,220.77,505.1z"/>
			</g>
			<g>
				<path class="st1" d="M192.58,545.85c-0.65,0.91-0.64,1.02,0.14,1.81c-0.91-0.65-1.02-0.64-1.81,0.14
					c0.65-0.91,0.64-1.02-0.14-1.81C191.68,546.64,191.79,546.63,192.58,545.85z"/>
			</g>
			<g>
				<path class="st1" d="M168.43,479.51c-0.28-0.72-0.35-0.76-1.1-0.6c0.72-0.28,0.76-0.35,0.6-1.1c0.28,0.72,0.35,0.76,1.1,0.6
					C168.32,478.68,168.28,478.75,168.43,479.51z"/>
			</g>
			<g>
				<path class="st1" d="M126.59,563.06c-0.43-1.28-0.55-1.35-1.88-1.14c1.28-0.43,1.35-0.55,1.14-1.88
					c0.43,1.28,0.55,1.35,1.88,1.14C126.46,561.61,126.39,561.73,126.59,563.06z"/>
			</g>
			<g>
				<path class="st1" d="M97.65,473.18c0.43,1.12,0.53,1.18,1.71,0.95c-1.12,0.43-1.18,0.53-0.95,1.71
					c-0.43-1.12-0.53-1.18-1.71-0.95C97.82,474.46,97.88,474.36,97.65,473.18z"/>
			</g>
			<g>
				<path class="st1" d="M52.86,478.75c0.6-0.57,0.61-0.65,0.15-1.34c0.57,0.6,0.65,0.61,1.34,0.15c-0.6,0.57-0.61,0.65-0.15,1.34
					C53.63,478.3,53.54,478.29,52.86,478.75z"/>
			</g>
			<g>
				<path class="st1" d="M10.38,510.77c0.67-1.14,0.65-1.27-0.35-2.13c1.14,0.67,1.27,0.65,2.13-0.35
					c-0.67,1.14-0.65,1.27,0.35,2.13C11.37,509.75,11.24,509.77,10.38,510.77z"/>
			</g>
		</g>
	</g>
	<g>
		<g>
			<g>
				<path class="st1" d="M72.36,751.96c-0.42-1.13-0.53-1.19-1.71-0.97c1.13-0.42,1.19-0.53,0.97-1.71
					c0.42,1.13,0.53,1.19,1.71,0.97C72.21,750.67,72.15,750.77,72.36,751.96z"/>
			</g>
			<g>
				<path class="st1" d="M47.65,711.93c0.14-1.6,0.05-1.73-1.51-2.14c1.6,0.14,1.73,0.05,2.14-1.51c-0.14,1.6-0.05,1.73,1.51,2.14
					C48.19,710.28,48.06,710.37,47.65,711.93z"/>
			</g>
			<g>
				<path class="st1" d="M29.29,671.37c-1.14-0.39-1.25-0.34-1.83,0.71c0.39-1.14,0.34-1.25-0.71-1.83
					c1.14,0.39,1.25,0.34,1.83-0.71C28.19,670.68,28.24,670.79,29.29,671.37z"/>
			</g>
			<g>
				<path class="st1" d="M75.82,646.32c-0.82-0.13-0.89-0.09-1.16,0.7c0.13-0.82,0.09-0.89-0.7-1.16c0.82,0.13,0.89,0.09,1.16-0.7
					C74.99,645.98,75.04,646.05,75.82,646.32z"/>
			</g>
			<g>
				<path class="st1" d="M40.55,630.98c1.13,0.48,1.25,0.45,1.92-0.58c-0.48,1.13-0.45,1.25,0.58,1.92
					c-1.13-0.48-1.25-0.45-1.92,0.58C41.62,631.77,41.59,631.65,40.55,630.98z"/>
			</g>
			<g>
				<path class="st1" d="M48.62,666.65c0.82,1.37,0.97,1.43,2.47,0.86c-1.37,0.82-1.43,0.97-0.86,2.47
					c-0.82-1.37-0.97-1.43-2.47-0.86C49.13,668.3,49.19,668.15,48.62,666.65z"/>
			</g>
			<g>
				<path class="st1" d="M108.52,604.19c0.3-0.65,0.28-0.72-0.31-1.13c0.65,0.3,0.72,0.28,1.13-0.31c-0.3,0.65-0.28,0.72,0.31,1.13
					C109,603.58,108.93,603.6,108.52,604.19z"/>
			</g>
			<g>
				<path class="st1" d="M152.06,629.9c0.06,1.19,0.14,1.28,1.33,1.42c-1.19,0.06-1.28,0.14-1.43,1.33
					c-0.06-1.19-0.14-1.28-1.33-1.43C151.83,631.17,151.92,631.09,152.06,629.9z"/>
			</g>
			<g>
				<path class="st1" d="M159.88,683.99c0.09,0.72,0.14,0.77,0.87,0.81c-0.72,0.09-0.77,0.14-0.81,0.87
					c-0.09-0.72-0.14-0.77-0.87-0.81C159.79,684.77,159.84,684.72,159.88,683.99z"/>
			</g>
			<g>
				<path class="st1" d="M209.38,660.54c0.17,1.04,0.24,1.11,1.3,1.12c-1.04,0.17-1.11,0.24-1.12,1.3c-0.17-1.04-0.24-1.11-1.3-1.12
					C209.29,661.67,209.36,661.59,209.38,660.54z"/>
			</g>
			<g>
				<path class="st1" d="M224.43,724.11c0.11,0.7,0.17,0.74,0.87,0.75c-0.7,0.11-0.74,0.17-0.75,0.87c-0.11-0.7-0.17-0.74-0.87-0.75
					C224.38,724.87,224.42,724.82,224.43,724.11z"/>
			</g>
			<g>
				<path class="st1" d="M281.97,697.21c-0.02,0.96,0.04,1.04,0.98,1.22c-0.96-0.02-1.04,0.04-1.22,0.98
					c0.02-0.96-0.04-1.04-0.98-1.22C281.71,698.21,281.79,698.15,281.97,697.21z"/>
			</g>
			<g>
				<path class="st1" d="M318.79,763.48c-0.52,1.42-0.47,1.56,0.83,2.32c-1.42-0.52-1.56-0.47-2.32,0.83
					c0.52-1.42,0.47-1.56-0.83-2.32C317.88,764.83,318.03,764.78,318.79,763.48z"/>
			</g>
			<g>
				<path class="st1" d="M356.46,655.65c-1.11-0.46-1.22-0.42-1.86,0.59c0.46-1.11,0.42-1.22-0.59-1.86
					c1.11,0.46,1.22,0.42,1.86-0.59C355.41,654.9,355.45,655.01,356.46,655.65z"/>
			</g>
			<g>
				<path class="st1" d="M390.49,707.05c-1.44,0.3-1.53,0.41-1.49,1.88c-0.3-1.44-0.41-1.53-1.88-1.49c1.44-0.3,1.53-0.41,1.49-1.88
					C388.9,707,389.02,707.09,390.49,707.05z"/>
			</g>
			<g>
				<path class="st1" d="M426.35,776.07c-0.6-0.61-0.69-0.62-1.4-0.13c0.61-0.6,0.62-0.69,0.13-1.4c0.6,0.61,0.69,0.62,1.4,0.13
					C425.87,775.28,425.87,775.36,426.35,776.07z"/>
			</g>
			<g>
				<path class="st1" d="M486.86,676.53c-1.54,0.36-1.64,0.48-1.55,2.06c-0.36-1.54-0.48-1.64-2.06-1.55
					c1.54-0.36,1.64-0.48,1.55-2.06C485.15,676.52,485.28,676.61,486.86,676.53z"/>
			</g>
			<g>
				<path class="st1" d="M498.97,682.03c-1.64-0.12-1.77-0.03-2.18,1.57c0.12-1.64,0.03-1.77-1.57-2.18
					c1.64,0.12,1.77,0.03,2.18-1.57C497.28,681.49,497.37,681.63,498.97,682.03z"/>
			</g>
			<g>
				<path class="st1" d="M514.69,742.54c-0.91,0.25-0.96,0.33-0.87,1.26c-0.25-0.91-0.33-0.96-1.26-0.87
					c0.91-0.25,0.96-0.33,0.87-1.26C513.68,742.58,513.76,742.63,514.69,742.54z"/>
			</g>
			<g>
				<path class="st1" d="M533.31,727.78c0.62-0.79,0.62-0.88-0.05-1.63c0.79,0.62,0.88,0.62,1.63-0.05
					c-0.62,0.79-0.62,0.88,0.05,1.63C534.16,727.11,534.06,727.11,533.31,727.78z"/>
			</g>
			<g>
				<path class="st1" d="M544.81,764.62c0.46,0.89,0.55,0.93,1.51,0.63c-0.89,0.46-0.93,0.55-0.63,1.51
					c-0.46-0.89-0.55-0.93-1.51-0.63C545.07,765.67,545.11,765.58,544.81,764.62z"/>
			</g>
			<g>
				<path class="st1" d="M569.09,677.88c0.77,0.1,0.84,0.06,1.07-0.68c-0.1,0.77-0.06,0.84,0.68,1.07c-0.77-0.1-0.84-0.06-1.07,0.68
					C569.88,678.18,569.84,678.11,569.09,677.88z"/>
			</g>
			<g>
				<path class="st1" d="M579.8,690.59c0.32,1.05,0.41,1.11,1.5,0.98c-1.05,0.32-1.11,0.41-0.98,1.5c-0.32-1.05-0.41-1.11-1.5-0.98
					C579.88,691.77,579.94,691.68,579.8,690.59z"/>
			</g>
			<g>
				<path class="st1" d="M602.07,671.9c-1.15,0.14-1.23,0.22-1.29,1.37c-0.14-1.15-0.22-1.23-1.37-1.29
					c1.15-0.14,1.23-0.22,1.29-1.37C600.83,671.76,600.92,671.84,602.07,671.9z"/>
			</g>
			<g>
				<path class="st1" d="M651.77,692.71c0.53,0.5,0.61,0.51,1.19,0.07c-0.5,0.53-0.51,0.61-0.07,1.19c-0.53-0.5-0.61-0.51-1.19-0.07
					C652.21,693.37,652.21,693.3,651.77,692.71z"/>
			</g>
			<g>
				<path class="st1" d="M691.6,685.16c0.68-1.6,0.62-1.76-0.83-2.7c1.6,0.68,1.76,0.62,2.7-0.83c-0.68,1.6-0.62,1.76,0.83,2.7
					C692.71,683.66,692.54,683.71,691.6,685.16z"/>
			</g>
			<g>
				<path class="st1" d="M728.19,683.97c1.33-0.33,1.41-0.44,1.31-1.8c0.33,1.33,0.44,1.41,1.8,1.31c-1.33,0.33-1.41,0.44-1.31,1.8
					C729.66,683.95,729.55,683.87,728.19,683.97z"/>
			</g>
			<g>
				<path class="st1" d="M767.04,726.94c0.39,1.45,0.52,1.53,2.01,1.4c-1.45,0.39-1.53,0.52-1.4,2.01c-0.39-1.45-0.52-1.53-2.01-1.4
					C767.09,728.56,767.18,728.44,767.04,726.94z"/>
			</g>
			<g>
				<path class="st1" d="M787.69,699.06c0.64-0.27,0.68-0.33,0.52-1.01c0.27,0.64,0.33,0.68,1.01,0.52
					c-0.64,0.27-0.68,0.33-0.52,1.01C788.43,698.94,788.37,698.9,787.69,699.06z"/>
			</g>
			<g>
				<path class="st1" d="M802.44,698.52c-0.03-0.74-0.08-0.79-0.81-0.89c0.74-0.03,0.79-0.08,0.89-0.81
					c0.03,0.74,0.08,0.79,0.81,0.89C802.59,697.74,802.54,697.79,802.44,698.52z"/>
			</g>
			<g>
				<path class="st1" d="M831.76,695.35c-0.05-1.08-0.12-1.16-1.2-1.3c1.08-0.05,1.16-0.12,1.3-1.2c0.05,1.08,0.12,1.16,1.2,1.3
					C831.98,694.2,831.9,694.27,831.76,695.35z"/>
			</g>
			<g>
				<path class="st1" d="M859.23,781.88c-0.61-0.65-0.7-0.65-1.45-0.16c0.65-0.61,0.66-0.7,0.16-1.45c0.61,0.65,0.7,0.65,1.45,0.16
					C858.74,781.05,858.73,781.14,859.23,781.88z"/>
			</g>
			<g>
				<path class="st1" d="M909.42,705.07c-0.42-1.63-0.55-1.72-2.23-1.59c1.63-0.42,1.72-0.55,1.59-2.23
					c0.42,1.63,0.55,1.72,2.23,1.59C909.39,703.26,909.29,703.4,909.42,705.07z"/>
			</g>
			<g>
				<path class="st1" d="M952.58,691.21c-0.53-1.37-0.66-1.44-2.1-1.15c1.37-0.53,1.44-0.66,1.15-2.1c0.53,1.37,0.66,1.44,2.1,1.15
					C952.37,689.65,952.3,689.77,952.58,691.21z"/>
			</g>
			<g>
				<path class="st1" d="M962.93,758.3c1.63,0.39,1.78,0.31,2.44-1.22c-0.39,1.63-0.31,1.78,1.22,2.44
					c-1.63-0.39-1.78-0.31-2.44,1.22C964.54,759.12,964.47,758.97,962.93,758.3z"/>
			</g>
			<g>
				<path class="st1" d="M1005.96,743.41c0.74,0.77,0.84,0.78,1.73,0.19c-0.77,0.74-0.78,0.84-0.19,1.73
					c-0.74-0.77-0.84-0.78-1.73-0.19C1006.54,744.41,1006.56,744.3,1005.96,743.41z"/>
			</g>
			<g>
				<path class="st1" d="M1044.41,754.57c-0.94-0.62-1.05-0.61-1.82,0.21c0.62-0.94,0.61-1.05-0.21-1.82
					c0.94,0.62,1.05,0.61,1.82-0.21C1043.59,753.68,1043.6,753.79,1044.41,754.57z"/>
			</g>
			<g>
				<path class="st1" d="M1072.62,741.13c-1.11,0.01-1.19,0.08-1.38,1.18c-0.01-1.11-0.08-1.19-1.18-1.38
					c1.11-0.01,1.19-0.08,1.38-1.18C1071.45,740.87,1071.52,740.95,1072.62,741.13z"/>
			</g>
			<g>
				<path class="st1" d="M1102.51,656.43c-0.65-0.33-0.72-0.31-1.16,0.27c0.33-0.65,0.31-0.72-0.27-1.16
					c0.65,0.33,0.72,0.31,1.16-0.27C1101.91,655.92,1101.93,655.99,1102.51,656.43z"/>
			</g>
			<g>
				<path class="st1" d="M1120.83,711.11c0.38-1.26,0.33-1.38-0.85-1.97c1.26,0.38,1.38,0.33,1.97-0.85
					c-0.38,1.26-0.33,1.38,0.85,1.97C1121.54,709.89,1121.42,709.94,1120.83,711.11z"/>
			</g>
			<g>
				<path class="st1" d="M1156.67,677.08c-0.85,0.7-0.87,0.81-0.33,1.77c-0.7-0.85-0.81-0.87-1.77-0.33
					c0.85-0.7,0.87-0.81,0.33-1.77C1155.6,677.6,1155.71,677.62,1156.67,677.08z"/>
			</g>
			<g>
				<path class="st1" d="M1202.18,644.77c-1.05,0.22-1.11,0.31-1.07,1.38c-0.22-1.05-0.31-1.11-1.38-1.07
					c1.05-0.22,1.11-0.31,1.07-1.38C1201.03,644.74,1201.11,644.8,1202.18,644.77z"/>
			</g>
			<g>
				<path class="st1" d="M1223.32,763.46c1.53,0.4,1.68,0.33,2.34-1.11c-0.4,1.53-0.33,1.68,1.11,2.34
					c-1.53-0.4-1.68-0.33-2.34,1.11C1224.83,764.27,1224.76,764.12,1223.32,763.46z"/>
			</g>
			<g>
				<path class="st1" d="M1228.32,646.95c-0.66-0.38-0.74-0.36-1.23,0.22c0.38-0.66,0.36-0.74-0.22-1.23
					c0.66,0.38,0.74,0.36,1.23-0.22C1227.72,646.38,1227.73,646.46,1228.32,646.95z"/>
			</g>
			<g>
				<path class="st1" d="M1246.32,713.61c0.46,1.45,0.58,1.53,2.08,1.33c-1.45,0.46-1.53,0.58-1.33,2.08
					c-0.46-1.45-0.58-1.53-2.08-1.33C1246.44,715.23,1246.52,715.11,1246.32,713.61z"/>
			</g>
			<g>
				<path class="st1" d="M1291.56,738.6c-1.01,0.77-1.04,0.9-0.46,2.03c-0.77-1.01-0.9-1.04-2.03-0.46c1.01-0.77,1.04-0.9,0.46-2.03
					C1290.31,739.16,1290.43,739.19,1291.56,738.6z"/>
			</g>
			<g>
				<path class="st1" d="M1318.24,716.54c1.68,0.04,1.81-0.07,2.14-1.71c-0.04,1.68,0.07,1.81,1.71,2.14
					c-1.68-0.04-1.81,0.07-2.14,1.71C1320,717,1319.89,716.87,1318.24,716.54z"/>
			</g>
			<g>
				<path class="st1" d="M1365.77,688.32c-0.84-1.09-0.97-1.12-2.2-0.49c1.09-0.84,1.12-0.97,0.49-2.2c0.84,1.09,0.97,1.12,2.2,0.49
					C1365.16,686.96,1365.13,687.1,1365.77,688.32z"/>
			</g>
		</g>
	</g>
</g>
<linearGradient id="SVGID_00000108270437112235500370000006185663384303741859_" gradientUnits="userSpaceOnUse" x1="245.0798" y1="831.3237" x2="359.3616" y2="212.9132">
	<stop  offset="0" style="stop-color:#FF7B00"/>
	<stop  offset="0.2934" style="stop-color:#FF8400"/>
	<stop  offset="0.768" style="stop-color:#FF9C00"/>
	<stop  offset="1" style="stop-color:#FFAA00"/>
</linearGradient>
<path style="opacity:0.8;fill:url(#SVGID_00000108270437112235500370000006185663384303741859_);" d="M572.56,767.5H0.5V446.55
	c14.1-24.79,30.93-49.32,51-73.05c57.88-68.42,140.73-113.75,188-136c2,2.45,2.55,3.11,2.63,3.18c-0.02-0.04-0.21-0.28-0.26-0.35
	c0.08,0.06,0.63,0.72,2.63,3.17c-20.09,52.36-46.13,156.74-19,241C272.15,629.37,454.6,720.07,572.56,767.5z"/>
<linearGradient id="SVGID_00000021799373206737737660000015118095918529742269_" gradientUnits="userSpaceOnUse" x1="-20.2794" y1="642.0645" x2="146.161" y2="323.9783">
	<stop  offset="0" style="stop-color:#FFB700"/>
	<stop  offset="1" style="stop-color:#FFEA00"/>
</linearGradient>
<path style="opacity:0.8;fill:url(#SVGID_00000021799373206737737660000015118095918529742269_);" d="M45.74,502.85
	C56.5,489.59,71.63,473.51,92,458c17.7-13.48,34.65-22.94,48.74-29.57C137.39,463.97,125.7,486.34,116,500
	c-22.37,31.47-53.68,44.08-59,81c-1.15,7.99,0.01,9.51-0.37,17.91c-1.05,23.03-11.81,55.53-56.13,95.35V527.54
	c2.24-8.96,4.6-18.23,7.08-27.83C9.12,452.58,22.54,434.05,35,426c8.01-5.17,18.77-8.04,32.19-20.51
	C78.31,395.16,83.3,385.65,87,380c8.9-13.57,27.04-30.17,68.15-41.04c-14.51,47.87-30.8,86.17-46.15,85.04
	c-5.36-0.4-7.36-5.36-12.79-5.93C84.74,416.87,68.69,436.37,45.74,502.85z"/>
<linearGradient id="SVGID_00000050623352269583005840000014635363664519815816_" gradientUnits="userSpaceOnUse" x1="0.5" y1="586.89" x2="317.07" y2="586.89">
	<stop  offset="0" style="stop-color:#FFB700"/>
	<stop  offset="1" style="stop-color:#FFEA00"/>
</linearGradient>
<path style="opacity:0.8;fill:url(#SVGID_00000050623352269583005840000014635363664519815816_);" d="M317.07,767.5H0.5v-50.7
	c45.79-36.83,87.49-79.45,117.27-130.02C149.68,532.61,164,469,158.91,406.28c8.39,103.46,21.31,207.67,63.85,302.35
	c12.76-48.55,16.17-99.53,9.98-149.34C242.67,634.01,279.65,701.88,317.07,767.5z"/>
<linearGradient id="SVGID_00000164484059345931709000000006247021843640198546_" gradientUnits="userSpaceOnUse" x1="272.5" y1="697" x2="501.52" y2="697">
	<stop  offset="0" style="stop-color:#FFB700"/>
	<stop  offset="1" style="stop-color:#FFEA00"/>
</linearGradient>
<path style="opacity:0.8;fill:url(#SVGID_00000164484059345931709000000006247021843640198546_);" d="M501.52,767.5H336.76
	c-29.19-41.53-48.11-105.63-64.26-141C315.89,669.43,417.22,729.59,501.52,767.5z"/>
<linearGradient id="SVGID_00000119808462504753023730000013320252052564377762_" gradientUnits="userSpaceOnUse" x1="177.1706" y1="401.5" x2="199.5" y2="401.5">
	<stop  offset="0" style="stop-color:#FFB700"/>
	<stop  offset="1" style="stop-color:#FFEA00"/>
</linearGradient>
<path style="opacity:0.8;fill:url(#SVGID_00000119808462504753023730000013320252052564377762_);" d="M199.5,290.5
	c-8.56,20.43-17.66,48.63-21,83c-6.08,62.48,10.04,112.37,21,139c-5.93-38.81-9.84-85.04-8-137
	C192.6,344.61,195.57,316.16,199.5,290.5z"/>
<g>
	<g>
		<path class="st7" d="M293.41,227.58c-7.92,8.77-16.98,15.44-26.12,19.76c-6.65,3.14-13.34,5.04-19.66,5.58
			c-2.91,0.25-5.75,0.22-8.46-0.12c0.59-0.77,1.15-1.54,1.68-2.31c2.95-4.31,4.89-8.58,5.62-12.22c-4.16,1.29-9.04,4.32-13.67,8.69
			c-0.47-2.6-0.68-5.32-0.65-8.13c0.08-6.38,1.45-13.22,4.05-20.12c3.42-9.1,8.98-18.29,16.54-26.65
			c13.18-14.59,29.52-23.39,44.12-25.17c4.19-0.51,8.24-0.44,12.03,0.23c1.1,0.19,2.18,0.44,3.24,0.74
			c1.46,4.42,2.05,9.32,1.82,14.51C313.3,196.8,306.22,213.39,293.41,227.58z"/>
		<path class="st8" d="M289.14,224.51l-0.02,0.02c0.31,0.69,0.1,0.91-0.11,1.14c-0.14,0.16-0.29,0.32-0.44,0.48
			c-0.11,0.12-0.23,0.24-0.34,0.36c-0.19,0.2-0.38,0.4-0.57,0.6c-0.17,0.18-0.35,0.37-0.33,0.72l-0.02,0.02
			c-0.4,0.03-0.61,0.24-0.82,0.45c-0.21,0.21-0.42,0.43-0.64,0.64c-0.16,0.16-0.32,0.31-0.48,0.47c-0.27,0.26-0.54,0.52-0.81,0.78
			c-0.22,0.2-0.43,0.41-0.66,0.61c-0.19,0.18-0.39,0.36-0.58,0.54c-0.08,0.07-0.15,0.13-0.22,0.2c-0.17,0.16-0.34,0.31-0.51,0.46
			c-0.44,0.39-0.89,0.78-1.33,1.16c-0.44,0.37-0.88,0.74-1.32,1.1c-0.03,0.02-0.06,0.05-0.08,0.07c-0.2,0.17-0.41,0.33-0.62,0.5
			c-0.45,0.36-0.9,0.72-1.36,1.07c-0.43,0.33-0.86,0.66-1.3,0.98c-0.04,0.03-0.08,0.06-0.12,0.09c-0.21,0.16-0.43,0.31-0.64,0.47
			c-0.46,0.33-0.92,0.66-1.38,0.98s-0.93,0.64-1.39,0.94c-0.7,0.46-1.4,0.91-2.1,1.35c-8.44,5.23-17.21,8.45-25.42,9.45
			c-1.58,0.19-3.14,0.3-4.67,0.33c2.95-4.31,4.89-8.58,5.62-12.22c-4.16,1.29-9.04,4.32-13.67,8.69c-0.47-2.6-0.68-5.32-0.65-8.13
			c0.08-6.38,1.45-13.22,4.05-20.12c3.42-9.1,8.98-18.29,16.54-26.65c13.18-14.59,29.52-23.39,44.12-25.17
			c4.19-0.51,8.24-0.44,12.03,0.23c0.26,0.97,0.48,1.96,0.67,2.98c0.56,3.07,0.76,6.33,0.6,9.7c-0.32,7.21-2.26,14.97-5.71,22.69
			c-0.11,0.24-0.22,0.48-0.33,0.72c-0.23,0.48-0.45,0.97-0.68,1.45c-0.57,1.16-1.16,2.32-1.79,3.48c-0.04,0.08-0.08,0.14-0.12,0.21
			c-0.12,0.21-0.24,0.42-0.35,0.63c-0.13,0.23-0.25,0.45-0.38,0.67c-0.02,0.04-0.04,0.08-0.07,0.12c-0.66,1.15-1.36,2.3-2.09,3.44
			c-0.18,0.29-0.37,0.58-0.57,0.87c-0.13,0.2-0.26,0.39-0.39,0.59c-0.16,0.24-0.32,0.47-0.48,0.71c-0.32,0.47-0.65,0.94-0.98,1.41
			c-0.16,0.23-0.33,0.46-0.5,0.7c-0.16,0.23-0.34,0.46-0.51,0.7c-0.17,0.23-0.34,0.46-0.52,0.69c-0.17,0.23-0.35,0.46-0.53,0.69
			c-0.17,0.23-0.35,0.46-0.53,0.69c-0.2,0.25-0.39,0.5-0.59,0.74c-0.18,0.23-0.37,0.46-0.56,0.69c-0.12,0.15-0.25,0.3-0.37,0.44
			c-0.08,0.09-0.15,0.18-0.23,0.28c-0.12,0.14-0.25,0.29-0.37,0.43c-0.08,0.09-0.15,0.18-0.24,0.27c-0.14,0.17-0.29,0.33-0.43,0.5
			c-0.16,0.19-0.33,0.38-0.5,0.57C290.11,224.46,289.89,224.71,289.14,224.51z"/>
		<g>
			<circle class="st9" cx="287.11" cy="194.28" r="11.16"/>
			<path class="st10" d="M292.44,199.1c-2.66,2.94-7.2,3.17-10.15,0.51c-1.4-1.26-2.18-2.94-2.34-4.69
				c-0.17-1.92,0.43-3.92,1.82-5.46c2.66-2.95,7.21-3.18,10.15-0.52c1.07,0.97,1.78,2.19,2.12,3.49
				C294.66,194.71,294.13,197.23,292.44,199.1z"/>
			<g class="st11">
				<path class="st12" d="M292.23,197.9c-2.66,2.94-7.2,3.17-10.15,0.51c-1.07-0.97-1.79-2.19-2.13-3.49
					c-0.17-1.92,0.43-3.92,1.82-5.46c2.66-2.95,7.21-3.18,10.15-0.52c1.07,0.97,1.78,2.19,2.12,3.49
					C294.23,194.37,293.63,196.36,292.23,197.9z"/>
			</g>
			<path class="st13" d="M290.42,190.06c-0.26-0.21-1.86-1.44-4.05-1.1c-1.8,0.27-2.87,1.42-3.15,1.74"/>
		</g>
		<path class="st9" d="M245.32,289.72c0.26-0.3,1.59-1.91,3.08-4.48c2.94-5.1,6.48-13.97,3.39-23.96c-1.07-3.44-2.69-6.28-4.43-8.57
			c5.53-0.47,11.34-1.98,17.16-4.45c0.83-0.36,1.67-0.73,2.51-1.13c1.4,3.74,2.55,8.78,1.88,14.57
			C267.46,274.06,258.27,284.79,245.32,289.72z"/>
		<path class="st9" d="M236.3,256.16c-5.49,6.07-11.67,10.29-16.78,11.87c0.2-1,0.49-2.04,0.87-3.11c1.61-4.61,4.8-9.86,9.25-14.78
			c1.02-1.13,2.06-2.19,3.12-3.18c3.55-3.35,7.25-5.92,10.65-7.51c1.04-0.48,2.04-0.88,3.01-1.18c-0.86,4.28-3.41,9.46-7.31,14.53
			C238.24,253.92,237.3,255.05,236.3,256.16z"/>
		<path class="st9" d="M232.42,239.11c-2.52-1.6-5.64-3.03-9.34-3.78c-15.42-3.12-26.83,8.45-27.65,9.3
			c0.86-3.19,2.06-6.2,3.57-8.96c0.25-0.46,0.51-0.92,0.78-1.37c0,0,0,0,0,0c3.84-6.45,9.35-11.46,15.83-14.24
			c0.02-0.01,0.03-0.02,0.05-0.02c1.27-0.54,2.58-0.99,3.91-1.36c0.22-0.06,0.44-0.12,0.66-0.17c0.23-0.06,0.46-0.11,0.69-0.16
			c6.12-1.35,11.59-0.51,15.54,0.64c-1.81,4.82-3.03,9.6-3.63,14.22C232.59,235.22,232.44,237.18,232.42,239.11z"/>
		<path class="st14" d="M248.4,285.24c2.94-5.1,6.48-13.97,3.39-23.96c-1.07-3.44-2.69-6.28-4.43-8.57
			c5.53-0.47,11.34-1.98,17.16-4.45c0.97,3.37,1.58,7.48,1.05,12.05C264.37,270.51,257.91,279.61,248.4,285.24z"/>
		<path class="st14" d="M234.15,254.22c-4.45,4.92-9.35,8.62-13.77,10.69c1.61-4.61,4.8-9.86,9.25-14.78
			c1.02-1.13,2.06-2.19,3.12-3.18c3.55-3.35,7.25-5.92,10.65-7.51c-1.25,3.57-3.44,7.52-6.43,11.41
			C236.1,251.99,235.16,253.11,234.15,254.22z"/>
		<path class="st14" d="M232.53,232.92c-1.87-0.89-10.58-3.9-12.97-3.95c-11.42-0.22-16.35,2.48-20.09,5.04
			c3.84-6.45,9.35-11.46,15.83-14.24c0.02-0.01,0.03-0.02,0.05-0.02c1.32-0.55,2.64-1,3.91-1.36c0.22-0.06,0.44-0.12,0.66-0.17
			c0.23-0.06,0.46-0.11,0.69-0.16c6.12-1.35,11.59-0.51,15.54,0.64C234.34,223.52,233.12,228.3,232.53,232.92z"/>
		<g>
			
				<ellipse transform="matrix(0.6705 -0.7419 0.7419 0.6705 -68.6901 270.7573)" class="st9" cx="270.46" cy="212.71" rx="6.89" ry="6.89"/>
			<path class="st10" d="M273.76,215.68c-1.64,1.82-4.45,1.96-6.27,0.32c-0.86-0.78-1.35-1.82-1.44-2.9
				c-0.11-1.19,0.26-2.42,1.13-3.37c1.64-1.82,4.45-1.96,6.27-0.32c0.66,0.6,1.1,1.35,1.31,2.15
				C275.12,212.97,274.8,214.53,273.76,215.68z"/>
			<g class="st11">
				<path class="st12" d="M273.62,214.94c-1.64,1.82-4.45,1.96-6.27,0.32c-0.66-0.6-1.1-1.35-1.31-2.15
					c-0.11-1.19,0.26-2.42,1.13-3.37c1.64-1.82,4.45-1.96,6.27-0.32c0.66,0.6,1.1,1.35,1.31,2.15
					C274.86,212.76,274.49,213.99,273.62,214.94z"/>
			</g>
			<path class="st13" d="M272.51,210.1c-0.16-0.13-1.15-0.89-2.5-0.68c-1.11,0.17-1.77,0.88-1.95,1.08"/>
		</g>
		<path class="st9" d="M313.96,182.33c-3.14-1.83-6.27-4.12-9.26-6.82c-3.04-2.75-5.66-5.68-7.82-8.67
			c5.41-0.66,10.37-0.49,15.27,0.98C313.6,172.24,314.24,177.08,313.96,182.33z"/>
	</g>
</g>
</svg>
