<?xml version="1.0" encoding="utf-8"?>
<!-- Generator: Adobe Illustrator 27.4.1, SVG Export Plug-In . SVG Version: 6.00 Build 0)  -->
<svg version="1.1" id="Layer_1" xmlns="http://www.w3.org/2000/svg" xmlns:xlink="http://www.w3.org/1999/xlink" x="0px" y="0px"
	 viewBox="0 0 32 32" style="enable-background:new 0 0 32 32;" xml:space="preserve">
<style type="text/css">
	.st0{fill:#FFFFFF;stroke:#1D1D1B;stroke-width:0.3612;stroke-miterlimit:10;}
	.st1{fill:none;stroke:#006633;stroke-width:0.1204;stroke-miterlimit:10;}
	.st2{fill:#1A041C;}
	.st3{fill:#220025;}
	.st4{fill:#FBAF17;stroke:#1D1D1B;stroke-width:0.1204;stroke-miterlimit:10;}
	.st5{fill:#F3F0F9;}
	.st6{fill:#FFF386;stroke:#1D1D1B;stroke-width:0.1204;stroke-miterlimit:10;}
</style>
<path class="st0" d="M28.08,15.83c-0.04-0.28-0.09-0.55-0.15-0.82c-0.14-0.61-0.32-1.2-0.56-1.77C25.59,8.9,21.1,5.82,15.85,5.82
	c-0.1,0-0.19,0-0.28,0c-0.08,0-0.16,0-0.25,0.01c-0.06,0-0.12,0-0.18,0.01c-0.06,0-0.13,0.01-0.19,0.01c-0.07,0-0.14,0.01-0.21,0.02
	c-0.04,0-0.08,0.01-0.12,0.01c-0.09,0.01-0.17,0.02-0.26,0.03c-0.16,0.02-0.33,0.04-0.49,0.07c-0.01,0-0.02,0-0.03,0
	c0,0-0.01,0-0.02,0C13.75,5.99,13.67,6,13.6,6.02c-0.04,0.01-0.07,0.01-0.11,0.02c-0.06,0.01-0.11,0.02-0.17,0.03
	c-0.02,0-0.04,0.01-0.06,0.01c-0.07,0.01-0.13,0.03-0.2,0.04c-0.07,0.02-0.15,0.03-0.22,0.05c0,0-0.01,0-0.02,0
	c-0.04,0.01-0.08,0.02-0.12,0.03c-0.16,0.04-0.32,0.08-0.47,0.13c-0.06,0.02-0.12,0.03-0.18,0.05c-0.07,0.02-0.13,0.04-0.19,0.06
	c-0.05,0.01-0.1,0.03-0.14,0.05c-0.03,0.01-0.05,0.02-0.07,0.03c-0.07,0.02-0.14,0.05-0.21,0.07c-0.01,0-0.03,0.01-0.04,0.02
	c-0.05,0.02-0.1,0.04-0.15,0.06c-0.04,0.02-0.08,0.03-0.13,0.05c-0.07,0.03-0.14,0.05-0.2,0.08c-0.08,0.03-0.15,0.06-0.23,0.1
	c-0.07,0.03-0.14,0.06-0.21,0.1c-0.03,0.01-0.06,0.03-0.08,0.04c-0.03,0.01-0.06,0.03-0.08,0.04c-0.06,0.03-0.13,0.06-0.19,0.09
	c-0.05,0.02-0.09,0.05-0.14,0.07C9.95,7.23,9.93,7.24,9.92,7.24C9.88,7.27,9.84,7.29,9.8,7.31C9.79,7.31,9.78,7.32,9.77,7.32
	C9.73,7.34,9.69,7.37,9.65,7.39c0,0-0.01,0-0.01,0.01C9.56,7.44,9.5,7.47,9.43,7.51C9.36,7.55,9.28,7.59,9.22,7.64
	C9.09,7.71,8.96,7.79,8.84,7.87C8.79,7.9,8.75,7.93,8.71,7.96c0,0,0,0-0.01,0C8.67,7.98,8.63,8.01,8.6,8.03c0,0-0.01,0.01-0.01,0.01
	C8.55,8.06,8.52,8.09,8.48,8.11c-0.05,0.03-0.1,0.07-0.16,0.11c-0.07,0.05-0.14,0.1-0.21,0.16c-0.07,0.05-0.13,0.1-0.2,0.16
	c0,0-0.01,0-0.01,0.01C7.83,8.6,7.76,8.65,7.7,8.71C7.64,8.75,7.59,8.8,7.53,8.85C7.5,8.87,7.47,8.9,7.44,8.93
	c-0.05,0.04-0.1,0.08-0.14,0.13C7.23,9.11,7.17,9.17,7.1,9.23c-0.01,0-0.01,0.01-0.01,0.01C7.04,9.29,7,9.33,6.96,9.37
	C6.94,9.39,6.91,9.42,6.89,9.44C6.83,9.5,6.78,9.55,6.73,9.6c0,0-0.01,0.01-0.01,0.01C6.66,9.67,6.6,9.73,6.55,9.79
	C6.5,9.84,6.46,9.89,6.41,9.94C6.4,9.95,6.4,9.96,6.39,9.97c-0.04,0.05-0.08,0.1-0.13,0.14c-0.03,0.04-0.07,0.08-0.1,0.12
	c0,0-0.01,0.01-0.01,0.01c-0.04,0.05-0.08,0.09-0.11,0.14c-0.04,0.04-0.07,0.09-0.11,0.14c0,0,0,0-0.01,0.01
	c-0.02,0.03-0.05,0.06-0.07,0.09c-0.05,0.06-0.09,0.12-0.14,0.18c-0.07,0.09-0.13,0.18-0.19,0.27c-0.03,0.05-0.06,0.09-0.1,0.14
	c-0.03,0.05-0.07,0.11-0.11,0.16c-0.03,0.04-0.05,0.08-0.08,0.12v0c-0.02,0.04-0.05,0.08-0.07,0.12c-0.03,0.05-0.06,0.1-0.09,0.15
	c-0.03,0.05-0.06,0.1-0.09,0.15c-0.07,0.13-0.15,0.26-0.22,0.39c-0.03,0.05-0.05,0.1-0.08,0.15c0,0.01-0.01,0.02-0.01,0.03
	c0,0.01-0.01,0.02-0.01,0.03c0,0,0,0,0,0.01c-0.03,0.05-0.05,0.1-0.07,0.15c0,0,0,0.01-0.01,0.01c0,0.01-0.01,0.02-0.02,0.03
	c-0.03,0.06-0.06,0.12-0.08,0.18c-0.03,0.06-0.05,0.12-0.08,0.17c-0.02,0.04-0.03,0.08-0.05,0.12c-0.02,0.04-0.04,0.09-0.05,0.13
	c-0.03,0.07-0.06,0.15-0.09,0.22c-0.03,0.08-0.06,0.16-0.09,0.24c-0.01,0.04-0.03,0.07-0.04,0.11c-0.01,0.03-0.02,0.07-0.03,0.1
	c-0.01,0.03-0.02,0.07-0.03,0.1C4,14.15,3.99,14.19,3.98,14.23c-0.01,0.04-0.03,0.09-0.04,0.13c0,0,0,0,0,0
	c0,0.02-0.01,0.03-0.01,0.05c-0.02,0.07-0.04,0.13-0.05,0.2c0,0.01,0,0.02-0.01,0.03c0,0.02-0.01,0.03-0.01,0.05
	c0,0.01,0,0.02,0,0.02c-0.02,0.06-0.03,0.12-0.04,0.18c-0.01,0.03-0.02,0.06-0.02,0.1c0,0.02-0.01,0.04-0.02,0.07
	c-0.01,0.04-0.01,0.07-0.02,0.11c0,0.01,0,0.01,0,0.02c0,0.02-0.01,0.05-0.01,0.07c-0.01,0.06-0.02,0.12-0.03,0.18
	c-0.01,0.05-0.02,0.11-0.03,0.16c-0.01,0.07-0.02,0.15-0.03,0.22c0-0.76,0.08-1.5,0.23-2.22c0.22-1.07,0.6-2.09,1.11-3.03
	c2.02-3.74,6.14-6.31,10.89-6.31c0.09,0,0.18,0,0.28,0c5.74,0.12,10.51,3.99,11.68,9.11c0.1,0.44,0.17,0.89,0.22,1.34
	C28.06,15.09,28.08,15.46,28.08,15.83z"/>
<path class="st1" d="M25.82,22.82c0.09-0.11,0.18-0.22,0.27-0.33C26,22.61,25.91,22.71,25.82,22.82z"/>
<path class="st0" d="M28.08,15.84L28.08,15.84c-0.04-0.28-0.09-0.56-0.15-0.83c-0.14-0.61-0.32-1.2-0.56-1.77
	C25.59,8.9,21.1,5.82,15.85,5.82c-0.1,0-0.19,0-0.28,0c-0.08,0-0.16,0-0.25,0.01c-0.06,0-0.12,0-0.18,0.01
	c-0.06,0-0.13,0.01-0.19,0.01c-0.07,0-0.14,0.01-0.21,0.02c-0.04,0-0.08,0.01-0.12,0.01c-0.09,0.01-0.17,0.02-0.26,0.03
	c-0.16,0.02-0.33,0.04-0.49,0.07c-0.01,0-0.02,0-0.03,0c0,0-0.01,0-0.02,0C13.75,5.99,13.67,6,13.6,6.02
	c-0.04,0.01-0.07,0.01-0.11,0.02c-0.06,0.01-0.11,0.02-0.17,0.03c-0.02,0-0.04,0.01-0.06,0.01c-0.07,0.01-0.13,0.03-0.2,0.04
	c-0.07,0.02-0.15,0.03-0.22,0.05c0,0-0.01,0-0.02,0c-0.04,0.01-0.08,0.02-0.12,0.03c-0.16,0.04-0.32,0.08-0.47,0.13
	c-0.06,0.02-0.12,0.03-0.18,0.05c-0.07,0.02-0.13,0.04-0.19,0.06c-0.05,0.01-0.1,0.03-0.14,0.05c-0.03,0.01-0.05,0.02-0.07,0.03
	c-0.07,0.02-0.14,0.05-0.21,0.07c-0.01,0-0.03,0.01-0.04,0.02c-0.05,0.02-0.1,0.04-0.15,0.06c-0.04,0.02-0.08,0.03-0.13,0.05
	c-0.07,0.03-0.14,0.05-0.2,0.08c-0.08,0.03-0.15,0.06-0.23,0.1c-0.07,0.03-0.14,0.06-0.21,0.1c-0.03,0.01-0.06,0.03-0.08,0.04
	c-0.03,0.01-0.06,0.03-0.08,0.04c-0.06,0.03-0.13,0.06-0.19,0.09c-0.05,0.02-0.09,0.05-0.14,0.07C9.95,7.23,9.93,7.24,9.92,7.24
	C9.88,7.27,9.84,7.29,9.8,7.31C9.79,7.31,9.78,7.32,9.77,7.32C9.73,7.34,9.69,7.37,9.65,7.39c0,0-0.01,0-0.01,0.01
	C9.56,7.44,9.5,7.47,9.43,7.51C9.36,7.55,9.28,7.59,9.22,7.64C9.09,7.71,8.96,7.79,8.84,7.87C8.79,7.9,8.75,7.93,8.71,7.96
	c0,0,0,0-0.01,0C8.67,7.98,8.63,8.01,8.6,8.03c0,0-0.01,0.01-0.01,0.01C8.55,8.06,8.52,8.09,8.48,8.11
	c-0.05,0.03-0.1,0.07-0.16,0.11c-0.07,0.05-0.14,0.1-0.21,0.16c-0.07,0.05-0.13,0.1-0.2,0.16c0,0-0.01,0-0.01,0.01
	C7.83,8.6,7.76,8.65,7.7,8.71C7.64,8.75,7.59,8.8,7.53,8.85C7.5,8.87,7.47,8.9,7.44,8.93c-0.05,0.04-0.1,0.08-0.14,0.13
	C7.23,9.11,7.17,9.17,7.1,9.23c-0.01,0-0.01,0.01-0.01,0.01C7.04,9.29,7,9.33,6.96,9.37C6.94,9.39,6.91,9.42,6.89,9.44
	C6.83,9.5,6.78,9.55,6.73,9.6c0,0-0.01,0.01-0.01,0.01C6.66,9.67,6.6,9.73,6.55,9.79C6.5,9.84,6.46,9.89,6.41,9.94
	C6.4,9.95,6.4,9.96,6.39,9.97c-0.04,0.05-0.08,0.1-0.13,0.14c-0.03,0.04-0.07,0.08-0.1,0.12c0,0-0.01,0.01-0.01,0.01
	c-0.04,0.05-0.08,0.09-0.11,0.14c-0.04,0.04-0.07,0.09-0.11,0.14c0,0,0,0-0.01,0.01c-0.02,0.03-0.05,0.06-0.07,0.09
	c-0.05,0.06-0.09,0.12-0.14,0.18c-0.07,0.09-0.13,0.18-0.19,0.27c-0.03,0.05-0.06,0.09-0.1,0.14c-0.03,0.05-0.07,0.11-0.11,0.16
	c-0.03,0.04-0.05,0.08-0.08,0.12v0c-0.02,0.04-0.05,0.08-0.07,0.12c-0.03,0.05-0.06,0.1-0.09,0.15c-0.03,0.05-0.06,0.1-0.09,0.15
	c-0.07,0.13-0.15,0.26-0.22,0.39c-0.03,0.05-0.05,0.1-0.08,0.15c0,0.01-0.01,0.02-0.01,0.03c0,0.01-0.01,0.02-0.01,0.03
	c0,0,0,0,0,0.01c-0.03,0.05-0.05,0.1-0.07,0.15c0,0,0,0.01-0.01,0.01c0,0.01-0.01,0.02-0.02,0.03c-0.03,0.06-0.06,0.12-0.08,0.18
	c-0.03,0.06-0.05,0.12-0.08,0.17c-0.02,0.04-0.03,0.08-0.05,0.12c-0.02,0.04-0.04,0.09-0.05,0.13c-0.03,0.07-0.06,0.15-0.09,0.22
	c-0.03,0.08-0.06,0.16-0.09,0.24c-0.01,0.04-0.03,0.07-0.04,0.11c-0.01,0.03-0.02,0.07-0.03,0.1c-0.01,0.03-0.02,0.07-0.03,0.1
	C4,14.15,3.99,14.19,3.98,14.23c-0.01,0.04-0.03,0.09-0.04,0.13c0,0,0,0,0,0c0,0.02-0.01,0.03-0.01,0.05
	c-0.02,0.07-0.04,0.13-0.05,0.2c0,0.01,0,0.02-0.01,0.03c0,0.02-0.01,0.03-0.01,0.05c0,0.01,0,0.02,0,0.02
	c-0.02,0.06-0.03,0.12-0.04,0.18c-0.01,0.03-0.02,0.06-0.02,0.1c0,0.02-0.01,0.04-0.02,0.07c-0.01,0.04-0.01,0.07-0.02,0.11
	c0,0.01,0,0.01,0,0.02c0,0.02-0.01,0.05-0.01,0.07c-0.01,0.06-0.02,0.12-0.03,0.18c-0.01,0.05-0.02,0.11-0.03,0.16
	c-0.01,0.07-0.02,0.15-0.03,0.22v0c-0.01,0.07-0.02,0.13-0.03,0.2c-0.06,0.44-0.08,0.89-0.08,1.35c0,2.13,0.62,4.12,1.69,5.84
	c2.14,3.42,6.11,5.72,10.65,5.72c4.63,0,8.66-2.39,10.77-5.92c1-1.67,1.57-3.59,1.57-5.64C28.19,16.86,28.15,16.34,28.08,15.84z
	 M15.85,27.1c-0.12,0-0.24,0-0.36,0c-3.76-0.08-7.09-1.56-9.26-3.83c-1.63-1.7-2.6-3.85-2.6-6.18c0-0.23,0.01-0.46,0.03-0.69
	c0,0,0,0,0,0c0.08-1,0.35-1.97,0.76-2.87c1.75-3.77,6.19-6.45,11.4-6.45c0.09,0,0.19,0,0.28,0c0.08,0,0.16,0,0.24,0.01
	c0.07,0,0.14,0,0.21,0.01c0.06,0,0.11,0,0.17,0.01c0.16,0.01,0.33,0.02,0.49,0.04c0.09,0.01,0.17,0.02,0.26,0.03
	c0.09,0.01,0.18,0.02,0.27,0.03c0.08,0.01,0.16,0.02,0.24,0.03c0.1,0.01,0.21,0.03,0.31,0.05c0.06,0.01,0.12,0.02,0.18,0.03
	c0.2,0.04,0.4,0.08,0.6,0.12c0.08,0.02,0.16,0.04,0.23,0.06c0.26,0.06,0.51,0.13,0.75,0.21l0.13,0.04c0.21,0.07,0.43,0.14,0.63,0.22
	C20.9,7.98,20.98,8,21.05,8.03c0.08,0.03,0.16,0.06,0.23,0.09c0.09,0.03,0.17,0.07,0.25,0.11c0.07,0.03,0.14,0.06,0.21,0.09
	c0,0,0,0,0.01,0c0.06,0.03,0.13,0.06,0.19,0.09c0.33,0.16,0.64,0.32,0.95,0.5c0.05,0.03,0.1,0.06,0.16,0.09
	c0.01,0.01,0.02,0.01,0.03,0.02c0.14,0.08,0.27,0.17,0.4,0.25c0,0,0.01,0,0.01,0.01c0.06,0.04,0.13,0.08,0.19,0.13
	c0.07,0.05,0.13,0.09,0.2,0.14C23.94,9.61,24,9.66,24.07,9.7c0.06,0.05,0.13,0.1,0.19,0.15c0.05,0.04,0.1,0.08,0.14,0.12
	c0.18,0.14,0.35,0.29,0.51,0.44c0.04,0.04,0.08,0.07,0.12,0.11c0.07,0.06,0.13,0.13,0.2,0.19c0.04,0.03,0.07,0.07,0.11,0.11
	c0.09,0.09,0.18,0.19,0.27,0.28c0.04,0.04,0.08,0.08,0.11,0.12c0.01,0.01,0.02,0.02,0.03,0.03c0.03,0.03,0.06,0.07,0.09,0.1
	c0.1,0.12,0.2,0.24,0.29,0.36c0.07,0.09,0.14,0.18,0.21,0.28c0.04,0.05,0.07,0.1,0.11,0.16c0.03,0.05,0.06,0.09,0.09,0.14
	c0.01,0.01,0.02,0.03,0.03,0.04c0.03,0.04,0.05,0.08,0.08,0.12c0.01,0.01,0.01,0.02,0.02,0.03c0.03,0.05,0.06,0.1,0.09,0.15
	c0.07,0.11,0.13,0.22,0.19,0.33c0.03,0.05,0.06,0.1,0.08,0.15c0,0,0,0.01,0.01,0.01c0,0,0,0,0,0c0.02,0.04,0.04,0.08,0.06,0.12
	c0.04,0.08,0.09,0.17,0.13,0.26c0.02,0.04,0.04,0.09,0.06,0.13c0.04,0.09,0.08,0.19,0.12,0.29c0.02,0.04,0.03,0.07,0.04,0.11
	c0.02,0.04,0.03,0.09,0.05,0.13c0.01,0.03,0.03,0.07,0.04,0.1c0.02,0.06,0.04,0.11,0.06,0.17c0.02,0.06,0.04,0.12,0.06,0.18
	c0.02,0.06,0.03,0.11,0.05,0.17c0.01,0.03,0.02,0.06,0.03,0.09c0.01,0.05,0.03,0.1,0.04,0.16c0.02,0.08,0.04,0.16,0.06,0.23v0
	c0,0.01,0.01,0.03,0.01,0.04c0.13,0.57,0.19,1.17,0.19,1.77c0,0.08,0,0.15,0,0.23c0,0.06,0,0.11-0.01,0.17c0,0.01,0,0.02,0,0.03
	c0,0.06-0.01,0.12-0.01,0.18c0,0.03,0,0.06-0.01,0.09c0,0.03,0,0.07-0.01,0.1c0,0.05-0.01,0.09-0.02,0.14c0,0.03-0.01,0.07-0.01,0.1
	c0,0,0,0.01,0,0.01c-0.02,0.14-0.04,0.28-0.06,0.41c0,0.01,0,0.01,0,0.02c-0.01,0.04-0.01,0.08-0.02,0.11
	c-0.01,0.05-0.02,0.09-0.03,0.14c0,0.02-0.01,0.04-0.01,0.07c-0.01,0.07-0.03,0.13-0.05,0.2c0,0.01,0,0.01,0,0.02
	c-0.01,0.05-0.02,0.1-0.04,0.14c-0.01,0.04-0.02,0.07-0.03,0.11c-0.02,0.07-0.04,0.13-0.06,0.2c-0.01,0.04-0.03,0.08-0.04,0.13
	c-0.01,0.03-0.02,0.07-0.03,0.1c-0.01,0.03-0.02,0.07-0.04,0.1c-0.02,0.05-0.04,0.1-0.06,0.16c0,0.01-0.01,0.02-0.01,0.03
	c-0.03,0.07-0.05,0.13-0.08,0.19c-0.09,0.22-0.18,0.43-0.29,0.64c-0.03,0.06-0.06,0.12-0.09,0.18c0,0,0,0.01,0,0.01
	c-0.03,0.06-0.06,0.12-0.1,0.18c-0.03,0.06-0.07,0.12-0.1,0.18c-0.04,0.06-0.08,0.13-0.12,0.19c-0.04,0.07-0.08,0.13-0.13,0.2
	c-0.04,0.06-0.07,0.11-0.11,0.17c-0.03,0.05-0.07,0.09-0.1,0.14c0,0.01-0.01,0.01-0.02,0.02c-0.04,0.05-0.07,0.1-0.11,0.15
	c-0.01,0.01-0.02,0.03-0.03,0.04c-0.03,0.05-0.07,0.09-0.11,0.14c-0.09,0.11-0.18,0.22-0.27,0.33c-0.04,0.05-0.09,0.1-0.13,0.15
	c0,0.01-0.01,0.02-0.02,0.02c-0.03,0.04-0.07,0.08-0.11,0.12c-0.01,0.01-0.01,0.02-0.02,0.03c0,0,0,0-0.01,0.01
	c-0.01,0.01-0.02,0.02-0.03,0.03c-0.05,0.05-0.09,0.1-0.15,0.15c-0.02,0.02-0.04,0.04-0.06,0.06c-0.05,0.05-0.11,0.11-0.16,0.16
	c-0.02,0.02-0.03,0.03-0.05,0.05c-0.07,0.07-0.14,0.13-0.21,0.2c-0.06,0.05-0.11,0.1-0.17,0.15c-0.02,0.02-0.04,0.03-0.05,0.05
	c-0.03,0.03-0.06,0.05-0.09,0.08c-0.05,0.05-0.11,0.09-0.16,0.14c-0.07,0.06-0.15,0.12-0.22,0.18l-0.07,0.06
	c-0.07,0.05-0.14,0.1-0.21,0.16c-0.09,0.06-0.17,0.12-0.26,0.18c-0.09,0.06-0.18,0.12-0.27,0.18c-0.1,0.07-0.21,0.13-0.31,0.2
	c-0.08,0.05-0.16,0.1-0.24,0.14c0,0-0.01,0.01-0.01,0.01c-0.09,0.05-0.18,0.1-0.28,0.16h0c-0.09,0.05-0.17,0.09-0.26,0.14
	c-0.02,0.01-0.03,0.02-0.05,0.03c-0.07,0.04-0.14,0.07-0.22,0.11c-0.15,0.07-0.31,0.15-0.47,0.21c-0.06,0.03-0.12,0.05-0.19,0.08
	c-0.26,0.11-0.53,0.21-0.81,0.31c-0.08,0.03-0.16,0.05-0.24,0.08c-0.07,0.02-0.14,0.04-0.21,0.07c-0.01,0-0.03,0.01-0.04,0.01
	c-0.03,0.01-0.07,0.02-0.1,0.03c-0.07,0.02-0.14,0.04-0.21,0.06c-0.01,0-0.01,0-0.02,0c-0.09,0.02-0.18,0.05-0.27,0.07
	c-0.08,0.02-0.16,0.04-0.24,0.06c-0.03,0.01-0.06,0.01-0.09,0.02c-0.08,0.02-0.17,0.04-0.25,0.06c-0.1,0.02-0.2,0.04-0.29,0.06
	c-0.08,0.01-0.15,0.03-0.23,0.04c-0.04,0.01-0.07,0.01-0.11,0.02c-0.06,0.01-0.13,0.02-0.19,0.03c-0.02,0-0.03,0.01-0.05,0.01
	c-0.06,0.01-0.12,0.02-0.18,0.02c-0.06,0.01-0.12,0.02-0.18,0.02c-0.06,0.01-0.12,0.01-0.18,0.02c-0.06,0.01-0.12,0.01-0.18,0.02
	c-0.09,0.01-0.17,0.02-0.26,0.02c-0.07,0.01-0.15,0.01-0.23,0.02c-0.12,0.01-0.25,0.01-0.37,0.02c-0.1,0-0.19,0.01-0.28,0.01
	C16.05,27.1,15.95,27.1,15.85,27.1z"/>
<path class="st2" d="M28.03,16.85c0,0.08,0,0.15,0,0.23c0,0.06,0,0.12-0.01,0.18c0,0.01,0,0.02,0,0.03c0,0.06-0.01,0.12-0.01,0.18
	c0,0.03,0,0.06-0.01,0.09c0,0.04-0.01,0.07-0.01,0.11c0,0.05-0.01,0.09-0.02,0.14c0,0.03-0.01,0.07-0.01,0.1c0,0,0,0.01,0,0.01
	c-0.02,0.14-0.04,0.28-0.06,0.42c0,0.01,0,0.01,0,0.02c-0.01,0.04-0.01,0.08-0.02,0.12c-0.01,0.05-0.02,0.09-0.03,0.14
	c0,0.02-0.01,0.05-0.01,0.07c-0.01,0.07-0.03,0.14-0.05,0.21c0,0.01,0,0.01-0.01,0.02c-0.01,0.05-0.02,0.1-0.04,0.15
	c-0.01,0.04-0.02,0.07-0.03,0.11c-0.02,0.07-0.04,0.14-0.06,0.2c-0.01,0.04-0.03,0.09-0.04,0.13c-0.01,0.03-0.02,0.07-0.03,0.1
	c-0.01,0.04-0.02,0.07-0.04,0.11c-0.02,0.05-0.04,0.11-0.06,0.16c0,0.01-0.01,0.02-0.01,0.03c-0.02,0.07-0.05,0.13-0.08,0.2
	c-0.09,0.22-0.18,0.44-0.29,0.65c-0.03,0.06-0.06,0.12-0.09,0.18c0,0,0,0.01-0.01,0.01c-0.03,0.06-0.06,0.12-0.1,0.18
	c-0.03,0.06-0.07,0.12-0.1,0.18c-0.04,0.07-0.08,0.13-0.12,0.19c-0.04,0.07-0.08,0.13-0.13,0.2c-0.04,0.06-0.07,0.12-0.11,0.18
	c-0.03,0.05-0.06,0.09-0.1,0.14c-0.01,0.01-0.01,0.01-0.02,0.02c-0.04,0.05-0.07,0.1-0.11,0.15c-0.01,0.01-0.02,0.03-0.03,0.04
	c-0.03,0.05-0.07,0.09-0.11,0.14c-0.09,0.11-0.18,0.23-0.27,0.34c-0.04,0.05-0.09,0.1-0.13,0.15c-0.01,0.01-0.01,0.02-0.02,0.02
	c-0.04,0.04-0.07,0.08-0.11,0.12c-0.01,0.01-0.01,0.02-0.02,0.03h0c0,0,0,0.01-0.01,0.01c-0.01,0.01-0.02,0.02-0.03,0.03
	c-0.05,0.05-0.1,0.1-0.15,0.16c-0.02,0.02-0.04,0.04-0.06,0.07c-0.05,0.05-0.11,0.11-0.16,0.16c-0.02,0.02-0.03,0.03-0.05,0.05
	c-0.07,0.07-0.14,0.14-0.21,0.2c-0.05,0.05-0.11,0.1-0.17,0.15c-0.02,0.02-0.04,0.03-0.05,0.05c-0.03,0.03-0.06,0.05-0.09,0.08
	c-0.05,0.05-0.11,0.1-0.17,0.14c-0.07,0.06-0.15,0.12-0.22,0.18l-0.07,0.06c-0.07,0.05-0.14,0.11-0.21,0.16
	c-0.09,0.06-0.17,0.13-0.26,0.19c-0.09,0.06-0.18,0.12-0.27,0.18c-0.1,0.07-0.21,0.13-0.31,0.2c-0.08,0.05-0.16,0.1-0.24,0.14
	c0,0-0.01,0.01-0.01,0.01c-0.09,0.05-0.18,0.11-0.28,0.16h0c-0.09,0.05-0.18,0.1-0.26,0.14c-0.02,0.01-0.03,0.02-0.05,0.03
	c-0.07,0.04-0.14,0.07-0.22,0.11c-0.15,0.08-0.31,0.15-0.47,0.22c-0.06,0.03-0.12,0.06-0.19,0.08c-0.26,0.11-0.53,0.22-0.81,0.31
	c-0.08,0.03-0.16,0.05-0.24,0.08c-0.07,0.02-0.14,0.05-0.21,0.07c-0.01,0-0.03,0.01-0.04,0.01c-0.03,0.01-0.07,0.02-0.1,0.03
	c-0.07,0.02-0.14,0.04-0.21,0.06c-0.01,0-0.01,0-0.02,0.01c-0.09,0.03-0.18,0.05-0.27,0.07c-0.08,0.02-0.16,0.04-0.24,0.06
	c-0.03,0.01-0.06,0.01-0.09,0.02c-0.08,0.02-0.17,0.04-0.25,0.06c-0.1,0.02-0.19,0.04-0.29,0.06c-0.07,0.01-0.15,0.03-0.23,0.04
	c-0.04,0.01-0.07,0.01-0.11,0.02c-0.06,0.01-0.13,0.02-0.19,0.03c-0.02,0-0.03,0.01-0.05,0.01c-0.06,0.01-0.12,0.02-0.18,0.03
	c-0.06,0.01-0.12,0.02-0.18,0.02C17.59,26.99,17.53,27,17.47,27c-0.06,0.01-0.12,0.01-0.18,0.02c-0.09,0.01-0.17,0.02-0.26,0.02
	c-0.07,0.01-0.15,0.01-0.23,0.02c-0.12,0.01-0.25,0.01-0.37,0.02c-0.1,0-0.19,0.01-0.29,0.01h-0.02c-0.1,0-0.2,0-0.3,0
	c-3.9,0-7.37-1.53-9.6-3.92c-1.63-1.74-2.6-3.94-2.6-6.32c0-0.24,0.01-0.47,0.03-0.71c0.03,0.15,0.06,0.29,0.09,0.44
	c0.69,2.8,2.98,4.88,6.01,5.89c2.48,0.83,5.46,0.94,8.5,0.15c2.38-0.62,4.47-1.7,6.13-3.07v0c1.59-1.31,2.78-2.89,3.44-4.56
	C27.96,15.6,28.03,16.22,28.03,16.85z"/>
<path class="st3" d="M27.82,15.65L27.82,15.65c-0.66,1.71-1.85,3.32-3.44,4.66v0c-1.66,1.4-3.75,2.51-6.13,3.14
	c-3.04,0.81-6.02,0.69-8.5-0.16c-3.04-1.03-5.32-3.16-6.01-6.03c-0.04-0.15-0.07-0.3-0.09-0.45c0,0,0,0,0,0
	c0.08-1.05,0.35-2.06,0.76-3c1.75-3.95,6.2-6.75,11.4-6.75c0.09,0,0.19,0,0.28,0c0.08,0,0.16,0,0.24,0.01
	c0.07,0,0.14,0.01,0.21,0.01c0.06,0,0.11,0.01,0.17,0.01c0.17,0.01,0.33,0.02,0.49,0.04c0.09,0.01,0.17,0.02,0.26,0.03
	c0.09,0.01,0.18,0.02,0.27,0.03c0.08,0.01,0.16,0.02,0.24,0.03c0.1,0.02,0.21,0.03,0.31,0.05c0.06,0.01,0.12,0.02,0.18,0.03
	c0.2,0.04,0.4,0.08,0.6,0.13c0.08,0.02,0.16,0.04,0.23,0.06c0.25,0.06,0.51,0.14,0.75,0.22c0.04,0.01,0.09,0.03,0.13,0.04
	c0.21,0.07,0.43,0.15,0.63,0.23c0.07,0.03,0.15,0.06,0.22,0.09c0.08,0.03,0.16,0.06,0.23,0.1c0.09,0.04,0.17,0.07,0.25,0.11
	c0.07,0.03,0.14,0.06,0.21,0.1c0,0,0,0,0.01,0c0.06,0.03,0.13,0.06,0.19,0.09c0.33,0.16,0.64,0.34,0.95,0.52
	c0.05,0.03,0.1,0.06,0.16,0.1c0.01,0.01,0.02,0.01,0.03,0.02c0.14,0.09,0.27,0.17,0.4,0.27c0.01,0,0.01,0.01,0.01,0.01
	c0.06,0.04,0.13,0.09,0.19,0.13c0.07,0.05,0.13,0.1,0.2,0.15c0.07,0.05,0.13,0.1,0.19,0.15c0.06,0.05,0.13,0.1,0.19,0.15
	c0.05,0.04,0.1,0.08,0.14,0.12c0.18,0.15,0.35,0.3,0.51,0.46c0.04,0.04,0.08,0.08,0.12,0.11c0.07,0.07,0.13,0.13,0.2,0.2
	c0.04,0.04,0.07,0.07,0.11,0.11c0.09,0.1,0.18,0.2,0.27,0.3c0.04,0.04,0.07,0.09,0.11,0.13c0.01,0.01,0.02,0.02,0.03,0.04
	c0.03,0.04,0.06,0.07,0.09,0.11c0.1,0.12,0.2,0.25,0.29,0.38c0.07,0.1,0.14,0.19,0.21,0.29c0.04,0.05,0.07,0.11,0.11,0.16
	c0.03,0.05,0.06,0.09,0.09,0.14c0.01,0.02,0.02,0.03,0.03,0.05c0.03,0.04,0.05,0.09,0.08,0.13c0.01,0.01,0.01,0.02,0.02,0.03
	c0.03,0.05,0.06,0.1,0.09,0.15c0.07,0.11,0.13,0.23,0.19,0.34c0.03,0.05,0.06,0.11,0.08,0.16c0,0,0.01,0.01,0.01,0.01c0,0,0,0,0,0
	c0.02,0.04,0.04,0.09,0.06,0.13c0.04,0.09,0.09,0.18,0.13,0.27c0.02,0.05,0.04,0.09,0.06,0.14c0.04,0.1,0.08,0.2,0.12,0.3
	c0.02,0.04,0.03,0.08,0.04,0.11c0.02,0.05,0.03,0.09,0.05,0.14c0.01,0.04,0.03,0.07,0.04,0.11c0.02,0.06,0.04,0.12,0.06,0.17
	c0.02,0.06,0.04,0.13,0.06,0.19c0.02,0.06,0.03,0.12,0.05,0.18c0.01,0.03,0.02,0.06,0.02,0.09c0.01,0.05,0.03,0.11,0.04,0.16
	C27.79,15.49,27.81,15.57,27.82,15.65z"/>
<path class="st4" d="M5.17,23.22c-0.46-0.04-0.92-0.13-1.39-0.25c-0.51-0.14-1.71-0.32-2.16-0.52c-0.45-0.83-1.13-2.36-1.21-4.38
	c-0.05-1.36,0.18-2.49,0.41-3.26c0.16-0.15,0.61-0.31,1.05-0.47c0.29-0.11,0.58-0.21,0.77-0.31c0.12-0.06,0.24-0.12,0.36-0.17
	c0.29-0.12,0.56-0.2,0.82-0.25c-0.15,0.72-0.23,1.46-0.23,2.22v0c-0.01,0.07-0.02,0.13-0.03,0.2c-0.06,0.44-0.08,0.89-0.08,1.35
	C3.48,19.51,4.09,21.51,5.17,23.22z"/>
<path class="st4" d="M30.43,22.32c-0.5,0.18-2.01,0.34-2.61,0.48c-0.41,0.1-0.81,0.17-1.2,0.23c1-1.67,1.57-3.59,1.57-5.64
	c0-0.52-0.04-1.04-0.11-1.55v0c0-0.37-0.02-0.74-0.06-1.1c-0.04-0.46-0.12-0.91-0.22-1.34c0.27,0.1,0.54,0.14,0.84,0.23c0,0,0,0,0,0
	c0.28,0.08,0.67,0.2,1.06,0.34c0.58,0.2,1.17,0.44,1.44,0.6c0.21,0.69,0.4,1.55,0.44,2.57C31.69,19.48,30.93,21.33,30.43,22.32z"/>
<path class="st5" d="M10.28,11.26c-1.37,0.89-2.14,1.93-2.57,2.54c-1.17,1.66-1.82,3.5-2.07,4.66c-0.16-0.46-1.08-3.76,0.42-6.1
	c0.56-0.88,1.38-1.24,2.06-1.61c2.49-1.34,5.23-1.25,5.31-0.87C13.48,10.12,12.17,10.03,10.28,11.26z"/>
<path class="st5" d="M25.33,17.97c-0.15,0.97-0.83,1.67-1.52,1.55c-0.69-0.12-1.13-1-0.99-1.98c0.15-0.98,0.83-1.67,1.52-1.55
	C25.03,16.11,25.47,16.99,25.33,17.97z"/>
<path class="st5" d="M23.43,21.12c-0.13,0.45-0.52,0.72-0.87,0.6c-0.22-0.07-0.38-0.28-0.42-0.54c-0.03-0.15-0.03-0.32,0.02-0.48
	c0.13-0.45,0.52-0.71,0.87-0.6c0.15,0.05,0.28,0.17,0.35,0.32C23.48,20.62,23.5,20.87,23.43,21.12z"/>
<path class="st6" d="M29.71,13.95c-0.39-0.14-0.78-0.26-1.06-0.34C27.4,7.45,21.91,2.93,15.67,3.01C9.49,3.09,4.12,7.67,3,13.86
	c-0.12,0.05-0.24,0.1-0.36,0.17c-0.19,0.1-0.48,0.2-0.77,0.31C2.61,7.25,8.62,1.77,15.71,1.73C22.75,1.68,28.78,6.99,29.71,13.95z"
	/>
</svg>
