<?xml version="1.0" encoding="utf-8"?>
<!-- Generator: Adobe Illustrator 27.3.1, SVG Export Plug-In . SVG Version: 6.00 Build 0)  -->
<svg version="1.1" id="Ebene_1" xmlns="http://www.w3.org/2000/svg" xmlns:xlink="http://www.w3.org/1999/xlink" x="0px" y="0px"
	 viewBox="0 0 612 792" style="enable-background:new 0 0 612 792;" xml:space="preserve">
<style type="text/css">
	.st0{fill:none;stroke:#1D1D1B;stroke-miterlimit:10;}
	.st1{fill:#FFFFFF;stroke:#1D1D1B;stroke-miterlimit:10;}
	.st2{fill:#211130;stroke:#1D1D1B;stroke-miterlimit:10;}
	.st3{fill:#B2B2B2;stroke:#1D1D1B;stroke-miterlimit:10;}
	.st4{fill:#FFE60A;stroke:#1D1D1B;stroke-miterlimit:10;}
	.st5{fill:#DADADA;stroke:#1D1D1B;stroke-miterlimit:10;}
	.st6{fill:#FFB915;stroke:#1D1D1B;stroke-miterlimit:10;}
</style>
<g>
	<path class="st0" d="M305.37,307.7c-49.44,0-89.74,34.34-91.6,77.33c-0.02,0.2-0.03,0.4-0.03,0.6c-0.02,0.51-0.03,1.01-0.03,1.52
		c-0.02,0.34-0.02,0.68-0.02,1.01c0,4.8,0.48,9.5,1.4,14.07c0,0.06,0.02,0.12,0.03,0.17c1.28,6.29,3.39,12.32,6.24,18.01
		c-4.4-10.72-7.05-22.43-7.57-34.72c22.02,29.26,54.59,47.78,90.95,47.78c16.71,0,32.64-3.91,47.09-10.98
		c-0.25-1.46-0.15-3.08,0.36-4.67c1.39-4.31,5.27-6.81,8.66-5.6c1.5,0.54,2.65,1.71,3.35,3.22c12.49-8.17,23.58-18.85,32.73-31.42
		C394.49,341.51,354.43,307.7,305.37,307.7z M278.64,333.55c-13.62,8.29-21.42,18.2-25.75,23.99
		c-11.85,15.88-18.68,33.58-21.53,44.84c-1.43-4.5-9.42-36.97,5.82-59.32c5.73-8.4,13.78-11.73,20.55-15.13
		c24.61-12.37,51.29-10.66,51.96-6.96C310.12,323.35,297.33,322.15,278.64,333.55z M372.27,403.47c-6.7-1.34-10.76-10.1-9.06-19.56
		c1.7-9.46,8.51-16.04,15.21-14.7c6.7,1.34,10.76,10.1,9.06,19.56C385.79,398.23,378.97,404.81,372.27,403.47z"/>
	<path class="st0" d="M305.37,307.7c-49.44,0-89.74,34.34-91.6,77.33c-0.02-0.44-0.04-0.87-0.05-1.31
		c-0.02,0.62-0.03,1.23-0.02,1.85c-0.01,0.13-0.01,0.27-0.01,0.4c0,0.4,0,0.79,0.02,1.19c0.06,5.14,0.53,10.17,1.38,15.08
		c0,0.06,0.02,0.12,0.03,0.17c1.28,6.29,3.39,12.32,6.24,18.01c-4.4-10.72-7.05-22.43-7.57-34.72
		c22.02,29.26,54.59,47.78,90.95,47.78c16.71,0,32.64-3.91,47.09-10.98c-0.25-1.46-0.15-3.08,0.36-4.67
		c1.39-4.31,5.27-6.81,8.66-5.6c1.5,0.54,2.65,1.71,3.35,3.22c12.49-8.17,23.58-18.85,32.73-31.42
		C394.49,341.51,354.43,307.7,305.37,307.7z M278.64,333.55c-13.62,8.29-21.42,18.2-25.75,23.99
		c-11.85,15.88-18.68,33.58-21.53,44.84c-1.43-4.5-9.42-36.97,5.82-59.32c5.73-8.4,13.78-11.73,20.55-15.13
		c24.61-12.37,51.29-10.66,51.96-6.96C310.12,323.35,297.33,322.15,278.64,333.55z M372.27,403.47c-6.7-1.34-10.76-10.1-9.06-19.56
		c1.7-9.46,8.51-16.04,15.21-14.7c6.7,1.34,10.76,10.1,9.06,19.56C385.79,398.23,378.97,404.81,372.27,403.47z"/>
	<path class="st1" d="M401.16,383.53c0.01,0.07,0,0.13,0,0.19c-1.23,50.97-38.97,92.34-86.66,96.09c-0.76,0.06-1.51,0.1-2.28,0.15
		h-0.02c-0.77,0.04-1.55,0.08-2.33,0.09c-0.81,0.03-1.61,0.03-2.42,0.03s-1.61-0.01-2.42-0.03c-0.65-0.02-1.29-0.04-1.94-0.07
		c-0.08,0-0.17-0.01-0.25-0.02c-35.78-1.73-66.29-23.6-80.54-54.56c-3.33-7.22-5.77-14.94-7.18-23c1.28,6.29,3.39,12.32,6.24,18.01
		c14.16,28.38,46.45,48.21,84.01,48.21c50.64,0,91.69-36.02,91.69-80.46c0-1.38-0.04-2.77-0.12-4.13
		c-2.44-42.52-42.51-76.33-91.56-76.33c-49.44,0-89.74,34.34-91.6,77.33c-0.02-0.44-0.04-0.87-0.05-1.31c0-0.06-0.01-0.12,0-0.19
		c1.28-50.86,42.74-91.7,93.72-91.7c49.22,0,89.57,38.08,93.44,86.49C401.03,380.05,401.11,381.79,401.16,383.53z"/>
	<path class="st0" d="M401.19,385.97c0,2.5-0.1,4.98-0.29,7.42v0.02c-0.41,5.27-1.25,10.42-2.49,15.4c0,0.01,0,0.01,0,0.01
		c-0.5,1.99-1.05,3.94-1.67,5.88l-0.01,0.04l-0.01,0.03c-1.8,5.63-4.11,11.03-6.88,16.15l-0.02,0.05l-0.04,0.07l-0.03,0.04
		c-0.95,1.76-1.96,3.48-3.02,5.16c-1.47,2.33-3.03,4.58-4.7,6.76c-15.78,20.79-40,34.76-67.52,36.81
		c29.39-2.31,55.01-18.91,70.62-43.25c3.6-5.6,6.67-11.62,9.12-17.97c0.01-0.02,0.02-0.03,0.02-0.04
		c4.19-10.78,6.61-22.52,6.91-34.83C401.18,384.47,401.19,385.22,401.19,385.97z"/>
	<path class="st0" d="M305.37,307.7c-49.44,0-89.74,34.34-91.6,77.33c0,0.22,0.01,0.45,0.02,0.67
		c22.02,29.26,54.59,47.78,90.95,47.78c16.71,0,32.64-3.91,47.09-10.98c-0.25-1.46-0.15-3.08,0.36-4.67
		c1.39-4.31,5.27-6.81,8.66-5.6c1.5,0.54,2.65,1.71,3.35,3.22c12.49-8.17,23.58-18.85,32.73-31.42
		C394.49,341.51,354.43,307.7,305.37,307.7z M278.64,333.55c-13.62,8.29-21.42,18.2-25.75,23.99
		c-11.85,15.88-18.68,33.58-21.53,44.84c-1.43-4.5-9.42-36.97,5.82-59.32c5.73-8.4,13.78-11.73,20.55-15.13
		c24.61-12.37,51.29-10.66,51.96-6.96C310.12,323.35,297.33,322.15,278.64,333.55z M372.27,403.47c-6.7-1.34-10.76-10.1-9.06-19.56
		c1.7-9.46,8.51-16.04,15.21-14.7c6.7,1.34,10.76,10.1,9.06,19.56C385.79,398.23,378.97,404.81,372.27,403.47z"/>
	<path class="st2" d="M397.06,388.17c0,44.44-41.05,80.46-91.69,80.46c-37.56,0-69.85-19.82-84.01-48.21
		c-4.4-10.72-7.05-22.43-7.57-34.72c22.02,29.26,54.59,47.78,90.95,47.78c16.71,0,32.64-3.91,47.09-10.98
		c0.42,2.51,1.85,4.57,3.99,5.34c3.39,1.22,7.27-1.29,8.66-5.6c0.77-2.41,0.61-4.87-0.29-6.78c12.49-8.17,23.58-18.85,32.73-31.42
		C397.02,385.4,397.06,386.78,397.06,388.17z"/>
	<path class="st3" d="M364.49,422.23c-1.39,4.31-5.27,6.82-8.66,5.6c-2.14-0.76-3.58-2.83-3.99-5.34c-0.25-1.46-0.15-3.08,0.36-4.67
		c1.39-4.31,5.27-6.81,8.66-5.6c1.5,0.54,2.65,1.71,3.35,3.22C365.1,417.36,365.26,419.82,364.49,422.23z"/>
	<path class="st0" d="M401.19,381.17c0,0.79-0.01,1.58-0.03,2.36c-0.04-1.74-0.13-3.48-0.28-5.21c0.09-0.13,0.17-0.26,0.25-0.39
		C401.17,379.01,401.19,380.09,401.19,381.17z"/>
	<path class="st4" d="M222.3,425.41c-22.59-0.11-28.51-7.06-28.51-7.06s-8.26-3.84-9.55-25.99c-1.08-18.36,1.79-31.14,4.97-36.2
		c0.72-1.14,1.45-1.89,2.16-2.22c1.73-0.8,4.95-1.99,8.63-3.27l0.59-0.2l9.63-3.22l1.06-0.35c4.73-1.54,8.45-2.7,8.67-2.77
		c-5.69,11.44-8.81,23.93-8.81,37.04c0,0.79,0.02,1.58,0.04,2.36c-0.01,0.07,0,0.13,0,0.19c-0.02,0.62-0.04,1.23-0.02,1.85
		c-0.02,0.13-0.02,0.27-0.02,0.4c0,0.4,0,0.79,0.02,1.19c-0.02,0.34-0.02,0.68-0.02,1.01c0,4.8,0.63,9.5,1.82,14.07
		c0,0.06,0.02,0.12,0.04,0.17C214.82,410.47,217.98,418.19,222.3,425.41z"/>
	<path class="st1" d="M210.21,347.25l-9.63,3.22C203.72,349.38,207.13,348.25,210.21,347.25z"/>
	<path class="st0" d="M222.7,425.41c-0.14,0-0.28,0-0.41,0"/>
	<path class="st4" d="M427.54,396.59c-1.67,15.67-11.39,30.51-11.39,30.51s-4.24,4.34-13.44,6.02c-5.33,0.97-11.64,2.23-16,3.12
		c1.06-1.68,2.07-3.4,3.02-5.16l0.03-0.04l0.04-0.07l0.02-0.05c2.77-5.11,5.08-10.52,6.88-16.15l0.01-0.03l0.01-0.04
		c0.62-1.93,1.17-3.89,1.67-5.88c0,0,0,0,0-0.01c0.23-0.64,0.45-1.28,0.65-1.92l0.01-0.03l0.01-0.04c2.3-7.09,3.51-14.4,3.54-21.82
		l-0.01-0.02l0.25-1.53L401,365.36l-0.68-1.38v-0.02c-0.5-2.29-1.11-4.55-1.83-6.76c1.87-0.21,5.56-0.34,10.33,0.9l6.25,2.24
		c10.31,4.77,10.69,6.26,10.69,6.26S429.2,380.91,427.54,396.59z"/>
	<path class="st1" d="M397.3,411.76c0.39-0.98,0.76-1.96,1.1-2.95c-0.5,1.99-1.05,3.94-1.67,5.88l-0.01,0.04l-0.01,0.03
		c-1.8,5.63-4.11,11.03-6.88,16.15l-0.02,0.05l-0.04,0.07l-0.03,0.04c-0.95,1.76-1.96,3.48-3.02,5.16
		c-0.16,0.03-0.33,0.07-0.49,0.09c-0.39,0.09-0.77,0.16-1.12,0.23c-1.6,0.33-2.79,0.58-3.35,0.7c3.56-4.19,6.69-8.55,9.38-13.07
		l0.04-0.04l0.05-0.08l0.02-0.05c1.06-1.79,2.05-3.59,2.97-5.42c0.01-0.02,0.02-0.03,0.02-0.04
		C395.38,416.33,396.4,414.06,397.3,411.76L397.3,411.76z"/>
	<path class="st1" d="M415.07,360.34l-6.25-2.24C410.73,358.6,412.84,359.31,415.07,360.34z"/>
	<path class="st0" d="M389.74,431.07c-0.95,1.76-1.96,3.48-3.02,5.16c-1.47,2.33-3.03,4.58-4.7,6.76c-0.16,0.02-0.25,0.03-0.25,0.03
		l4.46-6.69L389.74,431.07z"/>
	<path class="st0" d="M396.72,414.76c-1.8,5.63-4.11,11.03-6.88,16.15L396.72,414.76z"/>
	<path class="st0" d="M400.9,393.41c-0.41,5.27-1.25,10.42-2.49,15.4c0,0.01,0,0.01,0,0.01c-0.5,1.99-1.05,3.94-1.67,5.88l0.57-2.92
		v-0.01L400.9,393.41z"/>
	<path class="st0" d="M386.06,437.26"/>
	<path class="st1" d="M401.13,377.94c-0.08,0.13-0.16,0.26-0.25,0.39c-3.87-48.41-44.22-86.49-93.44-86.49
		c-50.98,0-92.44,40.84-93.72,91.7c-0.02-0.78-0.03-1.57-0.03-2.36c0-13.1,2.41-25.61,6.8-37.05
		c13.89-36.27,47.59-61.86,86.95-61.86c46.65,0,85.35,35.95,92.54,83.04c0.36,2.29,0.63,4.6,0.82,6.93v0.02
		C400.97,374.12,401.08,376.03,401.13,377.94z"/>
	<path class="st2" d="M305.37,307.7c-49.44,0-89.74,34.34-91.6,77.33c-0.02-0.44-0.04-0.87-0.05-1.31
		c-0.02,0.62-0.03,1.23-0.02,1.85c0.01,0.03,0.02,0.04,0.04,0.06c0.02,0.03,0.03,0.05,0.06,0.07
		c22.02,29.26,54.59,47.78,90.95,47.78c16.71,0,32.64-3.91,47.09-10.98c-0.25-1.46-0.15-3.08,0.36-4.67
		c1.39-4.31,5.27-6.81,8.66-5.6c1.5,0.54,2.65,1.71,3.35,3.22c12.49-8.17,23.58-18.85,32.73-31.42
		C394.49,341.51,354.43,307.7,305.37,307.7z M278.64,333.55c-13.62,8.29-21.42,18.2-25.75,23.99
		c-11.85,15.88-18.68,33.58-21.53,44.84c-1.43-4.5-9.42-36.97,5.82-59.32c5.73-8.4,13.78-11.73,20.55-15.13
		c24.61-12.37,51.29-10.66,51.96-6.96C310.12,323.35,297.33,322.15,278.64,333.55z M372.27,403.47c-6.7-1.34-10.76-10.1-9.06-19.56
		c1.7-9.46,8.51-16.04,15.21-14.7c6.7,1.34,10.76,10.1,9.06,19.56C385.79,398.23,378.97,404.81,372.27,403.47z"/>
	<path class="st5" d="M278.64,333.55c-13.62,8.29-21.42,18.2-25.75,23.99c-11.85,15.88-18.68,33.58-21.53,44.84
		c-1.43-4.5-9.42-36.97,5.82-59.32c5.73-8.4,13.78-11.73,20.55-15.13c24.61-12.37,51.29-10.66,51.96-6.96
		C310.12,323.35,297.33,322.15,278.64,333.55z"/>
	<path class="st5" d="M387.48,388.77c-1.69,9.46-8.51,16.04-15.21,14.7c-6.7-1.34-10.76-10.1-9.06-19.56
		c1.7-9.46,8.51-16.04,15.21-14.7C385.13,370.55,389.18,379.31,387.48,388.77z"/>
	<path class="st5" d="M364.49,422.23c-1.39,4.31-5.27,6.82-8.66,5.6c-2.14-0.76-3.58-2.83-3.99-5.34c-0.25-1.46-0.15-3.08,0.36-4.67
		c1.39-4.31,5.27-6.81,8.66-5.6c1.5,0.54,2.65,1.71,3.35,3.22C365.1,417.36,365.26,419.82,364.49,422.23z"/>
	<path class="st6" d="M415.07,360.34c-2.22-1.03-4.33-1.74-6.25-2.24c0,0-8.08-100.68-103.4-95.13c-82.72,4.82-91.74,67-91.74,67
		l-2.42,16.93l-1.06,0.35c-3.08,1-6.49,2.13-9.63,3.22l-0.59,0.2c0,0,11.89-96.32,105.43-100.02
		C406.24,246.67,415.07,360.34,415.07,360.34z"/>
	<path class="st1" d="M210.21,347.25l-9.63,3.22C203.72,349.38,207.13,348.25,210.21,347.25z"/>
	<path class="st1" d="M415.07,360.34l-6.25-2.24C410.73,358.6,412.84,359.31,415.07,360.34z"/>
</g>
</svg>
